<svg xmlns="http://www.w3.org/2000/svg" viewBox="0 0 144 144"><defs><style>.cls-1{fill:#f7d74e;}</style></defs><title>canola</title><g id="Layer_2" data-name="Layer 2"><g id="Layer_1-2" data-name="Layer 1"><path class="cls-1" d="M71.91,144a72,72,0,1,1,68-48.08h0A72.11,72.11,0,0,1,71.91,144ZM72,4.85A67.15,67.15,0,1,0,94.29,8.67,67.15,67.15,0,0,0,72,4.85Z"/><path class="cls-1" d="M80.69,101.87H63.27a2.56,2.56,0,0,1-1.75-.72c-.37-.38-9.46-9.49-9.46-19.07,0-6.39,3.19-9.91,6-13S63.7,62.8,63.7,56.15V51l-2.62-5.24a2.48,2.48,0,0,1,.08-2.43,2.57,2.57,0,0,1,2.12-1.18H77.83a2.49,2.49,0,0,1,2.47,2.5V56.14c0,6.65,2.77,9.71,5.65,12.93s6,6.62,6,13c0,9.58-9,18.69-9.42,19.07A2.6,2.6,0,0,1,80.69,101.87Zm-16.34-5H79.64c1.9-2.16,7.3-8.64,7.3-14.83,0-4.48-2.08-6.78-4.7-9.69-3.1-3.42-6.93-7.68-6.93-16.25v-9h-8l1.1,2.15a2.42,2.42,0,0,1,.26,1.12v5.77c0,8.57-3.84,12.83-6.93,16.25-2.6,2.91-4.68,5.21-4.68,9.69,0,5.67,4.76,12,7.29,14.83Z"/><path class="cls-1" d="M63.63,74.06c-2.74,3-4.05,4.64-4.05,8,0,4.39,3.55,9.51,5.93,12.31h13c2.36-2.8,5.91-7.92,5.91-12.31,0-3.38-1.31-5-4.05-8Z"/><path class="cls-1" d="M82,69.5a2.5,2.5,0,0,1,0-5c3.92,0,5-5.27,5-8.39a3.52,3.52,0,0,0-1.08-2.88c-1.68-1.44-4.93-1.35-6-1.21A2.53,2.53,0,0,1,77,49.95h0a2.51,2.51,0,0,1,2.13-2.81c.61-.1,6.33-.82,10,2.36a8.38,8.38,0,0,1,2.81,6.65C91.9,64.13,87.91,69.5,82,69.5Z"/><path class="cls-1" d="M54.65,114.83l-.73,1.94,4.35,1.64-.68,1.82-4.35-1.63-1.33,3.53-2-.75,3.42-9.12,6.94,2.6-.68,1.82Z"/><path class="cls-1" d="M68.33,125.89l-1.75-3.32-1.67-.17-.33,3.1-2.13-.23,1-9.69,4.43.47c2.28.24,3.53,1.58,3.32,3.58h0a3,3,0,0,1-2.39,2.78l2,3.72Zm.72-6.38c.09-.91-.5-1.45-1.54-1.56l-2.11-.22-.3,2.78,2.16.23c1,.11,1.7-.38,1.78-1.2Z"/><path class="cls-1" d="M76.48,125.91l-1.42-9.63,7.27-1.07.28,1.88-5.16.76.28,2,4.55-.67.27,1.88-4.54.67.3,2,5.23-.77.28,1.89Z"/><path class="cls-1" d="M89.54,123.19l-3.74-9,6.78-2.82.73,1.76-4.81,2,.75,1.83,4.24-1.77.73,1.76L90,118.73l.78,1.88,4.88-2,.74,1.76Z"/><path class="cls-1" d="M33.19,51a4.92,4.92,0,0,1-6.61,2.18l-.15-.08h0a5,5,0,0,1-2.17-6.73l.06-.11a5,5,0,0,1,3.12-2.71l.76,1.94a3.57,3.57,0,0,0-2.13,1.69,2.9,2.9,0,0,0,1.31,3.89l.07,0h0a2.88,2.88,0,0,0,4-1l0-.09a3.51,3.51,0,0,0,.18-2.8l1.86-.57A5,5,0,0,1,33.19,51Z"/><path class="cls-1" d="M41.75,39.52l-2.21-.84-2.82,3,1,2.14-1.5,1.6-4.29-9.76,1.35-1.44,10,3.67Zm-7.3-2.8,1.42,3.11,1.77-1.89Z"/><path class="cls-1" d="M51.57,32.61,44.34,29.7,47.51,35l-1.82,1.1-5-8.37,1.7-1,7,2.83L46.33,24.4l1.82-1.08,5,8.38Z"/><path class="cls-1" d="M61.21,29.19A5,5,0,0,1,55,25.76l0-.17h0a5,5,0,0,1,3.58-6.1l.23-.05A5,5,0,0,1,65,22.9l0,.1h0a5,5,0,0,1-3.52,6.13Zm1.64-5.61a3,3,0,0,0-3.59-2.25h0a2.91,2.91,0,0,0-2.14,3.51l0,.16h0a3,3,0,0,0,3.59,2.25h0a2.92,2.92,0,0,0,2.12-3.54l0-.12Z"/><path class="cls-1" d="M69.63,27.63l.22-9.73H72l-.17,7.79,4.85.11v2Z"/><path class="cls-1" d="M86.79,30.12l-.27-2.34-4-1.12-1.44,1.87L79,27.94l6.67-8.32,1.9.53L89,30.72Zm-.89-7.76L83.8,25l2.49.7Z"/><path class="cls-1" d="M100.55,38.33a5,5,0,0,1-.8-7l.11-.13h0a5,5,0,0,1,7-.64l.18.16a5,5,0,0,1,.8,7l-.11.13h0a5,5,0,0,1-7,.64Zm5.51-1.92a3,3,0,0,0-.25-4.24h0a2.91,2.91,0,0,0-4.1.31l-.09.11h0a3,3,0,0,0,.26,4.23h0a2.91,2.91,0,0,0,4.1-.31Z"/><path class="cls-1" d="M106.84,44.6l7.8-5.84,1.28,1.72-7.8,5.84Z"/><path class="cls-1" d="M110.51,49.87l8.77-4.25.94,1.93-7,3.4,2.12,4.37-1.75.85Z"/></g></g></svg>