<svg xmlns="http://www.w3.org/2000/svg" viewBox="0 0 144 144"><defs><style>.cls-1{fill:#f7d74e;}</style></defs><title>corn</title><g id="Layer_2" data-name="Layer 2"><g id="Layer_1-2" data-name="Layer 1"><path class="cls-1" d="M54.59,114.82l-.69,1.94,4.35,1.64-.68,1.82-4.35-1.63-1.32,3.53-2-.75,3.42-9.12,6.94,2.6-.68,1.82Z"/><path class="cls-1" d="M68.27,125.88l-1.75-3.32-1.68-.17-.32,3.1-2.13-.23,1-9.69,4.44.47c2.28.24,3.52,1.58,3.31,3.58h0a3,3,0,0,1-2.39,2.78l2,3.71ZM69,119.5c.1-.91-.49-1.45-1.53-1.56l-2.12-.22L65,120.5l2.16.23a1.43,1.43,0,0,0,1.78-1.2Z"/><path class="cls-1" d="M76.42,125.9,75,116.27l7.26-1.07.28,1.88-5.16.76.29,2,4.54-.67.28,1.88-4.54.67.3,2,5.22-.77.28,1.89Z"/><path class="cls-1" d="M89.47,123.18l-3.74-9,6.78-2.82.73,1.76-4.81,2,.76,1.83,4.23-1.77.74,1.76-4.26,1.78.78,1.88,4.88-2,.74,1.76Z"/><path class="cls-1" d="M55,31.27a4.92,4.92,0,0,1-6.51-2.45l-.07-.16h0a5,5,0,0,1,2.52-6.61L51,22a5,5,0,0,1,4.13-.15l-.63,2a3.56,3.56,0,0,0-2.72,0,2.89,2.89,0,0,0-1.43,3.83l0,.08h0a2.91,2.91,0,0,0,3.74,1.72l.08,0a3.53,3.53,0,0,0,1.89-2.07l1.8.72A5,5,0,0,1,55,31.27Z"/><path class="cls-1" d="M66,28.27a5,5,0,0,1-5.76-4.11l0-.16h0a5.18,5.18,0,0,1,10.26-1.39h0a5,5,0,0,1-4.27,5.64Zm2.26-5.39A3,3,0,0,0,65,20.24h0a2.92,2.92,0,0,0-2.52,3.27l0,.12h0a3,3,0,0,0,3.31,2.65h0A2.92,2.92,0,0,0,68.31,23l0-.13Z"/><path class="cls-1" d="M80.42,28.47,78.8,25.08l-1.66-.24-.45,3.08-2.12-.31L76,18l4.41.64c2.27.33,3.46,1.73,3.17,3.71h0A3,3,0,0,1,81.05,25l1.85,3.82Zm1-6.35c.14-.91-.43-1.47-1.46-1.62l-2.11-.31L77.45,23l2.15.32a1.43,1.43,0,0,0,1.82-1.13Z"/><path class="cls-1" d="M92.16,32.5l-1.81-7.58-2.51,5.66-1.94-.85,4-8.91,1.8.8L93.41,29l2.43-5.48,1.93.86-4,8.91Z"/><path class="cls-1" d="M71.9,144a72,72,0,1,1,68-48.06h0A72.09,72.09,0,0,1,71.9,144ZM72,4.89A67.14,67.14,0,1,0,94.27,8.71,67.14,67.14,0,0,0,72,4.89Z"/><path class="cls-1" d="M83.9,64.87a2.14,2.14,0,0,1-.45,1.31l-1,1.14a1.71,1.71,0,0,1-.77.59.77.77,0,0,1-.59-.65v-.33C81,65.37,80.9,63,80.9,63a.76.76,0,0,1,.72-.78H82.9a.8.8,0,0,1,.81.73Zm-.46-5.08a.66.66,0,0,1-.55.75h-1.3a.78.78,0,0,1-.79-.73l-.27-4.17a.71.71,0,0,1,.65-.77h0c.41,0,1.55.29,1.62.7Zm-1.21-7.28a.57.57,0,0,1-.35.73l-.16,0c-.38,0-1.4-.31-1.44-.72l-.38-4.17c0-.41.09-.75.31-.75a1.28,1.28,0,0,1,1,.7Zm-2.06-7.24c.15.39.14.71,0,.72a1,1,0,0,1-.62-.74l-.18-1.47c0-.41,0-.43.2,0ZM79,71.17a3,3,0,0,1-.4,1.38l-1.32,2.16a1.54,1.54,0,0,1-1.13.67L74,75.43a.73.73,0,0,1-.77-.69v0l-.12-4.18a.76.76,0,0,1,.73-.77l4.38-.12a.73.73,0,0,1,.75.71v.82ZM75.25,77a.42.42,0,0,1,.43.66s-1.29,2.72-1.94,4.59l-.06.16a.88.88,0,0,1-.14.32,2.51,2.51,0,0,1-.1-.75l-.13-4.17A.75.75,0,0,1,74,77h0ZM78.9,67v.33a.71.71,0,0,1-.74.68h0l-4.38.12a.73.73,0,0,1-.78-.64v-.33c-.05-1.56-.11-3.93-.11-3.93a.75.75,0,0,1,.73-.77h0L78,62.34a.76.76,0,0,1,.78.73S78.9,65.43,78.9,67Zm-.3-7.07a.73.73,0,0,1-.69.77h0l-4.31.11a.75.75,0,0,1-.77-.73h0l-.1-4.17a.76.76,0,0,1,.74-.77L77.54,55a.8.8,0,0,1,.8.73Zm-.51-7.31a.71.71,0,0,1-.65.77h0l-4,.11a.75.75,0,0,1-.77-.73h0l-.11-4.17a.76.76,0,0,1,.73-.78l3.61-.09a.82.82,0,0,1,.83.73Zm-.74-7.29a.67.67,0,0,1-.57.75h-.09l-3.48.1a.76.76,0,0,1-.77-.74l-.1-4.17a.76.76,0,0,1,.73-.77L76,40.43a.85.85,0,0,1,.85.72ZM75.9,37.56a2.55,2.55,0,0,1,.56.76.75.75,0,0,1-.69.47l-2.72.07a.76.76,0,0,1-.77-.73l-.05-2.35c0-.41.28-.61.65-.43Zm-4.83,37.2a2.32,2.32,0,0,1,0,.76,2.33,2.33,0,0,1-.4-.7l-1.84-4.23a.45.45,0,0,1,.43-.7h1a.76.76,0,0,1,.78.73Zm-.21-7.55v.33a.71.71,0,0,1-.73.68H68.35a1.4,1.4,0,0,1-1.12-.63l-1.48-2.51a3,3,0,0,1-.41-1.24c0-.34.32-1.23.73-1.24l3.9-.1a.75.75,0,0,1,.78.72h0s.06,2.42.15,4ZM66.34,38.26a2,2,0,0,1,.56-.92l2.48-1.9a.43.43,0,0,1,.68.4l.06,2.35a.76.76,0,0,1-.73.77L67,39a.86.86,0,0,1-.69-.77Zm-.27,3.18a.86.86,0,0,1,.81-.77l2.55-.07a.76.76,0,0,1,.77.73l.1,4.17a.76.76,0,0,1-.73.78l-3.08.08a.68.68,0,0,1-.71-.73Zm-.46,7.33A.82.82,0,0,1,66.4,48l3.21-.08a.74.74,0,0,1,.77.71v0l.1,4.17a.74.74,0,0,1-.71.77h0l-3.58.1a.71.71,0,0,1-.73-.69s0,0,0,0Zm-.24,7.33a.78.78,0,0,1,.76-.77l3.66-.1a.75.75,0,0,1,.77.73h0l.11,4.17a.74.74,0,0,1-.71.77h0L66.07,61a.72.72,0,0,1-.74-.7s0,0,0,0ZM63.55,43.17c.15-.39.24-.37.22,0l-.17,2.47c0,.41-.21.75-.42.76a.58.58,0,0,1-.52-.7Zm-1.72,5.69c.09-.41.38-.74.65-.75s1,.31,1,.72L63.27,53a.8.8,0,0,1-.77.77h-.88A.59.59,0,0,1,61,53Zm-1.28,7.37a.91.91,0,0,1,.84-.77h1.06a.71.71,0,0,1,.74.68s0,0,0,.05v4.18a2.76,2.76,0,0,1,0,.75,3.31,3.31,0,0,1-.55-.59L60.9,58.35A2.06,2.06,0,0,1,60.46,57Zm26.7,33A48.32,48.32,0,0,1,73.9,108.47c-.32.26-.83.71-1.13,1a1.27,1.27,0,0,1-.49.2C68.5,110.8,61.63,99.79,57,85.08a59.62,59.62,0,0,1-1.8-27.93.39.39,0,0,1,.71-.22A61.39,61.39,0,0,1,70.63,81c1,3.14,2.28,8.34,2.28,8.34.1.4.28.4.4,0,0,0,.78-2.59,1.39-4.3A46.67,46.67,0,0,1,88.22,65.86a.44.44,0,0,1,.76.27A45.12,45.12,0,0,1,87.25,89.28Z"/></g></g></svg>