<svg xmlns="http://www.w3.org/2000/svg" viewBox="0 0 144 144"><defs><style>.cls-1{fill:#f7d74e;}</style></defs><title>egg</title><g id="Layer_2" data-name="Layer 2"><g id="Layer_1-2" data-name="Layer 1"><path class="cls-1" d="M54.71,114.81,54,116.75l4.35,1.63-.68,1.82-4.35-1.63L52,122.11l-2-.76,3.42-9.12,6.94,2.6-.68,1.83Z"/><path class="cls-1" d="M68.39,125.87l-1.75-3.32L65,122.37l-.32,3.1-2.13-.22,1-9.7,4.44.47c2.28.24,3.52,1.59,3.31,3.58h0a3,3,0,0,1-2.39,2.79l2,3.71Zm.71-6.38c.1-.92-.49-1.45-1.53-1.56l-2.11-.23-.3,2.79,2.16.22a1.43,1.43,0,0,0,1.78-1.2Z"/><path class="cls-1" d="M76.54,125.88l-1.42-9.63,7.26-1.07.28,1.89-5.16.76.29,1.95,4.54-.67.28,1.89-4.54.67.3,2,5.23-.77.27,1.88Z"/><path class="cls-1" d="M89.59,123.17l-3.74-9,6.78-2.83.73,1.76-4.81,2,.76,1.82,4.23-1.76.74,1.76L90,118.7l.78,1.89,4.88-2,.74,1.76Z"/><path class="cls-1" d="M56.82,30.24l-2.61-9.39,7.08-2,.51,1.84-5,1.39L57.3,24l4.43-1.23.51,1.84-4.43,1.23.55,2,5.1-1.42L64,28.26Z"/><path class="cls-1" d="M72.08,27.85a4.87,4.87,0,0,1-5.16-4.56q0-.22,0-.44h0a5,5,0,0,1,4.91-5.09h.09A5.36,5.36,0,0,1,75.75,19L74.42,20.7a3.57,3.57,0,0,0-2.56-1,2.92,2.92,0,0,0-2.76,3.06h0a2.91,2.91,0,0,0,2.82,3h.18a3.39,3.39,0,0,0,2-.6V23.77H71.95V21.92h4.23v4.23A6.31,6.31,0,0,1,72.08,27.85Z"/><path class="cls-1" d="M84.21,29.55a4.87,4.87,0,0,1-3.7-5.81q0-.19.1-.38h0a5,5,0,0,1,6.12-3.54l.14,0a5.39,5.39,0,0,1,3.34,2.31l-1.74,1.21a3.57,3.57,0,0,0-2.19-1.63,2.92,2.92,0,0,0-3.5,2.18h0a2.92,2.92,0,0,0,1.82,3.71l.18.05a3.4,3.4,0,0,0,2.1,0l.37-1.34-2.08-.57.5-1.79,4.07,1.13L88.62,29.2A6.35,6.35,0,0,1,84.21,29.55Z"/><path class="cls-1" d="M72.09,144a72,72,0,1,1,67.83-48.1h0A72.1,72.1,0,0,1,72.09,144Zm0-139.15A67.14,67.14,0,1,0,94.33,8.67,67.14,67.14,0,0,0,72.09,4.85Z"/><path class="cls-1" d="M72.11,108.5c-8.63,0-15.27-2.89-19.72-8.6-3.75-4.81-5.73-11.52-5.73-19.42,0-18.92,11.71-42,25.38-42S97.5,61.65,97.5,80.62c0,7.87-2,14.56-5.71,19.35C87.35,105.62,80.73,108.5,72.11,108.5ZM72,43.09c-9.89,0-20.74,19.57-20.74,37.39,0,6.85,1.64,12.58,4.75,16.57,3.52,4.52,8.93,6.81,16.06,6.81s12.51-2.28,16-6.78c3.1-4,4.74-9.66,4.74-16.49C92.87,62.71,82,43.09,72,43.09Z"/></g></g></svg>