<svg xmlns="http://www.w3.org/2000/svg" viewBox="0 0 144 144"><defs><style>.cls-1{fill:#f7d74e;}</style></defs><title>gluten</title><g id="Layer_2" data-name="Layer 2"><g id="Layer_1-2" data-name="Layer 1"><path class="cls-1" d="M46.65,35.94a4.88,4.88,0,0,1-6.86-.76l-.22-.3h0a5,5,0,0,1,1.08-7l.11-.08a5.37,5.37,0,0,1,3.89-1.16l-.14,2.11a3.6,3.6,0,0,0-2.65.69,2.93,2.93,0,0,0-.49,4.1h0a2.91,2.91,0,0,0,4,.91l.19-.13a3.41,3.41,0,0,0,1.29-1.66l-.77-1.13L44.3,32.8l-1.09-1.5,3.43-2.48,2.45,3.43A6.28,6.28,0,0,1,46.65,35.94Z"/><path class="cls-1" d="M53.18,31.81l-3.52-9.09,2-.78,2.82,7.27L59,27.46l.7,1.82Z"/><path class="cls-1" d="M66.63,28.18c-2.6.32-4.36-.94-4.71-3.78l-.68-5.53,2.13-.26L64,24.08c.19,1.58,1.08,2.3,2.37,2.14s2-1,1.8-2.58l-.67-5.54,2.12-.26.67,5.46C70.69,26.23,69.22,27.86,66.63,28.18Z"/><path class="cls-1" d="M80,20.51l-1,7.7-2.12-.28,1-7.7-2.94-.38.26-2,8,1-.26,2Z"/><path class="cls-1" d="M85.09,29.47l3.57-9.06,6.83,2.69-.7,1.77L89.91,23l-.72,1.84,4.27,1.68-.7,1.77-4.27-1.68-.75,1.91,4.92,1.93L92,32.23Z"/><path class="cls-1" d="M100.47,37.88l-.1-7.79-3.69,5L95,33.83l5.8-7.83,1.59,1.18.09,7.54,3.62-4.84,1.7,1.26L101.94,39Z"/><path class="cls-1" d="M72.09,144a72,72,0,1,1,67.83-48.1l-2.29-.8,2.29.8A72.12,72.12,0,0,1,72.09,144Zm0-139.15a66.45,66.45,0,1,0,.05,0Z"/><path class="cls-1" d="M54.75,114.81,54,116.75l4.35,1.63-.68,1.83-4.36-1.64L52,122.11l-2-.76,3.42-9.12,7,2.6-.68,1.83Z"/><path class="cls-1" d="M68.43,125.87l-1.75-3.32L65,122.37l-.33,3.1-2.13-.22,1-9.7L68,116c2.29.24,3.53,1.59,3.32,3.58h0a3,3,0,0,1-2.39,2.79l2,3.71Zm.71-6.38c.1-.92-.49-1.46-1.53-1.56l-2.12-.23-.29,2.79,2.16.22a1.43,1.43,0,0,0,1.78-1.2Z"/><path class="cls-1" d="M76.58,125.88l-1.43-9.63,7.27-1.07.28,1.89-5.16.76.29,1.95,4.54-.67.28,1.89-4.55.67.3,2,5.23-.77.28,1.88Z"/><path class="cls-1" d="M89.63,123.16l-3.74-9,6.78-2.83.73,1.76-4.81,2,.75,1.82,4.24-1.76.73,1.76-4.22,1.79.78,1.89,4.88-2,.73,1.76Z"/><path class="cls-1" d="M70.25,45.45c1,.49,1.42.89,2.16,1.27.65-2.3,2.72-2.36,3.08-3.82.21-.89-.81-2.73-1.23-3.54s-1.92-3.51-2.78-2.56c-1.18,1.33-3.09,3.51-3.54,5.39C67.31,44.85,68.53,44.58,70.25,45.45Z"/><path class="cls-1" d="M73.64,48c0,1.13,1.48,2,1.23,3.54C78.38,49.79,82,49,81,43.32,78.09,43.56,73.5,45.12,73.64,48Z"/><path class="cls-1" d="M74.72,53.66a5,5,0,0,0-1.39,2.27c.08,1.17,2.09,2.09,1.85,4,1.57-1.19,3.77-1.19,5.24-2.27s1.93-3.81,1.54-6.52c-.06-.36-.34-.18-.62-.14C79.29,51.26,76.09,52.31,74.72,53.66Z"/><path class="cls-1" d="M65.79,61.46c.67.6,2.35.7,3.54,1.13.34.12,1.58,1.09,2,1a7.56,7.56,0,0,0,2.21-2.42c1-4.27-5.4-6.43-9.14-6.79C64.45,56.36,64,59.84,65.79,61.46Z"/><path class="cls-1" d="M65.83,52.06c.56.61,2.77,1.26,3.77,1.69.28.13,1.86,1.29,2.22,1.2s1.07-2,1.16-2.44c.82-4.26-4.52-6.42-7.65-6.78C65.37,47.72,64.33,50.44,65.83,52.06Z"/><path class="cls-1" d="M81.65,59.62c-.79-.39-4.22,1-5.39,1.69s-3.42,2.55-3.39,3.41c0,.34,1.09,1.33,1.39,1.84.44.75.63,1.32,1.08,2.26,1.31-1.5,4.39-1.35,5.85-2.69C81.87,65.5,83.18,60.37,81.65,59.62Z"/><path class="cls-1" d="M71.95,73.22c0-1.65,1.24-2.08,1.38-3.4.42-3.91-4.82-5.93-8.93-6.24C63.5,70.28,67.16,71.87,71.95,73.22Z"/><path class="cls-1" d="M80.73,75.2c.8-.8,1.46-3.58,1.38-5.38-.06-1.31-.29-1.38-1.69-1.14a11,11,0,0,0-5.55,2.55,5.63,5.63,0,0,0-1.54,3.12c.16,1.31,1.82,1.43,1.54,3.4C76.3,76.46,79.15,76.77,80.73,75.2Z"/><path class="cls-1" d="M71.64,82.14c.51-.29,1.66-3,1.69-3.26.36-3.81-5.38-5.9-8.62-6.09-.18,0-.08.07-.16.14a1.34,1.34,0,0,0-.15.29c-.32,2.69.22,5.8,2.31,7.65C67.53,81.59,70.16,83,71.64,82.14Z"/><path class="cls-1" d="M75.8,86.53c4.1.5,7.49-5.15,6.16-9.06-.1-.28-.24,0-.31,0a.81.81,0,0,0-.31,0c-2,.42-4.67.9-6.31,2.55S72.63,86.15,75.8,86.53Z"/><path class="cls-1" d="M73.64,87.53c-1.31-.81-1.51-1.93-1.8-3.76-.71.42-2.37-.28-2.9,0,2.82,4.13,2.22,15.58,2.23,17.39v3.35a.66.66,0,0,0,.67.65h0a.68.68,0,0,0,.7-.63v-3.38c0-1.79,0-3.84.08-5.64h0c.45-4-.69-2.71,1-5.42a8.73,8.73,0,0,1,2.3-1.92A9.9,9.9,0,0,1,73.64,87.53Z"/><path class="cls-1" d="M57.72,60.16c-.73.37-1.07.67-1.63,1-.49-1.74-2-1.78-2.32-2.88-.16-.67.61-2.06.93-2.67s1.45-2.64,2.09-1.93c.89,1,2.33,2.64,2.67,4.06C59.93,59.71,59,59.5,57.72,60.16Z"/><path class="cls-1" d="M55.16,62.08c0,.85-1.12,1.48-.93,2.67-2.64-1.32-5.35-1.89-4.64-6.19C51.78,58.74,55.27,59.91,55.16,62.08Z"/><path class="cls-1" d="M54.35,66.35c.35.35,1.07,1.29,1,1.71,0,.88-1.57,1.57-1.39,3-1.18-.9-2.84-.89-4-1.71s-1.45-2.88-1.16-4.91c0-.28.26-.14.47-.11A10.54,10.54,0,0,1,54.35,66.35Z"/><path class="cls-1" d="M61.09,72.22c-.5.46-1.77.53-2.67.86-.25.09-1.19.82-1.51.74A5.84,5.84,0,0,1,55.23,72c-.74-3.22,4.08-4.84,6.9-5.12C62.09,68.38,62.43,71,61.09,72.22Z"/><path class="cls-1" d="M61.09,65.14a12.73,12.73,0,0,1-2.84,1.28c-.22.09-1.4,1-1.67.9a4.85,4.85,0,0,1-.88-1.84c-.61-3.21,3.39-4.84,5.73-5.11C61.39,61.87,62.18,63.92,61.09,65.14Z"/><path class="cls-1" d="M49.09,70.84c.59-.29,3.18.76,4.06,1.28S55.73,74,55.7,74.68c0,.26-.82,1-1,1.39-.33.56-.48,1-.82,1.71-1-1.14-3.31-1-4.41-2C49,75.27,48,71.4,49.09,70.84Z"/><path class="cls-1" d="M56.44,81.09c0-1.24-.94-1.57-1-2.57-.31-2.94,3.64-4.46,6.74-4.7C62.81,78.87,60.09,80.07,56.44,81.09Z"/><path class="cls-1" d="M49.82,82.58a7.16,7.16,0,0,1-1-4.06c0-1,.22-1,1.27-.85a8.27,8.27,0,0,1,4.18,1.92,4.25,4.25,0,0,1,1.17,2.35c-.12,1-1.37,1.08-1.17,2.56C53.16,83.53,51,83.76,49.82,82.58Z"/><path class="cls-1" d="M56.67,87.81a8,8,0,0,1-1.28-2.45c-.26-2.87,4.06-4.45,6.5-4.6.14,0,.06.06.12.11l.12.22c.24,2-.17,4.37-1.74,5.76C59.77,87.39,57.78,88.45,56.67,87.81Z"/><path class="cls-1" d="M53.54,91.12c-3.1.37-5.65-3.88-4.65-6.83.08-.21.19,0,.24,0a.59.59,0,0,1,.23,0c1.48.32,3.52.68,4.76,1.92S55.92,90.84,53.54,91.12Z"/><path class="cls-1" d="M55.16,91.87c1-.61,1.14-1.45,1.36-2.83.53.31,1.79-.21,2.18,0C56.58,92.16,57,100.78,57,102.15v2.52a.5.5,0,0,1-.51.49h0a.51.51,0,0,1-.53-.47v-2.55c0-1.35,0-2.9-.06-4.25h0c-.34-3,.51-2-.76-4.09a6.39,6.39,0,0,0-1.73-1.44A7.15,7.15,0,0,0,55.16,91.87Z"/><path class="cls-1" d="M88.8,60.16c.73.37,1.07.67,1.63,1,.49-1.74,2-1.78,2.32-2.88.16-.67-.61-2.06-.93-2.67S90.37,53,89.73,53.68c-.89,1-2.33,2.64-2.67,4.06C86.59,59.71,87.51,59.5,88.8,60.16Z"/><path class="cls-1" d="M91.36,62.08c0,.85,1.11,1.48.93,2.67,2.64-1.32,5.35-1.89,4.64-6.19C94.74,58.74,91.25,59.91,91.36,62.08Z"/><path class="cls-1" d="M92.17,66.35c-.35.35-1.07,1.29-1,1.71,0,.88,1.57,1.57,1.39,3,1.18-.9,2.84-.89,3.95-1.71s1.45-2.88,1.16-4.91c0-.28-.26-.14-.47-.11A10.54,10.54,0,0,0,92.17,66.35Z"/><path class="cls-1" d="M85.44,72.22c.5.46,1.77.53,2.67.86.25.09,1.19.82,1.51.74A5.7,5.7,0,0,0,91.28,72c.75-3.22-4.07-4.84-6.89-5.12C84.43,68.38,84.09,71,85.44,72.22Z"/><path class="cls-1" d="M85.47,65.14a12.73,12.73,0,0,0,2.84,1.28c.22.09,1.4,1,1.67.9a4.85,4.85,0,0,0,.88-1.84c.62-3.21-3.41-4.84-5.77-5.11C85.09,61.87,84.34,63.92,85.47,65.14Z"/><path class="cls-1" d="M97.39,70.84c-.59-.29-3.18.76-4.06,1.28S90.75,74,90.78,74.68c0,.26.82,1,1,1.39a18.54,18.54,0,0,1,.81,1.71c1-1.14,3.31-1,4.42-2C97.56,75.27,98.55,71.4,97.39,70.84Z"/><path class="cls-1" d="M90.09,81.09c0-1.24.94-1.57,1.05-2.57.31-2.94-3.64-4.46-6.74-4.7C83.71,78.87,86.47,80.07,90.09,81.09Z"/><path class="cls-1" d="M96.7,82.58a7.16,7.16,0,0,0,1-4.06c0-1-.22-1-1.28-.85a8.28,8.28,0,0,0-4.17,1.92,4.25,4.25,0,0,0-1.17,2.35c.12,1,1.37,1.08,1.17,2.56C93.36,83.53,95.51,83.76,96.7,82.58Z"/><path class="cls-1" d="M89.85,87.81a8,8,0,0,0,1.28-2.45c.26-2.87-4.06-4.45-6.5-4.6-.14,0-.06.06-.12.11l-.12.22c-.24,2,.17,4.37,1.74,5.76C86.75,87.39,88.74,88.45,89.85,87.81Z"/><path class="cls-1" d="M93,91.12c3.1.37,5.65-3.88,4.65-6.83-.08-.21-.19,0-.24,0a.59.59,0,0,0-.23,0c-1.48.32-3.52.68-4.76,1.92S90.59,90.84,93,91.12Z"/><path class="cls-1" d="M91.36,91.87c-1-.61-1.14-1.45-1.36-2.83-.53.31-1.79-.21-2.18,0,2.12,3.12,1.67,11.74,1.68,13.11v2.52a.5.5,0,0,0,.51.49h0a.51.51,0,0,0,.53-.47v-2.55c0-1.35,0-2.9.05-4.25h0c.34-3-.51-2,.76-4.09a6.39,6.39,0,0,1,1.73-1.44A7.15,7.15,0,0,1,91.36,91.87Z"/></g></g></svg>