<svg xmlns="http://www.w3.org/2000/svg" viewBox="0 0 144 144"><defs><style>.cls-1{fill:#f7d74e;}</style></defs><title>grain</title><g id="Layer_2" data-name="Layer 2"><g id="Layer_1-2" data-name="Layer 1"><path class="cls-1" d="M54.59,114.84l-.69,1.94,4.35,1.63-.68,1.83-4.35-1.63-1.32,3.53-2-.75,3.42-9.13,6.94,2.61-.68,1.82Z"/><path class="cls-1" d="M68.27,125.9l-1.75-3.32-1.68-.18-.32,3.1-2.13-.22,1-9.69,4.44.46c2.28.24,3.52,1.59,3.31,3.59h0a3,3,0,0,1-2.39,2.79l2,3.71Zm.71-6.38c.1-.91-.49-1.45-1.53-1.56l-2.11-.22-.3,2.78,2.16.23a1.45,1.45,0,0,0,1.78-1.2Z"/><path class="cls-1" d="M76.42,125.92,75,116.28l7.26-1.07.28,1.89-5.16.76.29,1.95,4.54-.67.28,1.89L78,121.7l.3,2,5.22-.77.28,1.88Z"/><path class="cls-1" d="M89.47,123.2l-3.74-9,6.78-2.82.73,1.76-4.81,2,.76,1.82,4.23-1.76.74,1.76-4.26,1.77.78,1.89,4.88-2,.74,1.76Z"/><path class="cls-1" d="M52,32.67a4.88,4.88,0,0,1-6.68-1.73q-.1-.16-.18-.34h0a5,5,0,0,1,2.06-6.76l.13-.07a5.28,5.28,0,0,1,4-.59l-.44,2.07a3.59,3.59,0,0,0-2.72.3,2.92,2.92,0,0,0-1.08,4h0A2.92,2.92,0,0,0,50.93,31l.13-.06a3.43,3.43,0,0,0,1.51-1.45l-.64-1.24-1.91,1-.86-1.64,3.75-2,2,3.75A6.35,6.35,0,0,1,52,32.67Z"/><path class="cls-1" d="M64.73,28.26,62,25.65,60.4,26,61,29,59,29.45,56.9,20l4.39-1c2.24-.48,3.84.42,4.25,2.38h0a3,3,0,0,1-1.42,3.38l3,2.91ZM63.44,22c-.19-.9-.91-1.23-1.93-1l-2.08.44L60,24.17l2.12-.45c1-.21,1.49-.88,1.32-1.68Z"/><path class="cls-1" d="M77.57,28l-.76-2.23-4.11-.25-1,2.12-2.18-.13L74.25,18l2,.11,3.58,10Zm-2.51-7.4-1.48,3.08,2.58.15Z"/><path class="cls-1" d="M83,29.11l2.67-9.37,2.06.58L85.11,29.7Z"/><path class="cls-1" d="M95.11,34.17,93.9,26.49,91,31.94l-1.86-1,4.61-8.57,1.74.94,1.17,7.44,2.85-5.28,1.86,1L96.71,35Z"/><path class="cls-1" d="M71.9,144a72,72,0,1,1,68-48.06h0A72.09,72.09,0,0,1,71.9,144ZM72,4.89a67.13,67.13,0,1,0,63.25,89.43h0A67.14,67.14,0,0,0,72,4.89Z"/><g id="wheat"><path class="cls-1" d="M59.07,98.76h0c-.24-.24-.47-.47-.72-.74-6.71-7.35-2.66-13.7-2.49-14a2.29,2.29,0,0,1,3-.78c.37.18,9.82,5,12.5,8.39,4.58,5.85,2.78,12.88,2.7,13.16a2.21,2.21,0,0,1-1.22,1.49,2.18,2.18,0,0,1-1.9,0A41.13,41.13,0,0,1,59.07,98.76Zm0-10.15c-.14,1.5.28,3.74,2.63,6.32a32.36,32.36,0,0,0,8.06,5.76,10.34,10.34,0,0,0-2.11-6.19c-1.37-1.78-5.59-4.27-8.53-5.89Z"/><path class="cls-1" d="M70.9,105.93a2.29,2.29,0,0,1-.61-1c-.09-.29-2-7.29,2.46-13.23,2.67-3.52,11.41-8.11,12.4-8.61a2.3,2.3,0,0,1,3,.74c.17.25,4.35,6.57-2.27,14-4.28,4.85-12,8.39-12.39,8.53a2.33,2.33,0,0,1-1.9,0A2.51,2.51,0,0,1,70.9,105.93Zm14-17.5c-3.27,1.86-7.27,4.44-8.5,6.06a10.38,10.38,0,0,0-2,6.25,32.63,32.63,0,0,0,8-5.93C84.69,92.17,85,89.92,84.9,88.43Z"/><path class="cls-1" d="M58.9,87.4h0l-.72-.74c-6.72-7.35-2.67-13.7-2.49-14a2.33,2.33,0,0,1,3-.8c.36.18,9.83,5,12.51,8.4C75.78,86.1,74,93.15,73.88,93.45a2.25,2.25,0,0,1-3.14,1.47A42.13,42.13,0,0,1,58.9,87.4Zm0-10.15c-.14,1.52.28,3.73,2.64,6.3a32.9,32.9,0,0,0,8.07,5.8,10.52,10.52,0,0,0-2.12-6.21c-1.32-1.8-5.59-4.28-8.53-5.89Z"/><path class="cls-1" d="M70.77,94.51a2.36,2.36,0,0,1-.61-1c-.09-.32-2-7.31,2.49-13.24,2.67-3.53,11.4-8.1,12.39-8.62a2.25,2.25,0,0,1,2.94.74c.18.26,4.36,6.55-2.27,14-4.28,4.83-12,8.4-12.4,8.55a2.27,2.27,0,0,1-1.89,0A2.78,2.78,0,0,1,70.77,94.51Zm14-17.5c-3.28,1.86-7.26,4.43-8.48,6a10.49,10.49,0,0,0-2,6.25,32.88,32.88,0,0,0,8-5.94c2.3-2.57,2.68-4.8,2.52-6.32Z"/><path class="cls-1" d="M58.84,76h0c-.25-.24-.49-.48-.73-.73-6.73-7.36-2.66-13.73-2.47-14a2.28,2.28,0,0,1,2.92-.82c.38.19,9.83,5,12.53,8.42,4.59,5.84,2.77,12.87,2.69,13.16a2.24,2.24,0,0,1-1.22,1.48,2.28,2.28,0,0,1-1.91.06C70.34,83.43,63.28,80.34,58.84,76Zm0-10.17c-.13,1.52.28,3.74,2.64,6.31a31.32,31.32,0,0,0,8.06,5.78,10.48,10.48,0,0,0-2.1-6.19c-1.37-1.83-5.61-4.31-8.54-5.93Z"/><path class="cls-1" d="M70.1,73.41c-1.48-1.45-6.3-6.67-6.36-12.86a16.56,16.56,0,0,1,6.63-13.4,2.32,2.32,0,0,1,2.55,0,15.18,15.18,0,0,1,1.86,1.58,16.53,16.53,0,0,1,5,11.71c.06,7-6.06,12.92-6.32,13.16a2.31,2.31,0,0,1-3.17,0ZM71.68,52.1a12.06,12.06,0,0,0-3.33,8.41c0,3.1,2,6.13,3.47,7.94,1.46-1.85,3.37-4.91,3.34-8A11.68,11.68,0,0,0,71.68,52.1Z"/><path class="cls-1" d="M70.68,83.08a2.18,2.18,0,0,1-.59-1c-.1-.3-2-7.3,2.46-13.21,2.67-3.53,11.39-8.12,12.38-8.64a2.31,2.31,0,0,1,3,.76c.18.26,4.34,6.54-2.27,14-4.27,4.82-12,8.39-12.37,8.54a2.32,2.32,0,0,1-1.93,0A1.81,1.81,0,0,1,70.68,83.08Zm14-17.5c-3.28,1.86-7.26,4.43-8.49,6a10.31,10.31,0,0,0-2,6.24,31.92,31.92,0,0,0,8-5.93c2.33-2.58,2.71-4.81,2.54-6.31Z"/><path class="cls-1" d="M70.79,48.32a1.18,1.18,0,0,1-.34-.84V35.22a1.16,1.16,0,0,1,2.31,0V47.48a1.16,1.16,0,0,1-2,.84Z"/><path class="cls-1" d="M58.78,62.17a1.2,1.2,0,0,1-.33-.81l-.11-13.81a1.15,1.15,0,1,1,2.3,0h0l.11,13.81a1.16,1.16,0,0,1-1.14,1.16A1.29,1.29,0,0,1,58.78,62.17Z"/><path class="cls-1" d="M83.29,62a1.13,1.13,0,0,1-.36-.82l-.1-13.81a1.1,1.1,0,0,1,1-1.15H84a1.15,1.15,0,0,1,1.16,1.13l.1,13.8a1.11,1.11,0,0,1-1.06,1.16h-.08A1.06,1.06,0,0,1,83.29,62Z"/></g></g></g></svg>