<svg xmlns="http://www.w3.org/2000/svg" viewBox="0 0 144 144"><defs><style>.cls-1{fill:#f7d74e;}</style></defs><title>Asset 1</title><g id="Layer_2" data-name="Layer 2"><g id="Layer_1-2" data-name="Layer 1"><path class="cls-1" d="M71.9,144a72,72,0,1,1,68-48.06h0A72.1,72.1,0,0,1,71.9,144ZM72,4.89A67.14,67.14,0,1,0,94.27,8.71,67.14,67.14,0,0,0,72,4.89Z"/><path class="cls-1" d="M29.16,60.32l-7,3.34,6.06,1.27L27.75,67l-9.53-2,.41-1.93,6.81-3.23L19.57,58.6,20,56.53l9.53,2Z"/><path class="cls-1" d="M33.21,50.9a5,5,0,0,1-6.73,2.18L26.34,53h0a5,5,0,0,1-2.06-6.76l.13-.24a5,5,0,0,1,6.72-2.21l.15.08h0a5,5,0,0,1,2.09,6.76Zm-3-5A3,3,0,0,0,26.11,47h0a2.92,2.92,0,0,0,1.18,4l.08,0h0a3,3,0,0,0,4.09-1.11h0a2.92,2.92,0,0,0-1.18-4l-.09,0Z"/><path class="cls-1" d="M47.79,34.76l-2-1.22L42.47,36l.6,2.28L41.32,39.6,38.78,29.25l1.58-1.19,9.23,5.35Zm-6.7-4L42,34,44,32.44Z"/><path class="cls-1" d="M57.8,30l-3.08-2.14-1.57.61,1.13,2.9-2,.78L48.75,23l4.15-1.58c2.14-.84,3.87-.21,4.6,1.66h0a3,3,0,0,1-.85,3.57L60.13,29Zm-2.3-6c-.33-.86-1.1-1.06-2.07-.68l-2,.77,1,2.61,2-.79c1-.38,1.33-1.12,1-1.88Z"/><path class="cls-1" d="M66.75,20.19l.93,7.7-2.13.26-.92-7.71-2.94.36-.24-2,8-1,.24,2Z"/><path class="cls-1" d="M74.22,27.75,74.9,18l2.14.16-.72,9.72Z"/><path class="cls-1" d="M84.76,21.48l-.55,2,4.48,1.25-.53,1.88-4.47-1.25-1,3.63-2.06-.57L83.22,19l7.15,2-.47,1.9Z"/><path class="cls-1" d="M91,32l4.42-8.68,1.91,1L92.9,33Z"/><path class="cls-1" d="M100.09,38a4.91,4.91,0,0,1-.83-6.89l.09-.11h0a5.25,5.25,0,0,1,9.17,2.85l-2,.37a3.61,3.61,0,0,0-1.25-2.42,2.88,2.88,0,0,0-4,.51l-.06.08h0a2.9,2.9,0,0,0,.2,4.1l.07.06a3.52,3.52,0,0,0,2.71.72l.2,1.93A5,5,0,0,1,100.09,38Z"/><path class="cls-1" d="M105.58,43.17,113.14,37l1.35,1.66-7.59,6.17Z"/><path class="cls-1" d="M112.79,54.62l1.54-1.78-1.86-3.68-2.35.19-1-1.95,10.64-.7.89,1.76-6.87,8.16Zm5.12-5.9-3.4.27,1.17,2.31Z"/><path class="cls-1" d="M114.58,59.61l9.52-2,.45,2.09-7.65,1.6,1,4.74-1.9.41Z"/><path class="cls-1" d="M40.27,115.91a4.92,4.92,0,0,1-1.1-6.87l.1-.13h0a4.94,4.94,0,0,1,6.89-1.13l.18.13a5,5,0,0,1,2.2,3.49l-2,.46a3.62,3.62,0,0,0-1.35-2.37,2.89,2.89,0,0,0-4,.69l-.05.07h0a2.91,2.91,0,0,0,.38,4.1l.07.05a3.55,3.55,0,0,0,2.74.6l.28,1.92A5,5,0,0,1,40.27,115.91Z"/><path class="cls-1" d="M52.9,122.68a5,5,0,0,1-3.13-6.34l.06-.17h0a5.18,5.18,0,0,1,9.71,3.62h0a5,5,0,0,1-6.41,3ZM57.42,119a3,3,0,0,0-1.67-3.9h0A2.92,2.92,0,0,0,52,116.75l-.06.16h0a3,3,0,0,0,1.67,3.9h0a2.92,2.92,0,0,0,3.78-1.67l.05-.14Z"/><path class="cls-1" d="M63.7,125.43l.92-9.69,2.13.2L66,123.7l4.84.46-.19,1.93Z"/><path class="cls-1" d="M80.47,125.47a5,5,0,0,1-5.85-4l0-.17h0a5.18,5.18,0,0,1,10.22-1.64h0a5,5,0,0,1-4.12,5.75ZM82.6,120a3,3,0,0,0-3.38-2.56h0a2.91,2.91,0,0,0-2.44,3.31l0,.14h0a3,3,0,0,0,3.38,2.56h0a2.9,2.9,0,0,0,2.44-3.3l0-.15Z"/><path class="cls-1" d="M96.69,120l-3.21-1.94-1.53.72,1.33,2.82-1.94.91-4.14-8.82,4-1.89c2.08-1,3.84-.47,4.69,1.35h0a3,3,0,0,1-.6,3.62l3.63,2.14ZM94,114.17c-.39-.83-1.17-1-2.11-.54l-1.93.9,1.19,2.53,2-.92c.94-.44,1.25-1.2.9-1.94Z"/><path class="cls-1" d="M106.43,113.71a6.18,6.18,0,0,1-4.19,1.42v-2a4.52,4.52,0,0,0,3-.93c.67-.56.86-1.16.5-1.6h0c-.34-.42-.77-.42-2.3.29-1.83.86-3.15,1.24-4.38-.25h0c-1.12-1.37-.76-3.17.77-4.44a5.63,5.63,0,0,1,3.59-1.33l.16,2a4.63,4.63,0,0,0-2.57.86c-.63.53-.73,1.09-.43,1.45h0c.41.49.86.39,2.44-.35,1.85-.85,3.16-1,4.24.3h0C108.5,110.61,108.05,112.38,106.43,113.71Z"/><g id="dropper"><path class="cls-1" d="M66.08,84a16.59,16.59,0,0,1-5.64-1,6.22,6.22,0,0,1-8-2.37A6.09,6.09,0,0,1,52.09,74a7.36,7.36,0,0,1,1.23-1.62,16,16,0,0,1,6.35-12.15L75.9,49.44A2.16,2.16,0,1,1,78.32,53L62.1,63.82a11.75,11.75,0,0,0-4.43,9.6,2.17,2.17,0,0,1-1,1.79,2.17,2.17,0,1,0,2.38,3.61,2.1,2.1,0,0,1,2-.2,11.79,11.79,0,0,0,10.58-.41L87.9,67.43a2.13,2.13,0,0,1,3,.54l0,.06a2.17,2.17,0,0,1-.61,3L74.11,81.83A15.69,15.69,0,0,1,66.08,84Z"/><path class="cls-1" d="M95.7,51.83a12.93,12.93,0,0,0-17.92-3.66l-.08.06-5.42,3.59-.62-.9a3.24,3.24,0,1,0-5.54,3.36l.16.24L81.9,77.93a3.25,3.25,0,1,0,5.53-3.41l-.13-.2-.58-.89,5.37-3.6A13,13,0,0,0,95.7,51.83Z"/><path class="cls-1" d="M52,84.31a.83.83,0,0,0-1.15,0c-.49.55-4.84,5.47-4.84,8.23A5.41,5.41,0,0,0,56.77,93q0-.23,0-.47C56.77,89.78,52.46,84.86,52,84.31Z"/></g></g></g></svg>