<svg xmlns="http://www.w3.org/2000/svg" viewBox="0 0 144 144"><defs><style>.cls-1{fill:#f7d74e;}</style></defs><title>non-gmo</title><g id="Layer_2" data-name="Layer 2"><g id="Layer_1-2" data-name="Layer 1"><path class="cls-1" d="M62.17,28.74,55.92,24.1,57.64,30l-2,.58-2.7-9.35,1.9-.54,6,4.49-1.66-5.76,2-.58,2.7,9.35Z"/><path class="cls-1" d="M72.3,27.87a5,5,0,0,1-5.05-4.95q0-.09,0-.17h0a5.17,5.17,0,0,1,10.34.2h0a5,5,0,0,1-5.07,4.93Zm3-5a2.94,2.94,0,0,0-2.75-3.11h-.13a2.9,2.9,0,0,0-3,2.8q0,.1,0,.2h0a2.94,2.94,0,0,0,2.75,3.11h.13a2.9,2.9,0,0,0,3-2.8Q75.3,23,75.3,22.87Z"/><path class="cls-1" d="M87.38,30.34,84.67,23l-1.81,6-2-.62L83.68,19l1.89.57,2.62,7.07,1.75-5.74,2,.62L89.1,30.84Z"/><path class="cls-1" d="M72.09,144a72,72,0,1,1,67.82-48.08l-2.29-.81,2.29.81A72.07,72.07,0,0,1,72.09,144ZM72,4.84A67.3,67.3,0,1,0,94.39,8.69,67.3,67.3,0,0,0,72,4.84Z"/><g id="ADN"><path class="cls-1" d="M117.68,50.41a3.85,3.85,0,0,1-3.8,3.9H106.1c-.69,0-17.55.56-31.46,21.66-16.29,24.74-37,25.12-37.88,25.12l-7.73.05a3.88,3.88,0,0,1,0-7.76h7.73c.7,0,17.58-.52,31.48-21.63C84.48,47,105.2,46.61,106,46.61h7.72a3.86,3.86,0,0,1,3.92,3.8Z"/><path class="cls-1" d="M30.9,89.56l-.17-30.94H28.8a9.9,9.9,0,0,1-1.94-.24L27,89.84A8.57,8.57,0,0,1,29,89.57Z"/><path class="cls-1" d="M36.7,89.53a11.42,11.42,0,0,0,1.94-.24l-.17-30.48a18.17,18.17,0,0,0-2-.22H34.62l.17,30.94Z"/><path class="cls-1" d="M46.35,86.74l-.14-25.45a34.06,34.06,0,0,0-3.87-1.56l.16,28.58A31.34,31.34,0,0,0,46.35,86.74Z"/><path class="cls-1" d="M54,81.8,54,66.12a36.49,36.49,0,0,0-3.87-2.74l.12,21.2A28.12,28.12,0,0,0,54,81.8Z"/><path class="cls-1" d="M61.74,74v-.13a52,52,0,0,0-3.87-4.28v8.75A55.56,55.56,0,0,0,61.74,74Z"/><path class="cls-1" d="M81.11,73.75v.14A53.27,53.27,0,0,0,85,78.18V69.43A52.73,52.73,0,0,0,81.11,73.75Z"/><path class="cls-1" d="M88.76,65.93l.09,15.68a33.06,33.06,0,0,0,3.9,2.74l-.11-21.2A41.4,41.4,0,0,0,88.76,65.93Z"/><path class="cls-1" d="M96.47,61l.14,25.45A32.47,32.47,0,0,0,100.49,88l-.16-28.58A30.44,30.44,0,0,0,96.47,61Z"/><path class="cls-1" d="M106.12,58.2a17.16,17.16,0,0,0-1.9.25l.17,30.48a11.56,11.56,0,0,0,2,.22h1.84l-.19-31Z"/><path class="cls-1" d="M112,58.17l.17,30.94H114a9.28,9.28,0,0,1,2,.25l-.17-31.45a9.27,9.27,0,0,1-1.95.26Z"/><path class="cls-1" d="M65,69.63a64.59,64.59,0,0,1,3.89-5.33C53.6,47.15,37.24,47,36.47,47H28.74a3.88,3.88,0,0,0,0,7.75h7.73c.61,0,14.55.36,27.66,16C64.43,70.36,64.71,70,65,69.63Z"/><path class="cls-1" d="M77.86,78.12A58.72,58.72,0,0,1,74,83.46c15.28,17.12,31.62,17.3,32.38,17.29h7.73a3.88,3.88,0,0,0,.39-7.75h-8.1c-.62,0-14.54-.34-27.66-16C78.39,77.38,78.13,77.73,77.86,78.12Z"/></g><path class="cls-1" d="M57.43,124.11a4.89,4.89,0,0,1-3.63-5.89q0-.18.1-.35h0a5,5,0,0,1,6.16-3.47l.14,0a5.37,5.37,0,0,1,3.31,2.35L61.77,118a3.59,3.59,0,0,0-2.17-1.66,2.93,2.93,0,0,0-3.56,2.1h0a2.91,2.91,0,0,0,1.78,3.71l.22.07a3.35,3.35,0,0,0,2.1,0l.39-1.34-2.07-.59.51-1.78,4.07,1.2-1.17,4.07A6.4,6.4,0,0,1,57.43,124.11Z"/><path class="cls-1" d="M75.35,125.9l-.07-6.35-2.7,4.19h-.05l-2.76-4.09.07,6.32h-2.1l-.11-9.74h2.31l2.61,4.09,2.51-4.15h2.31l.11,9.73Z"/><path class="cls-1" d="M88.56,123.56a5,5,0,0,1-6.38-3l-.06-.17h0A5.18,5.18,0,0,1,92,117.18h0a5,5,0,0,1-3.19,6.31Zm1.28-5.7a3,3,0,0,0-3.74-2,2.91,2.91,0,0,0-1.9,3.65l0,.13h0a3,3,0,0,0,3.74,2A2.91,2.91,0,0,0,89.89,118l0-.13Z"/></g></g></svg>