<svg xmlns="http://www.w3.org/2000/svg" viewBox="0 0 144.22 144.22"><defs><style>.cls-1{fill:#f7d74e;}</style></defs><title>plant</title><g id="Layer_2" data-name="Layer 2"><g id="Layer_1-2" data-name="Layer 1"><path class="cls-1" d="M49.54,30.85l-1.42.8,1.43,2.57-1.87,1-4.76-8.49,3.47-2c2-1.13,3.93-.62,4.9,1.12h0C52.41,27.91,51.45,29.78,49.54,30.85ZM49.42,27a1.48,1.48,0,0,0-2.24-.43l-1.44.81L47.19,30l1.48-.83a1.5,1.5,0,0,0,.84-1.95L49.43,27Z"/><path class="cls-1" d="M57.45,30.37,54.86,21l2.06-.57L59,27.92l4.68-1.3.52,1.88Z"/><path class="cls-1" d="M74.58,27.9l-.92-2.17-4.12.06L68.68,28H66.5l4-9.86h2l4.31,9.74Zm-3-7.19-1.32,3.18h2.59Z"/><path class="cls-1" d="M86.34,30.14l-2.93-7.21-1.62,6-2-.55L82.34,19l1.9.52,2.84,7,1.57-5.79,2,.56L88.1,30.66Z"/><path class="cls-1" d="M99.36,27.75l-3.91,6.71L93.6,33.38l3.91-6.71L95,25.22l1-1.71,7,4.06-1,1.71Z"/><path class="cls-1" d="M47.05,119.93,43,117.7l4.68-8.54,4,2.17c1.75,1,2.35,2.41,1.61,3.75h0a2.25,2.25,0,0,1-2.13,1.22,2.39,2.39,0,0,1,.45,3h0C50.68,120.9,49,121,47.05,119.93Zm2.76-1.87c.31-.58.08-1.17-.89-1.69l-2.17-1.15-1,1.88L48,118.32c.83.45,1.49.43,1.83-.2Zm1.39-3.68c.31-.56,0-1.12-.75-1.56l-1.85-1-1,1.8,1.73,1c.83.46,1.5.48,1.85-.16Z"/><path class="cls-1" d="M62.83,125.42l-.38-2.33-4-.93-1.36,1.93-2.13-.5,6.3-8.61,1.93.45L65,125.93Zm-1.24-7.71-2,2.78,2.52.59Z"/><path class="cls-1" d="M73.87,126.3a6.28,6.28,0,0,1-4.17-1.46l1.23-1.55a4.49,4.49,0,0,0,2.94,1.11c.87,0,1.39-.38,1.38-1h0c0-.54-.36-.81-2-1.19-2-.45-3.26-1-3.3-2.89h0a3,3,0,0,1,3.33-3,5.61,5.61,0,0,1,3.65,1.15l-1.08,1.64a4.52,4.52,0,0,0-2.55-.9c-.82,0-1.24.41-1.23.88h0c0,.64.44.84,2.13,1.23,2,.46,3.12,1.14,3.16,2.84h0C77.42,125.12,76,126.22,73.87,126.3Z"/><path class="cls-1" d="M83.26,125.22l-2.58-9.39,7.08-1.94.51,1.83-5,1.38.52,1.91,4.43-1.22.5,1.84-4.46,1.19.53,2,5.1-1.4.51,1.84Z"/><path class="cls-1" d="M99.26,119,96,120.93l-4.94-8.4,3.28-1.93a4.84,4.84,0,0,1,6.73,1.27l.18.29h0a4.88,4.88,0,0,1-1.7,6.69Zm.07-5.68a2.8,2.8,0,0,0-3.8-1.12l-.2.12-1.43.84,3,5.06,1.43-.84a2.77,2.77,0,0,0,1.06-4Z"/><path class="cls-1" d="M110.26,35.73c-.16.34-1,9.58-17.92,20.19C68.8,70.66,70.14,88.65,75.16,97.85c-2.38,1.3-9.57,4.9-9.8,5A53.66,53.66,0,0,0,64.44,93C62.1,82,59.18,74,41.25,67.56,59.39,72,65.77,79.4,67.42,92.56c3.77-11.49,4.42-23-16.09-30.76-17.38-6.58-18-12.58-18.2-13-.15.38-6.77,17.64.28,32.71,3.77,8,15.85,17.5,28.64,15.33.41,3.21-.06,6-.06,8.52,0,3.83,2.93,1.14,5.34-.16,4.14-2.22,10.11-5.17,13.94-7.41,9.27-5.44,22.59-17.64,26-35.26C106.36,81,93.45,97.11,81,101.71c25.07-1.16,35.5-13.29,37.66-27.31C121.65,54.8,110.38,35.93,110.26,35.73Z"/><path class="cls-1" d="M72.31,144.22a72.11,72.11,0,1,1,31-7.1A72.11,72.11,0,0,1,72.31,144.22ZM72.26,5.08a67.13,67.13,0,1,0,63.3,89.44h0A67.18,67.18,0,0,0,72.26,5.08Z"/></g></g></svg>