<svg xmlns="http://www.w3.org/2000/svg" viewBox="0 0 144 144"><defs><style>.cls-1{fill:#f7d74e;}</style></defs><title>fafflower</title><g id="Layer_2" data-name="Layer 2"><g id="Layer_1-2" data-name="Layer 1"><path class="cls-1" d="M54.64,114.84l-.73,1.94,4.35,1.63-.68,1.83-4.36-1.63-1.32,3.53-2-.75,3.42-9.13,7,2.61-.69,1.82Z"/><path class="cls-1" d="M68.32,125.9l-1.75-3.32-1.68-.18-.33,3.1-2.13-.22,1-9.69,4.43.46c2.29.24,3.53,1.59,3.32,3.58h0a3,3,0,0,1-2.39,2.79l2,3.71Zm.71-6.38c.09-.91-.49-1.45-1.53-1.56l-2.12-.23-.29,2.79,2.16.23a1.45,1.45,0,0,0,1.78-1.2Z"/><path class="cls-1" d="M76.47,125.92,75,116.28l7.27-1.07.28,1.89-5.16.76.29,1.95,4.54-.67.28,1.89L78,121.7l.3,2,5.23-.77.28,1.89Z"/><path class="cls-1" d="M89.52,123.2l-3.74-9,6.78-2.82.73,1.76-4.81,2,.75,1.82,4.24-1.76L94.2,117,90,118.73l.78,1.89,4.88-2,.73,1.76Z"/><path class="cls-1" d="M28,68.65a6.14,6.14,0,0,1-1.85,4l-1.42-1.37a4.41,4.41,0,0,0,1.38-2.81c.06-.88-.24-1.43-.81-1.47h0c-.54,0-.85.27-1.38,1.87-.63,1.92-1.26,3.15-3.19,3h0C19,71.74,17.88,70.24,18,68.26a5.63,5.63,0,0,1,1.49-3.52L21,66a4.58,4.58,0,0,0-1.14,2.46c0,.82.29,1.28.76,1.31h0c.64,0,.88-.36,1.43-2,.65-1.93,1.44-3,3.13-2.87h0C27.17,65,28.15,66.55,28,68.65Z"/><path class="cls-1" d="M31,55l-2.36.15L27.3,59l1.79,1.54-.7,2.07-8-7.1L21,53.69l10.63-.81Zm-7.8.48,2.58,2.24.83-2.45Z"/><path class="cls-1" d="M28,44.16l1.72,1.16,2.58-3.87,1.63,1.08L31.32,46.4l3.13,2.09-1.19,1.79-8.1-5.41,4.11-6.18,1.63,1.09Z"/><path class="cls-1" d="M36,34.42,37.34,36l3.43-3.13,1.31,1.43-3.43,3.14,2.55,2.78-1.58,1.45L33,34.48l5.47-5,1.32,1.43Z"/><path class="cls-1" d="M47.9,34.72l-4.71-8.53,1.88-1L48.83,32l4.25-2.35.94,1.7Z"/><path class="cls-1" d="M61.06,29.26a5,5,0,0,1-6.19-3.43l0-.16h0a5.18,5.18,0,0,1,10-2.58h0a5,5,0,0,1-3.55,6.12Zm1.62-5.61a3,3,0,0,0-3.6-2.24h0a2.91,2.91,0,0,0-2.13,3.52l0,.14h0a3,3,0,0,0,3.6,2.24h0a2.92,2.92,0,0,0,2.12-3.54Z"/><path class="cls-1" d="M79.35,28.2l-1.86-.13-1.73-6.52-2.66,6.2-1.86-.14-2.6-10,2.29.17,1.53,6.73L75.12,18l1.84.13,1.7,6.77,2.49-6.44,2.23.17Z"/><path class="cls-1" d="M85.37,29.63l3.65-9,6.81,2.76-.72,1.76-4.83-2L89.54,25l4.25,1.73-.71,1.76-4.25-1.72-.77,1.89,4.9,2-.72,1.76Z"/><path class="cls-1" d="M100,37.67l.18-3.75-1.35-1L97,35.42l-1.72-1.28,5.81-7.83,3.6,2.69c1.84,1.37,2.23,3.17,1,4.78h0A3,3,0,0,1,102.21,35L102,39.21Zm3.86-5.13c.55-.74.32-1.5-.52-2.12l-1.71-1.27L100,31.39l1.74,1.3a1.42,1.42,0,0,0,2,0l.13-.15Z"/><path class="cls-1" d="M110.45,50.38a5,5,0,0,1,1.69-6.87l.14-.08h0a5.17,5.17,0,0,1,5.09,9h0a5,5,0,0,1-6.82-1.87Zm5.83.1a3,3,0,0,0,1.22-4.06h0a2.92,2.92,0,0,0-4-1.12l-.09.06h0a3,3,0,0,0-1.22,4.06h0a2.93,2.93,0,0,0,4,1.11l.09-.05Z"/><path class="cls-1" d="M114.16,58.42l9.34-2.76.61,2-9.35,2.76Z"/><path class="cls-1" d="M115.77,64.66l9.7-.92.2,2.14-7.76.73.46,4.84-1.94.18Z"/><path class="cls-1" d="M71.9,144a72,72,0,1,1,68-48.06h0A72.1,72.1,0,0,1,71.9,144Zm0-139.14a67.14,67.14,0,1,0,63.36,89.46l2.29.81-2.29-.81A67.21,67.21,0,0,0,71.9,4.86Z"/><path class="cls-1" d="M80.68,101.89H63.25a2.59,2.59,0,0,1-1.74-.72c-.37-.39-9.46-9.5-9.46-19.08,0-6.39,3.18-9.9,6-13s5.64-6.28,5.64-12.93V51l-2.61-5.25a2.46,2.46,0,0,1,.08-2.42,2.55,2.55,0,0,1,2.11-1.18H77.82a2.48,2.48,0,0,1,2.47,2.49h0V56.16c0,6.65,2.77,9.71,5.65,12.93s6,6.61,6,13c0,9.58-9,18.69-9.42,19.08A2.63,2.63,0,0,1,80.68,101.89Zm-16.34-5H79.62c1.9-2.16,7.3-8.63,7.3-14.83,0-4.48-2.08-6.78-4.7-9.68-3.1-3.42-6.93-7.68-6.93-16.25v-9h-8l1.1,2.16a2.49,2.49,0,0,1,.25,1.12v5.76c0,8.57-3.83,12.83-6.92,16.25C59.11,75.32,57,77.62,57,82.1c0,5.66,4.77,12,7.3,14.82Z"/><path class="cls-1" d="M63.61,74.07c-2.74,3-4,4.64-4,8,0,4.4,3.54,9.51,5.92,12.31h13c2.36-2.8,5.91-7.91,5.91-12.31,0-3.38-1.31-5-4-8Z"/><path class="cls-1" d="M81.92,69.52a2.5,2.5,0,0,1,0-5c3.92,0,5-5.27,5-8.39a3.52,3.52,0,0,0-1.08-2.88c-1.68-1.44-4.93-1.35-6-1.2A2.54,2.54,0,0,1,77,50a2.51,2.51,0,0,1,2.13-2.81c.62-.09,6.33-.81,10,2.36a8.4,8.4,0,0,1,2.81,6.65C91.88,64.15,87.89,69.52,81.92,69.52Z"/></g></g></svg>