<svg xmlns="http://www.w3.org/2000/svg" viewBox="0 0 144 144"><defs><style>.cls-1{fill:#f7d74e;}</style></defs><title>soy</title><g id="Layer_2" data-name="Layer 2"><g id="Layer_1-2" data-name="Layer 1"><path class="cls-1" d="M54.59,114.84l-.69,1.94,4.35,1.63-.68,1.83-4.35-1.63-1.32,3.53-2-.75,3.42-9.13,6.94,2.61-.68,1.82Z"/><path class="cls-1" d="M68.27,125.9l-1.75-3.32-1.68-.18-.32,3.1-2.13-.22,1-9.69,4.44.46c2.28.24,3.52,1.59,3.31,3.59h0a3,3,0,0,1-2.39,2.79l2,3.71Zm.71-6.38c.1-.91-.49-1.45-1.53-1.56l-2.11-.23-.3,2.79,2.16.23a1.45,1.45,0,0,0,1.78-1.2Z"/><path class="cls-1" d="M76.42,125.92,75,116.28l7.26-1.07.28,1.89-5.16.76.29,1.95,4.54-.67.28,1.89L78,121.7l.3,2,5.22-.77.28,1.88Z"/><path class="cls-1" d="M89.47,123.2l-3.74-9,6.78-2.82.73,1.76-4.81,2,.76,1.82,4.23-1.76.74,1.76-4.26,1.77.78,1.89,4.88-2,.74,1.76Z"/><path class="cls-1" d="M60.67,29.31a6.16,6.16,0,0,1-4.39-.43l.82-1.79a4.54,4.54,0,0,0,3.12.39c.84-.23,1.26-.7,1.12-1.25h0c-.14-.53-.54-.71-2.22-.69-2,0-3.38-.17-3.88-2h0c-.46-1.71.61-3.21,2.53-3.72a5.61,5.61,0,0,1,3.81.26l-.68,1.75a4.65,4.65,0,0,0-2.7-.27c-.79.21-1.11.69-1,1.15h0c.17.62.62.71,2.36.69,2,0,3.3.39,3.74,2h0C63.84,27.34,62.7,28.77,60.67,29.31Z"/><path class="cls-1" d="M72.22,27.89A5,5,0,0,1,67,23.11q0-.11,0-.22h0a5.18,5.18,0,0,1,10.35-.14h0a5,5,0,0,1-4.86,5.14Zm2.89-5.07a3,3,0,0,0-3-3h0a2.91,2.91,0,0,0-2.89,2.93s0,.1,0,.14h0a3,3,0,0,0,3,3A2.91,2.91,0,0,0,75.12,23s0-.09,0-.13Z"/><path class="cls-1" d="M85.67,25.81l-1,3.74L82.58,29l1-3.71-2.07-6.67,2.42.66,1.22,4.38,3.3-3.15,2.35.63Z"/><path class="cls-1" d="M71.9,144a72,72,0,1,1,68-48.06h0A72.1,72.1,0,0,1,71.9,144ZM72,4.89a67.13,67.13,0,1,0,63.25,89.43h0A67.14,67.14,0,0,0,72,4.89Z"/><g id="green_peas" data-name="green peas"><path class="cls-1" d="M35,91.73a2.44,2.44,0,0,1-.81-.61A2.58,2.58,0,0,1,33.55,89a44.18,44.18,0,0,1,13.94-24.7c8.53-7.55,21.2-6.77,21.73-6.73a2.58,2.58,0,0,1,2.4,2.69c0,.54-.74,13.23-9.24,20.79A44.12,44.12,0,0,1,36.15,92,2.52,2.52,0,0,1,35,91.73Zm31.14-29C62.4,63,55.68,64,50.9,68.18A39.84,39.84,0,0,0,39.44,86.45,40.25,40.25,0,0,0,58.9,77.23c4.84-4.23,6.58-10.79,7.23-14.46Z"/><path class="cls-1" d="M57.27,75.76a3.84,3.84,0,1,1,.32-5.3,3.84,3.84,0,0,1-.32,5.3Z"/><path class="cls-1" d="M63.06,69.3a2.83,2.83,0,0,1-4-.23h0a2.87,2.87,0,1,1,4.08-4l.21.24a2.82,2.82,0,0,1-.23,4Z"/><path class="cls-1" d="M50.2,80.77a2.88,2.88,0,1,1,.21-4.08,2.88,2.88,0,0,1-.21,4.08Z"/><path class="cls-1" d="M44.52,84.5a1.91,1.91,0,1,1,.19-2.7,1.91,1.91,0,0,1-.19,2.7Z"/><path class="cls-1" d="M94.27,101.63a44,44,0,0,0,1.11-27.8c-3.19-10.9-14.36-17-14.83-17.21a2.57,2.57,0,0,0-3.45,1c-.29.46-6.39,11.6-3.18,22.53a44,44,0,0,0,16.36,23.09l.33.21h0a2.72,2.72,0,0,0,3.47-1.19A1.46,1.46,0,0,0,94.27,101.63ZM77.9,67.35A3.93,3.93,0,0,1,78.64,64a.66.66,0,0,1,.93-.08h0a.7.7,0,0,1,.22.66h0a2.87,2.87,0,0,0,3.26,3.75,3.38,3.38,0,0,0,1.89-1,.68.68,0,0,1,1,0l0,0a.64.64,0,0,1,.18.59h0a3.8,3.8,0,0,1-2.36,2.5,4.26,4.26,0,0,1-3.63-.34A4.38,4.38,0,0,1,77.9,67.35Zm-.78,10.09A5.2,5.2,0,0,1,78,73.17a.64.64,0,0,1,.9-.11h0a.63.63,0,0,1,.23.69h0a4.67,4.67,0,0,0,.14,3,4.24,4.24,0,0,0,1.91,2,4.44,4.44,0,0,0,2.59.33,5.27,5.27,0,0,0,2.66-1.43.65.65,0,0,1,1.09.61v.06a4.85,4.85,0,0,1-3,3.17A5.5,5.5,0,0,1,79.87,81a5.68,5.68,0,0,1-2.8-3.6ZM87.18,90.81a4.28,4.28,0,0,1-3.48-.34,4.42,4.42,0,0,1-2.06-2.72,4.05,4.05,0,0,1,.59-3.3.67.67,0,0,1,.91-.15.63.63,0,0,1,.23.76h0a3.06,3.06,0,0,0,0,2.17A2.79,2.79,0,0,0,86.67,89a3.09,3.09,0,0,0,1.8-1.18.71.71,0,0,1,1-.06.57.57,0,0,1,.16.7h0a3.82,3.82,0,0,1-2.5,2.36Zm5.27,6.4a2.62,2.62,0,0,1-1.11.65,3,3,0,0,1-2.58-.27l-.37-.28c-.11-.14-.35-.33-.46-.49a3.12,3.12,0,0,1-.15-3.55.71.71,0,0,1,.89-.16.62.62,0,0,1,.26.73h0A1.82,1.82,0,0,0,89,95.13a1.88,1.88,0,0,0,.31.51.25.25,0,0,1,.1.12l.42.3a2.29,2.29,0,0,0,1,.05,4.79,4.79,0,0,0,.58-.18c0-.06.19,0,.23-.12l.33-.36a.74.74,0,0,1,.95,0,.63.63,0,0,1,.12.74l-.2.42a1.47,1.47,0,0,1-.48.6Z"/><path class="cls-1" d="M67.9,61.94a2.5,2.5,0,0,1-.68-.47,2.61,2.61,0,0,1-.07-3.65h0A16.24,16.24,0,0,0,70.9,45a2.57,2.57,0,0,1,4.67-1.8c.63.94,6.26,9.38,6.35,15.74a2.55,2.55,0,0,1-2.5,2.6h-.05A2.59,2.59,0,0,1,76.76,59a16,16,0,0,0-1.44-5.55,20.76,20.76,0,0,1-4.47,8A2.55,2.55,0,0,1,67.9,61.94Z"/><path class="cls-1" d="M56,46.82a3.32,3.32,0,0,0,2,4.23l.28.09a2.82,2.82,0,0,0,2.21-.56,12.61,12.61,0,0,0,2.37-2.67,11.11,11.11,0,0,1,7.28-3.43,9.91,9.91,0,0,1,1.44,0,5.51,5.51,0,0,1,1.89.45,2.68,2.68,0,0,1-2.21,4.88l-.13-.06c.27.09,0,0-.12,0a3,3,0,0,0-.66-.06,6.3,6.3,0,0,0-1.5.13,5.91,5.91,0,0,0-2.57,1.3,15.92,15.92,0,0,1-3.59,3.17,6.94,6.94,0,0,1-5.82.6,7.15,7.15,0,0,1-4-3.89,6.79,6.79,0,0,1,3.67-8.87L56.9,42c1.67-.6,4.86-.44,5.75,2.17a4.88,4.88,0,0,0-6.5,2.32Q56.08,46.65,56,46.82Z"/></g></g></g></svg>