<svg xmlns="http://www.w3.org/2000/svg" viewBox="0 0 144 144"><defs><style>.cls-1{fill:#f7d74e;}</style></defs><title>sunflower</title><g id="Layer_2" data-name="Layer 2"><g id="Layer_1-2" data-name="Layer 1"><path class="cls-1" d="M54.63,114.84l-.72,1.94,4.35,1.63-.68,1.83-4.36-1.63-1.32,3.53-2-.75,3.42-9.13,7,2.61-.69,1.82Z"/><path class="cls-1" d="M68.32,125.9l-1.75-3.32-1.68-.18-.33,3.1-2.13-.22,1-9.69,4.43.46c2.29.24,3.53,1.59,3.32,3.58h0a3,3,0,0,1-2.39,2.79l2,3.71Zm.71-6.38c.09-.91-.49-1.45-1.53-1.56l-2.12-.23-.29,2.79,2.16.23a1.45,1.45,0,0,0,1.78-1.2Z"/><path class="cls-1" d="M76.47,125.92,75,116.28l7.27-1.07.28,1.89-5.16.76.29,1.95,4.54-.67.28,1.89L78,121.7l.3,2,5.23-.77.28,1.89Z"/><path class="cls-1" d="M89.52,123.2l-3.74-9,6.78-2.82.73,1.76-4.82,2,.76,1.82,4.24-1.76L94.2,117,90,118.73l.78,1.89,4.88-2,.73,1.76Z"/><path class="cls-1" d="M28,69.36a6.18,6.18,0,0,1-1.78,4L24.76,72a4.48,4.48,0,0,0,1.34-2.84c0-.87-.27-1.42-.84-1.45h0c-.54,0-.84.29-1.34,1.89-.61,1.93-1.22,3.16-3.15,3h0C19,72.52,17.92,71,18,69a5.65,5.65,0,0,1,1.43-3.54L21,66.71a4.54,4.54,0,0,0-1.09,2.47c0,.82.3,1.27.77,1.3h0c.64,0,.87-.37,1.39-2,.63-1.94,1.4-3,3.09-2.92h0C27.07,65.73,28.07,67.26,28,69.36Z"/><path class="cls-1" d="M30,58.57c-.8,2.49-2.68,3.57-5.41,2.69l-5.3-1.69.66-2,5.24,1.68c1.51.48,2.53,0,2.93-1.27a2,2,0,0,0-1.59-2.75l-5.32-1.7.65-2,5.24,1.67C29.89,54.06,30.76,56.07,30,58.57Z"/><path class="cls-1" d="M36.47,45.44,28.71,46l5.16,3.43L32.7,51.19l-8.12-5.43,1.09-1.65,7.52-.49-5-3.32,1.17-1.76,8.12,5.38Z"/><path class="cls-1" d="M36.56,33.83,38,35.38l3.48-3.08,1.3,1.46-3.48,3.08,2.5,2.82-1.61,1.42-6.46-7.29,5.55-4.92,1.3,1.46Z"/><path class="cls-1" d="M48.49,34.34l-4.57-8.6,1.89-1,3.66,6.87,4.29-2.28L54.67,31Z"/><path class="cls-1" d="M61.76,29.08a5,5,0,0,1-6.14-3.51l0-.17h0a5,5,0,0,1,3.65-6.06l.23-.05a5,5,0,0,1,6.13,3.53l0,.18h0A5,5,0,0,1,62,29Zm1.7-5.58a2.94,2.94,0,1,0-5.72,1.33h0a3,3,0,0,0,3.57,2.29h0a2.92,2.92,0,0,0,2.17-3.52Z"/><path class="cls-1" d="M80.05,28.34l-1.86-.17-1.62-6.55-2.76,6.16L72,27.61,69.54,17.54l2.29.2,1.42,6.75L76,18.09l1.83.16L79.44,25,82,18.66l2.23.2Z"/><path class="cls-1" d="M86.05,29.85l3.8-9,6.77,2.87-.75,1.75-4.8-2-.78,1.82,4.23,1.79-.74,1.75L89.55,27l-.8,1.89L93.62,31l-.74,1.76Z"/><path class="cls-1" d="M100.59,38.13l.24-3.74-1.33-1-1.9,2.47-1.7-1.3,5.94-7.73,3.53,2.72c1.82,1.4,2.17,3.2,1,4.79h0a3,3,0,0,1-3.5,1.12l-.23,4.21Zm3.94-5.06c.56-.73.34-1.49-.48-2.13l-1.69-1.3-1.71,2.22,1.72,1.32a1.42,1.42,0,0,0,2,.07l.14-.16Z"/><path class="cls-1" d="M110.8,51a5,5,0,0,1,1.82-6.83l.18-.1h0a5.18,5.18,0,0,1,4.95,9.09h0a5,5,0,0,1-6.81-1.9Zm5.84.2a3,3,0,0,0,1.34-4h0a2.92,2.92,0,0,0-3.93-1.27l-.18.1h0a3,3,0,0,0-1.29,4,2.92,2.92,0,0,0,4,1.19l.11-.06Z"/><path class="cls-1" d="M114.38,59.13l9.39-2.6.57,2.07L115,61.2Z"/><path class="cls-1" d="M115.88,65.37l9.71-.75.17,2.14-7.77.6.37,4.84-1.94.15Z"/><path class="cls-1" d="M71.9,144a72,72,0,1,1,68-48.06l-2.29-.81,2.29.81A72.1,72.1,0,0,1,71.9,144Zm0-139.14a67.14,67.14,0,1,0,63.36,89.46h0A67.21,67.21,0,0,0,71.9,4.86Z"/><path class="cls-1" d="M80.68,101.89H63.25a2.59,2.59,0,0,1-1.74-.72c-.37-.39-9.46-9.5-9.46-19.08,0-6.39,3.18-9.9,6-13s5.64-6.28,5.64-12.93V51l-2.61-5.25a2.46,2.46,0,0,1,.08-2.42,2.55,2.55,0,0,1,2.11-1.18H77.82a2.48,2.48,0,0,1,2.47,2.49h0V56.16c0,6.65,2.77,9.71,5.65,12.93s6,6.61,6,13c0,9.58-9,18.69-9.42,19.08A2.63,2.63,0,0,1,80.68,101.89Zm-16.34-5H79.62c1.9-2.16,7.3-8.63,7.3-14.83,0-4.48-2.08-6.78-4.7-9.68-3.1-3.42-6.93-7.68-6.93-16.25v-9h-8l1.1,2.16a2.49,2.49,0,0,1,.25,1.12v5.76c0,8.57-3.83,12.83-6.92,16.25C59.11,75.32,57,77.62,57,82.1c0,5.66,4.77,12,7.3,14.82Z"/><path class="cls-1" d="M63.61,74.07c-2.74,3-4,4.64-4,8,0,4.4,3.54,9.51,5.92,12.31h13c2.36-2.8,5.91-7.91,5.91-12.31,0-3.38-1.31-5-4-8Z"/><path class="cls-1" d="M81.92,69.52a2.5,2.5,0,0,1,0-5c3.92,0,5-5.27,5-8.39a3.52,3.52,0,0,0-1.08-2.88c-1.68-1.44-4.93-1.35-6-1.2A2.54,2.54,0,0,1,77,50a2.51,2.51,0,0,1,2.13-2.81c.62-.09,6.33-.81,10,2.36a8.4,8.4,0,0,1,2.81,6.65C91.88,64.15,87.89,69.52,81.92,69.52Z"/></g></g></svg>