<svg xmlns="http://www.w3.org/2000/svg" viewBox="0 0 169.67 39.3"><defs><style>.cls-1{fill:#f7d74e;}</style></defs><title>try-it-on</title><g id="Layer_2" data-name="Layer 2"><g id="Layer_1-2" data-name="Layer 1"><path class="cls-1" d="M37.55,30.12a.53.53,0,0,0,0-.53.52.52,0,0,0-.46-.26H.92a.53.53,0,0,0-.47.79l3.31,6.1a.56.56,0,0,0,.48.28H33.76a.56.56,0,0,0,.48-.28Zm-4.11,5.3H4.55l-2.72-5H36.17Z"/><path class="cls-1" d="M37.08,26.17H.92a.54.54,0,1,0-.15,1.07H37.08a.54.54,0,0,0,0-1.07Z"/><path class="cls-1" d="M.52,18.87a.55.55,0,0,0,.4.18H37.08a.53.53,0,0,0,.39-.18.49.49,0,0,0,.14-.41C36.61,7.73,27.27,2.84,19,2.84S1.36,7.73.38,18.46A.56.56,0,0,0,.52,18.87Zm1-1.17C2.84,8.18,11.26,3.92,19,3.92S35.12,8.18,36.44,17.67v.27h-35Z"/><path class="cls-1" d="M37.46,23.14c-1.86,0-2.24-.41-2.68-.9-.65-.71-1.31-1.25-3.47-1.25s-2.83.54-3.48,1.25c-.44.49-.82.9-2.68.9s-2.24-.41-2.67-.9C21.82,21.53,21.16,21,19,21s-2.83.54-3.48,1.25c-.43.48-.81.9-2.67.9s-2.25-.41-2.69-.9C9.54,21.56,8.85,21,6.69,21s-2.83.54-3.47,1.25c-.44.49-.82.9-2.68.9a.54.54,0,1,0,0,1.08C2.7,24.22,3.37,23.68,4,23c.44-.49.82-.9,2.68-.9s2.24.41,2.68.9c.65.71,1.32,1.25,3.48,1.25s2.82-.54,3.47-1.25c.44-.49.82-.9,2.68-.9s2.24.41,2.68.9c.64.71,1.31,1.25,3.47,1.25S28,23.68,28.63,23c.44-.48.82-.9,2.68-.9s2.24.42,2.68.9c.64.71,1.31,1.25,3.47,1.25a.54.54,0,1,0,0-1.08Z"/><path class="cls-1" d="M23.95,11.81a.59.59,0,0,0-.35-.23h-.2a.51.51,0,0,0-.5.45.55.55,0,0,0,.46.63h.15a.53.53,0,0,0,.52-.44A.5.5,0,0,0,23.95,11.81Z"/><path class="cls-1" d="M27.29,14.46a.53.53,0,0,0,.52-.44.51.51,0,0,0-.08-.4.59.59,0,0,0-.35-.23h-.2a.53.53,0,0,0-.3.09.56.56,0,0,0-.2.35.54.54,0,0,0,.44.63h.17Z"/><path class="cls-1" d="M23.47,8.3A.52.52,0,0,0,24,7.86a.48.48,0,0,0-.09-.4.49.49,0,0,0-.34-.22H23.5a.51.51,0,0,0-.59.42v0a.57.57,0,0,0,.46.63Z"/><path class="cls-1" d="M31.54,14.52a.53.53,0,0,0,.58-.44.55.55,0,0,0-.44-.63h-.11a.51.51,0,0,0-.59.42v0a.55.55,0,0,0,.46.62Z"/><path class="cls-1" d="M28.29,10a.54.54,0,0,0-.43-.63h-.21a.52.52,0,0,0-.29.09.57.57,0,0,0-.21.36.55.55,0,0,0,.46.62h.15A.53.53,0,0,0,28.29,10Z"/><path class="cls-1" d="M27.59,10.94h0"/><path class="cls-1" d="M98.08,10a.52.52,0,0,0-.35-.18l-4.89-.43.41-5.12a.5.5,0,0,0-.46-.54h0l-5.41-.48L87.46.52a.47.47,0,0,0-.14-.37A.48.48,0,0,0,87,0H79.63a.51.51,0,0,0-.37.15.55.55,0,0,0-.14.37l.09,2.73-5.42.48a.49.49,0,0,0-.45.53h0l.41,5.12-4.91.43a.52.52,0,0,0-.35.18.47.47,0,0,0-.11.37l.77,7.23h0l3.26,21.28a.5.5,0,0,0,.49.42H93.72a.5.5,0,0,0,.5-.42l3.27-21.3v-.12h0l.73-7.11A.54.54,0,0,0,98.08,10Zm-6.31-.33a.32.32,0,0,0,0,.14.49.49,0,0,0,0,.17h0l-.59,7.33a5.62,5.62,0,0,1-4,3.68l-.31.07.51-16.81,4.86.42M86.47,1v.25l-.61,20H80.74V21l-.6-20Zm-7.2,3.27V4.5l.5,16.56L79.46,21a5.59,5.59,0,0,1-4-3.62L74.84,10h0a.42.42,0,0,0,0-.16.8.8,0,0,0,0-.15V9.62l-.48-4.95Zm-9.81,6.51,4.4-.38,0,.29L74.35,17H70Zm26.91,7.49L93.3,38.32h-20L70.18,18h4.35l.06.14a6.64,6.64,0,0,0,6.13,4.08h5.12A6.61,6.61,0,0,0,92,18.12L92,18h4.34ZM96.55,17H92.26v-.26l.51-6.33,4.39.38Z"/><path class="cls-1" d="M131.34,11h-.16C131.18,11.08,131.34,11.08,131.34,11Z"/><path class="cls-1" d="M129.77,18.5a.11.11,0,0,0-.08.11h.15A.11.11,0,0,0,129.77,18.5Z"/><path class="cls-1" d="M137.59,7.22a.09.09,0,0,0-.05-.09.1.1,0,0,0-.11.09Z"/><path class="cls-1" d="M154.31,31.32a.11.11,0,0,0-.08.11c0,.09.16.09.16,0A.11.11,0,0,0,154.31,31.32Z"/><path class="cls-1" d="M164.84,16.18h-.16C164.72,16.26,164.84,16.27,164.84,16.18Z"/><path class="cls-1" d="M131.26,12.2a1.21,1.21,0,1,0-1.2-1.22s0,0,0,0A1.2,1.2,0,0,0,131.26,12.2Zm-.4-1.2a.4.4,0,0,1,.4-.4.39.39,0,0,1,.4.38s0,0,0,0a.38.38,0,0,1-.18.31.4.4,0,0,1-.22.06.54.54,0,0,1-.21,0,.42.42,0,0,1-.19-.32Z"/><path class="cls-1" d="M137.51,8.43a1.21,1.21,0,1,0-1.2-1.22h0a1.2,1.2,0,0,0,1.19,1.21Zm-.4-1.21a.4.4,0,0,1,.4-.4.39.39,0,0,1,.4.38s0,0,0,0a.35.35,0,0,1-.17.32.46.46,0,0,1-.23.06.54.54,0,0,1-.21-.05.42.42,0,0,1-.19-.32Z"/><path class="cls-1" d="M164.17,27.67v-.11c-1.32-2.73-2.41-4.68-3.1-5.84l-.36-.53a50.63,50.63,0,0,0-4.13-5.27l-.35-.35-.78-.86c-.59-.61-1.18-1.2-1.77-1.75l-.28-.32a42.11,42.11,0,0,0-5.22-4.13l-.55-.35-.16-.1c-.69-.43-1.12-.66-1.19-.7L146,7.15a19,19,0,0,0-9.16-2.89h-.17a7.77,7.77,0,0,0-6.27,2.93l-.14.24c-1.55,2.14-2.24,5-2.06,8.52a19.45,19.45,0,0,0,4.48,11.46l.34.4a7.86,7.86,0,0,0,1,1l.42.43.24-.55c.42-1,1.2-2.82,2.62-6.08l.09-.2-.13-.18-.57-.87-.79-1.78a13,13,0,0,1-.86-3.92,8.72,8.72,0,0,1,.68-4c.18-.4.62-.59,1.35-.6a10.15,10.15,0,0,1,4.14,1.12,26.71,26.71,0,0,1,8.09,5.71,47.46,47.46,0,0,1,4.88,5.5,33.75,33.75,0,0,1,2,3l.47.63c1.08,1.38,2.56,3.26,3.38,4.36l.09.11h.14a3.21,3.21,0,0,0,2.2-.21A3,3,0,0,0,164.17,27.67ZM159.66,22a.4.4,0,0,1-.8,0,.39.39,0,0,1,.38-.4h0a.4.4,0,0,1,.4.37Zm-30.29-3.36h0a.4.4,0,0,1,.8,0,.38.38,0,0,1-.39.37h0a.38.38,0,0,1-.4-.4ZM143,12a.39.39,0,0,1-.41-.37h0a.41.41,0,0,1,.81,0,.38.38,0,0,1-.4.34Zm9.36,7.47a.4.4,0,1,1,.33.33A.4.4,0,0,1,152.33,19.48ZM162,30.55h0a2.22,2.22,0,0,1-1,.25,2,2,0,0,1-.42,0h-.09l-.06-.07c-.81-1.07-2.13-2.77-3.1-4l-.54-.7c-.44-.73-1.48-2.21-2.06-3s-1-1.32-1.58-2l-.2-.24.29-.13a1.23,1.23,0,0,0,.72-1.1,1.2,1.2,0,0,0-2.24-.61l-.16.27-.22-.23c-.55-.58-1.07-1.1-1.57-1.58A32.62,32.62,0,0,0,144,12.84l-.24-.14.18-.21a1.2,1.2,0,1,0-2-1.36l-.09.16-.07.27-.32-.14a10.9,10.9,0,0,0-4.61-1.18,2,2,0,0,0-2,1.07,9.5,9.5,0,0,0-.75,4.4,13.35,13.35,0,0,0,.7,3.58l.12.35h-.38a1.15,1.15,0,0,0-.92.3,1.2,1.2,0,0,0,.79,2.1,1.18,1.18,0,0,0,.95-.47l.24-.31.24.51c.13.22.27.44.42.67l.07.11-.23.53c-.89,2-1.5,3.47-1.91,4.44l-.15.34-.26-.27-.26-.3-.33-.38a19,19,0,0,1-3.58-6.75l-.09-.29h.3a1.21,1.21,0,0,0,1.13-1.2,1.16,1.16,0,0,0-.52-1,1.21,1.21,0,0,0-1.09-.18l-.28.1v-.3c-.06-.47-.1-.94-.12-1.4a12.38,12.38,0,0,1,1.93-8l.13-.22a7,7,0,0,1,5.78-2.59,18.09,18.09,0,0,1,8.72,2.77l.4.24a10.8,10.8,0,0,1,1.19.71l.62.4A39.27,39.27,0,0,1,152.59,13l.41.37h-.55a1.2,1.2,0,1,0,1.3,1.29v-.53l.37.37.68.69.8.9.59.63h0l.13.14c1,1.13,1.93,2.31,2.82,3.53l.22.31-.37.07a1.2,1.2,0,0,0,.24,2.38,1.22,1.22,0,0,0,1-.53l.21-.33.2.34c.89,1.55,1.8,3.29,2.7,5.16v.07A2.24,2.24,0,0,1,162,30.52Zm-27.15-9.76a.38.38,0,0,1-.38.38h0a.39.39,0,0,1-.4-.37.4.4,0,0,1,.39-.41h0a.39.39,0,0,1,.39.39Zm18.11-6.19a.34.34,0,0,1-.19.31.39.39,0,0,1-.21.06.4.4,0,0,1-.22-.06.34.34,0,0,1-.18-.32.39.39,0,0,1,.39-.39h0a.4.4,0,0,1,.39.4Z"/><path class="cls-1" d="M155.51,31.43a1.2,1.2,0,1,0-1.2,1.2h0A1.2,1.2,0,0,0,155.51,31.43Zm-1.2.38a.38.38,0,0,1-.4-.36v0a.4.4,0,0,1,.4-.4.39.39,0,0,1,.4.38s0,0,0,0a.38.38,0,0,1-.38.38Z"/><path class="cls-1" d="M141.06,33.09l-.27.41.45.18a20.62,20.62,0,0,0,8.86,1.62,17.57,17.57,0,0,0,8.85-3l.36-.24-.27-.34c-1.11-1.41-2.76-3.5-3.53-4.49l-.22-.28-.31.19a10.75,10.75,0,0,1-5.08,1.69,13.68,13.68,0,0,1-5.36-.91l-.32-.12-.17.3C143.2,29.67,142.19,31.33,141.06,33.09Zm3.44-4.18.1-.17.18.06a14.22,14.22,0,0,0,5.16.78,11.4,11.4,0,0,0,5-1.52l.18-.1.2.25,2.67,3.4.17.21-.23.14a16.53,16.53,0,0,1-7.85,2.54h-1a19.34,19.34,0,0,1-6.83-1.31l-.28-.1.16-.25C143,31.51,143.84,30.18,144.5,28.91Z"/><path class="cls-1" d="M148.2,18.82l.2-.28-.25-.24a28.73,28.73,0,0,0-4.74-3.64l-.32-.2-.22.31A61.1,61.1,0,0,0,138,23.08l-1.45,3.36.74.32V26.7l.26.1a.39.39,0,0,1,.34.39.36.36,0,0,1-.2.34.4.4,0,0,1-.42,0,.38.38,0,0,1-.14-.19l-.85-.32-1.15,2.65V30a3.09,3.09,0,0,0,2.24,3.29,3.49,3.49,0,0,0,2.46-.1l.12-.05L140,33c1.79-2.75,2.89-4.74,3.38-5.68A59.58,59.58,0,0,1,148.2,18.82ZM142.65,27h0c-.48.91-1.53,2.81-3.22,5.42v.07h-.09a3.11,3.11,0,0,1-.89.14,2.45,2.45,0,0,1-.81-.13A2.29,2.29,0,0,1,135.95,30v-.09l.77-1.79.23.12a1.27,1.27,0,0,0,.59.16,1.2,1.2,0,0,0,.37-2.35l-.25-.08,1.1-2.56c.41-.85.87-1.74,1.35-2.62l.33-.61.12.68a1.2,1.2,0,1,0,1.18-1.4,1.31,1.31,0,0,0-.43.08l-.64.25.34-.59c.69-1.18,1.43-2.35,2.2-3.47l.13-.19.2.13a27,27,0,0,1,3.69,2.84l.15.14-.11.17a51,51,0,0,0-2.88,4.74l-.23.43L144,23.5a1.22,1.22,0,0,0-1.11-.72,1.2,1.2,0,0,0-1.2,1.2,1.15,1.15,0,0,0,.44.89,1.22,1.22,0,0,0,1,.29l.48-.08-.22.42A16.38,16.38,0,0,0,142.65,27Zm-1.34-6.31a.4.4,0,1,1,.8,0h0a.4.4,0,1,1-.8,0ZM143.23,24a.38.38,0,0,1-.39.37h0a.38.38,0,0,1-.4-.36h0a.4.4,0,0,1,.8,0Z"/><path class="cls-1" d="M159.75,7.13a1.2,1.2,0,1,0-1.2,1.2h0A1.2,1.2,0,0,0,159.75,7.13Zm-1.2.37a.38.38,0,0,1-.25-.08.34.34,0,0,1-.15-.29.4.4,0,1,1,.8,0h0a.38.38,0,0,1-.39.37Z"/><path class="cls-1" d="M169.66,13.27A11.43,11.43,0,0,0,169,9.83l-.34-.63-.54.66H168a.41.41,0,0,1-.4-.4.4.4,0,0,1,.4-.39h.7l-.36-.6a8.42,8.42,0,0,0-3.95-3.42l-2-.63a15.19,15.19,0,0,0-4.1-.38,17.19,17.19,0,0,0-8.81,3.38l-.46.33.46.32a41.08,41.08,0,0,1,4.9,4l.22.2.25-.14a10.42,10.42,0,0,1,4-1.31,7.71,7.71,0,0,1,2.43.25,2.51,2.51,0,0,1,1.89,2.6,10.09,10.09,0,0,1-.69,3.8l-.27.87c-.22.51-.48,1-.82,1.67l-.11.2.13.2c.54.88,1.68,2.79,3.14,5.74l.29.6.39-.55a25.59,25.59,0,0,0,3-5.37A17.24,17.24,0,0,0,169.66,13.27Zm-4.5,11.61-.22.35-.19-.37c-1.08-2.11-1.95-3.62-2.5-4.52l-.07-.12.06-.12c.29-.55.5-1,.69-1.44l.28-.9c.09-.25.17-.5.24-.73l.13-.44.29.35a1.2,1.2,0,1,0,.93-2,1.34,1.34,0,0,0-.55.13l-.39.21v-.44a8.42,8.42,0,0,0,0-1.22,3.29,3.29,0,0,0-2.42-3.36,9.42,9.42,0,0,0-2.69-.27,10.6,10.6,0,0,0-3.94,1.2l-.15.07-.12-.11a41.44,41.44,0,0,0-3.92-3.25l-.28-.21.29-.19a16,16,0,0,1,7.63-2.71,13.68,13.68,0,0,1,3.84.35l1.89.61a7.75,7.75,0,0,1,3.14,2.46l.13.17-.16.15a1.19,1.19,0,0,0-.41.89,1.21,1.21,0,0,0,.45.92,1.14,1.14,0,0,0,1,.27h.21l.06.21a10.45,10.45,0,0,1,.41,2.49,16.63,16.63,0,0,1-1.44,7.26A24.62,24.62,0,0,1,165.16,24.88Zm-.76-8.69h0a.4.4,0,0,1,.4-.4.39.39,0,0,1,.4.38s0,0,0,0a.36.36,0,0,1-.18.32.4.4,0,0,1-.22.06.42.42,0,0,1-.21-.06.36.36,0,0,1-.19-.32Z"/></g></g></svg>