<svg xmlns="http://www.w3.org/2000/svg" viewBox="0 0 144 144"><defs><style>.cls-1{fill:#f7d74e;}</style></defs><title>wheat</title><g id="Layer_2" data-name="Layer 2"><g id="Layer_1-2" data-name="Layer 1"><path class="cls-1" d="M71.94,144a72,72,0,1,1,67.94-48h0A72.09,72.09,0,0,1,71.94,144Zm0-139.11a67.13,67.13,0,1,0,63.35,89.45h0A67.21,67.21,0,0,0,72,4.87Z"/><path class="cls-1" d="M89.92,52.78c.33,1,.36,1.58.61,2.35,2-1.13,3.48.25,4.73-.51.76-.46,1.32-2.43,1.58-3.27s1.09-3.72-.15-3.65C95,47.79,92.17,48,90.57,49,88.31,50.35,89.34,51,89.92,52.78Z"/><path class="cls-1" d="M90.5,56.85c-.74.82-.33,2.36-1.59,3.27,3.6,1.21,6.59,3.15,9.86-1.41C96.61,56.88,92.37,54.78,90.5,56.85Z"/><path class="cls-1" d="M87.35,61.48a4.7,4.7,0,0,0-2.5.6c-.75.86,0,2.87-1.46,4,1.89.26,3.4,1.77,5.15,2s3.94-1.29,5.52-3.41c.22-.29-.1-.35-.32-.52C92.13,63,89.23,61.5,87.35,61.48Z"/><path class="cls-1" d="M75.88,60.69c0,.88,1.13,2.1,1.65,3.21.15.32.34,1.83.7,2a7.46,7.46,0,0,0,3.18-.14c3.59-2.25.7-8.11-1.62-10.92C78.46,56.28,75.76,58.35,75.88,60.69Z"/><path class="cls-1" d="M82.35,54.28A15.91,15.91,0,0,0,83.78,58c.11.28.39,2.15.7,2.33s2.09-.62,2.46-.87c3.49-2.36,1.31-7.5-.59-9.89C85,51,82.43,52.14,82.35,54.28Z"/><path class="cls-1" d="M88,70.31c-.27-.8-3.59-2.2-4.86-2.53s-4.09-.6-4.66,0c-.23.24-.16,1.66-.31,2.21-.21.82-.47,1.34-.81,2.29,1.93-.12,3.94,2.08,5.86,2.17C84.14,74.5,88.56,71.88,88,70.31Z"/><path class="cls-1" d="M72,73c1.17-1.09,2.28-.57,3.28-1.38,3-2.39.76-7.37-1.85-10.4C68.26,65.18,69.68,68.78,72,73Z"/><path class="cls-1" d="M76.7,80.36c1.1,0,3.46-1.45,4.64-2.74.86-.94.75-1.14-.38-1.94a10.65,10.65,0,0,0-5.55-2.05,5.36,5.36,0,0,0-3.19,1.08c-.8,1,.26,2.23-1.28,3.39C72.8,78.19,74.55,80.36,76.7,80.36Z"/><path class="cls-1" d="M65.71,78.89a10.29,10.29,0,0,0,3.4-1.07c2.85-2.37.35-7.74-1.74-10.09-.11-.13-.1,0-.2,0a1.32,1.32,0,0,0-.3.09c-2.07,1.62-3.83,4.13-3.66,6.83C63.27,75.69,64.11,78.46,65.71,78.89Z"/><path class="cls-1" d="M95.34,75c.08-.08.14-.17,0-.24-2.53-.25-6.67,1.28-9.56,3.44-3.38,2.53-5,5.36-8,8a22.08,22.08,0,0,1-12.37,5.4c-2.2.26-4.58-.34-6.88.54-3.15,1.21-7.14,5.69-9.91,8.65,4.17-2.24,7.41-3.65,11.12-3.73,2.89-.07,5.5,1.08,8.46,1C79.52,97.85,85.12,80.3,95.34,75Z"/><path class="cls-1" d="M76.56,45.17c.09-.08.17-.14.23,0,0,2.31-1.7,6.24-3.92,9.07-2.6,3.32-5.34,5.06-8,8A24.38,24.38,0,0,0,59,74c-.42,2,0,4.19-1,6.38-1.36,3-5.81,7-8.75,9.81,2.39-4,3.94-7.11,4.31-10.53.29-2.67-.56-5-.29-7.72C54.24,61.55,70.84,55,76.56,45.17Z"/><path class="cls-1" d="M65.55,84.75c2.48,3.16,8.67,1.61,10.44-2,.13-.26-.18-.15-.21-.21a.7.7,0,0,0-.21-.21c-1.64-1.06-3.82-2.59-6.08-2.58C67.06,79.76,63.64,82.32,65.55,84.75Z"/><path class="cls-1" d="M63.39,84c-.34-1.44.29-2.35,1.34-3.8-.77-.2-1.43-1.83-2-2-.9,4.77-13.87,16.91-15.1,18.17-.75.76-1.53,1.55-2.3,2.3a.64.64,0,0,0,0,.91h0a.65.65,0,0,0,.91,0c.78-.76,1.56-1.55,2.32-2.32,1.21-1.24,2.61-2.65,3.92-3.81h0c3-2.44,6.09-7,9.11-7.75a8.71,8.71,0,0,1,2.9.27A9.22,9.22,0,0,1,63.39,84Z"/><path class="cls-1" d="M54.45,31.24l-1.64.9-5-4.54,1.13,6.65-1.63.89-7.63-7,2-1.1,4.93,4.82L45.38,25,47,24.11l5.1,4.76-1.4-6.75,2-1.08Z"/><path class="cls-1" d="M66.22,28.07l-.68-3.85-3.89.69.68,3.85-2.11.37-1.69-9.59,2.11-.38L61.31,23l3.89-.69-.67-3.79,2.11-.38,1.69,9.6Z"/><path class="cls-1" d="M72.22,27.6,73,17.89l7.32.6-.15,1.9L75,20l-.16,2,4.57.37-.16,1.9-4.57-.38-.17,2,5.27.43-.16,1.9Z"/><path class="cls-1" d="M89.8,31.34,89.71,29l-3.87-1.4-1.58,1.76-2.06-.75,7.26-7.8,1.86.67.59,10.64Zm-.31-7.81L87.2,26.06l2.43.88Z"/><path class="cls-1" d="M101.47,29.08l-4.26,6.48-1.79-1.17,4.26-6.48-2.47-1.63,1.08-1.65L105,29.06l-1.08,1.65Z"/><path class="cls-1" d="M54.69,114.83,54,116.77l4.35,1.63-.68,1.83-4.35-1.63L52,122.13l-2-.76,3.41-9.12,7,2.61-.69,1.82Z"/><path class="cls-1" d="M68.36,125.89l-1.75-3.32-1.67-.18-.33,3.1-2.13-.22,1-9.69,4.43.46c2.28.24,3.53,1.59,3.32,3.58h0a3,3,0,0,1-2.4,2.79l2,3.71Zm.72-6.38c.09-.92-.49-1.45-1.53-1.56l-2.12-.23-.29,2.79,2.16.23c1,.1,1.69-.39,1.77-1.2Z"/><path class="cls-1" d="M76.51,125.9l-1.42-9.63,7.26-1.07.28,1.89-5.16.76.29,2,4.54-.67.28,1.89-4.54.67.3,2,5.23-.77.27,1.88Z"/><path class="cls-1" d="M89.56,123.19l-3.74-9,6.78-2.82.73,1.76-4.81,2,.76,1.82,4.23-1.76.73,1.76L90,118.72l.78,1.89,4.88-2,.73,1.76Z"/></g></g></svg>