<svg xmlns="http://www.w3.org/2000/svg" viewBox="0 0 1910 5100.5"><defs><style>.cls-1{fill:#171213;}</style></defs><title>Fichier 4</title><g id="Calque_2" data-name="Calque 2"><g id="Calque_1-2" data-name="Calque 1"><path class="cls-1" d="M0,1619.72s26,82.94,58.1,100.38c17.77,11.77,55.64-4.37,121.64,82.64s45,117,159,180,144-15,234,45,222,363,402,363,270-108,393-240,231-135,312-198,162-243,189-279,41.09-54,41.09-54V0H0Z"/><path class="cls-1" d="M0,4489s7-38,59-83,186-124,186-124,60-41,89-98l29-57s30-67,61-119,113-177,240-165,137,30,198,58,94,75,117,95,79,78,110,93,86,31,120,31,92-2,140,12,72,14,140,78,98,80,136,92,90,42,122,100,72,104,72,104,49,34,70,110,21,422,21,422-11-4-157,16-142,54-232,20-86-38-238-18-126,54-348,42-248,12-370-10-230-42-290-40-52,0-102-6-67-18-120-2L0,5056Z"/></g></g></svg>