<svg xmlns="http://www.w3.org/2000/svg" viewBox="0 0 1920 6578.55"><defs><style>.cls-1{fill:#171213;}</style></defs><title>Fichier 1</title><g id="Calque_2" data-name="Calque 2"><g id="Calque_1-2" data-name="Calque 1"><g id="Calque_2-2" data-name="Calque 2"><g id="Calque_1-2-2" data-name="Calque 1-2"><path class="cls-1" d="M0,0V1274.5s109.93-33,223.94-33,228,96,270,186,54,132,120,177,126,147,177,168,141,12,195,57,120,165,180,204,105,33,132,48,156-27,207-111,69-135,147-165,204-87,228-129,39.89-69,39.89-69V0Z"/><path class="cls-1" d="M0,1964.58s121.93-141,253.95-147,249,198,423,246,276,105,300,153,96,261,156,288,228,15,321,51,216,33,282,51,183.91,87,183.91,87v489s-162.9,27-231.91,81-144,246-342,246-201-204-339-252-354-84-468-282-312-321.16-408-312.1S0,2696.66,0,2696.66Z"/><path class="cls-1" d="M1920,5125.21s-367.74,32-499.74,0-216,40-332-32-112-132-204-180-152-60-216-104-96-232-308-232S0,4858.33,0,4858.33V5937.21s156.26,200,232.26,216,104,116,212,144,188-40,288,0,216,212,288,224,132,76,256,52,220-364,332-428,200-52,244-104,67.74-100,67.74-100Z"/></g></g></g></g></svg>