<svg xmlns="http://www.w3.org/2000/svg"
	 viewBox="0 0 1918.67 4311.99">
	<defs>
		<style>
			.home-path {
				fill: #171213;
			}
		</style>
	</defs>
	<title>Fichier 2</title>
	<g id="Calque_2"
	   data-name="Calque 2">
		<g id="Calque_1-2"
		   data-name="Calque 1">
			<path class="home-path"
				  d="M0,0V1392.7s195-90,339-30,171,114,246,153,72,120,135,147,138-15,207,51,99,189,174,207,207,36,252,0,141-198,204-228,249-66,315-213c41-92.77,46.49-109.49,46.49-109.49L1916.66,0Z" />
			<path class="home-path"
				  d="M0,3021.86s165-24,255-18,168,60,258,42,210-270,423-273,252,243,423,258,492-36,531.05-27c28,8,28.39,9.59,28.39,9.59V4024s-28.39-42-151.4,0-180,288-417,288-195-168-342-243-192-27-264-96-222-174-375-174-369,39-369,39Z" />
		</g>
	</g>
</svg>