<svg xmlns="http://www.w3.org/2000/svg"
	 viewBox="0 0 1909 3994">
	<defs>
		<style>
			.our-story-path {
				fill: #171213;
			}
		</style>
	</defs>
	<title>Fichier 1</title>
	<g id="Calque_2"
	   data-name="Calque 2">
		<g id="Calque_2-2"
		   data-name="Calque 2">
			<path class="our-story-path"
				  d="M0,0V2457s127-120,299-148,408-52,552-128,292-76,410-136,102-196,238-300,308-112,332-144,78-72,78-72V0Z" />
			<path class="our-story-path"
				  d="M0,3181v813H1909V2869.19s-153.8,0-261.78-114-204-198-353.93-144C1139,2723,954.5,2701,832.1,2845.9c-96,84-230.17,71.1-378.64,115.1S235,3137,131,3143C76,3162,0,3181,0,3181Z" />
		</g>
	</g>
</svg>