<svg id="Layer_1" data-name="Layer 1" xmlns="http://www.w3.org/2000/svg" viewBox="0 0 216 216"><defs><style>.cls-1{fill:#fff;}.cls-2{fill:#ec4624;}</style></defs><title>Turnt_Web_Assets</title><path class="cls-1" d="M62.75,141c.28,1.22,0,1.92-.86,2.11a5.59,5.59,0,0,1-.89.06,4.88,4.88,0,0,0-.86.06,1.64,1.64,0,0,0-.93.52,11,11,0,0,0-.75,1.15.53.53,0,0,0,.16.29.73.73,0,0,1,.18.25,1.23,1.23,0,0,1-1-.18c-.1.3,0,.49.26.56a2.37,2.37,0,0,1,.17.48c-.25.15-.37.26-.35.32l.3.17a.84.84,0,0,1,.42-.38,3.31,3.31,0,0,1-.53,1c0,.05,0,.11.16.17.28-.07.39-.22.33-.46,0,.05.1.12.26.23a2.26,2.26,0,0,1,.3.22,3.09,3.09,0,0,1,.13.91,5.8,5.8,0,0,0,.11,1c.15.1.35.25.6.44.08.22.21.68.39,1.4.38,1.51.75,3,1.12,4.53a2,2,0,0,1,0,.6,1.88,1.88,0,0,0,0,.58,1.93,1.93,0,0,0,.27.49,1.64,1.64,0,0,1,.25.45,1.09,1.09,0,0,1,0,.45,2.26,2.26,0,0,1,.38.95c.18.64.29,1,.34,1.12a1.19,1.19,0,0,1,0,.51,2.11,2.11,0,0,0,0,.65A1.22,1.22,0,0,0,63,162l.27.36a13.63,13.63,0,0,1,.44,1.41c.37,1.55.14,2.41-.67,2.61l-1,.31c-.53.18-.86.28-1,.31a1,1,0,0,1-1.09-.45,2.57,2.57,0,0,1-.62-1.12q-1.86-9.21-3.74-18.43c-.29-1.06-.59-1.6-.92-1.63a13.32,13.32,0,0,0-1.38-.17c-.13,0-.48.18-1.07.44a9.78,9.78,0,0,1-1.05.45c-.79.21-1.38-.37-1.8-1.77a3.23,3.23,0,0,1-.1-1.4c.07-.67.33-1.07.78-1.19a1.68,1.68,0,0,1,.53-.06,1.72,1.72,0,0,0,.49,0,2.39,2.39,0,0,1,.61,0,2.14,2.14,0,0,0,.58,0l2.1-.54a2.92,2.92,0,0,0,.46.36,8.9,8.9,0,0,1,.85-.59A4.53,4.53,0,0,0,57,140.6a23,23,0,0,0,2.22-.7l1.29-.46a1.71,1.71,0,0,1,1.65.26A2.72,2.72,0,0,1,62.75,141Zm-7.11,1.09c-.1.12-.23.26-.4.43a2.89,2.89,0,0,1-.32.3l-.44-.16a10,10,0,0,1,.82.83A10.52,10.52,0,0,1,55.64,142.11Zm1,1.26c0-.08,0-.17-.07-.26l-.93.23c0,.09.05.18.07.26Zm3.87,15-.15-.17-.58.45.06.23Zm-4.12-14.25c0-.17-.09-.34-.13-.52l-.3.08c.05.17.09.34.14.52Zm1.14,2.42c0-.17-.08-.35-.13-.52l-.29.07c0,.18.09.35.13.52Zm-.12-4.6c-.06-.23-.12-.46-.17-.69a1.82,1.82,0,0,1-1.16.63Zm-.36.43a4.86,4.86,0,0,0-.51.64.43.43,0,0,1,.31.15l.25.2a2.62,2.62,0,0,1,0-.49A2.17,2.17,0,0,0,57.1,142.34Z"/><path class="cls-1" d="M89.77,149.87c-.39.2-.56.63-.49,1.3a3.65,3.65,0,0,0,.29,1,3.89,3.89,0,0,1,.27.78,2.21,2.21,0,0,1-.07.38,1.51,1.51,0,0,0-.07.41c0,.18,0,.4.06.67a10.3,10.3,0,0,1,0,1.57,11.19,11.19,0,0,0,0,1.53l0,.25,0,.22V158q-.21.8-.72,2.16a4.64,4.64,0,0,1-1.22,1.44,3.38,3.38,0,0,1-1.67.86q-.16,0-.21-.06t-.18-.06a1.09,1.09,0,0,0-.55.37,1.18,1.18,0,0,1-.54.37l-1.34.17c-.13,0-.29-.09-.48-.31s-.33-.33-.42-.32-.16,0-.16.06v0s0,.07-.12.08c-.32.05-.81-.19-1.48-.7q-1.29-1-1.41-1.05a7.65,7.65,0,0,0-.75-1.48,5.78,5.78,0,0,1-.55-1.75c0-.16-.19-.21-.49-.17q-1-6.51-2.13-13c0-.15,0-.24.07-.27a.17.17,0,0,0,.14-.1c0-.2-.07-.44-.12-.73-.25-1.53-.56-3.67-.92-6.45.18-.46.77-.77,1.77-.91a3.5,3.5,0,0,1,2.1.17,3.22,3.22,0,0,0,.77,1.26c0,.13-.18.32-.58.58,0,.09,0,.26.07.5s.07.44.09.6.08.59.13.9h0c-.08,0-.1.11-.07.28s.13.71.26,1.27.22,1,.28,1.23a2.53,2.53,0,0,1,.27.44,2.84,2.84,0,0,0,0,1.26,3.8,3.8,0,0,0,.43,1.13,3.59,3.59,0,0,1,.41,1.06q0,.1.54,5.79.16,1.47.45,4.41a1.33,1.33,0,0,0-.12.6c0,.13,0,.2.1.2a.09.09,0,0,1,.08.08c0,.11,0,.23,0,.36a1.27,1.27,0,0,0,.75,1.12,1.82,1.82,0,0,1-.31.52,1.8,1.8,0,0,0,.3.5c.25-.15.61-.4,1.09-.76a.89.89,0,0,1-.09.35.54.54,0,0,0,0,.37,2.38,2.38,0,0,0-.45,0,1.07,1.07,0,0,0-.27.07,1.76,1.76,0,0,0,.8.3,1.57,1.57,0,0,1,.89.46c.26-.32.37-.58.32-.78a.78.78,0,0,0,.31,0,1.17,1.17,0,0,0,.53-.24l-.28,0c0-.19,0-.37-.07-.56l.39-.22c0,.1,0,.24,0,.44l.09.17a8.24,8.24,0,0,1,.89-.71.67.67,0,0,0-.31-.27l-.38.34a.74.74,0,0,1-.21-.31,3.48,3.48,0,0,0,1-3.05s-.18-.88-.54-2.57q-.37-1.73-1-5.19l0-.17c0-.29-.06-.69-.08-1.2s0-.9-.08-1.14c0,0,0-.06-.13-.09a.33.33,0,0,1-.14-.26s0-.09.15-.13a.21.21,0,0,0,.14-.24,3.11,3.11,0,0,0-.28-.84,3,3,0,0,1-.29-.85,4.57,4.57,0,0,1,.39-2.78,1,1,0,0,0-.53-.21c-.14-1.18-.28-2.36-.43-3.53a1.68,1.68,0,0,1,.23-.69c.17-.34.3-.53.4-.57a10.8,10.8,0,0,1,2.11-.49,1.63,1.63,0,0,1,1.34.51c0,.09.26,1.87.73,5.33.06.65.3,1.95.69,3.91l0,.07a.84.84,0,0,1-.09.38.74.74,0,0,0-.1.38v.06l.5.56C89.54,147.47,89.66,148.67,89.77,149.87Zm-8.71,8.61-.41-.15c0,.07-.05.14-.07.21l.44.15Zm4.63,2.31c0,.13-.09.26-.13.39l-.25,0c.06-.14.11-.28.16-.42Zm.7-16.89,0-.27-.45.05,0,.26Z"/><path class="cls-1" d="M114.6,160.5a2.07,2.07,0,0,1-1.26.42,1.33,1.33,0,0,1-.61-.28.43.43,0,0,0-.34,0,1.48,1.48,0,0,1-.45.09,1,1,0,0,1-.77-.58,1.93,1.93,0,0,1-.3-.71.61.61,0,0,0,.14-.1.38.38,0,0,0,.07-.27,9.13,9.13,0,0,0-.46-2l.36-.47-.24-.2a1,1,0,0,0-.15.22q-.11.18-.21.18a4.29,4.29,0,0,0,.3-1.48s-.14-.43-.43-1.24-.47-1.42-.57-1.82a12.66,12.66,0,0,0-.56-2.29c-.38-.94-.92-1.41-1.63-1.41a3.12,3.12,0,0,0-.61.14,2.53,2.53,0,0,1-.69.14s0,.15.08.37a1.3,1.3,0,0,0-.39.74,4.53,4.53,0,0,1,.19,1,1,1,0,0,1-.14.5,1,1,0,0,0-.14.51,37.45,37.45,0,0,0,.34,4.09,3,3,0,0,1,0,.61c0,.35,0,.6,0,.73a1.59,1.59,0,0,0,.64,1.34,1,1,0,0,1-.27.51,1.37,1.37,0,0,0,0,1,1.38,1.38,0,0,1-.63.73,1.92,1.92,0,0,1-1,.4,3.18,3.18,0,0,1-1.75-.47c-.11-.06-.25-.39-.4-1l-.32-.46c.06-.14.14-.33.22-.58-.06-.49-.18-2.06-.35-4.72a.72.72,0,0,0-.22-.2,2.55,2.55,0,0,0,.25-1.15q0-1.44-.21-4.44c-.11-2-.19-3.52-.22-4.55,0-1.21-.11-2.36-.22-3.45,0-.69-.14-1.75-.26-3.18a1.16,1.16,0,0,1-.29-.5c-.05-1.45.48-2.2,1.6-2.23a1.77,1.77,0,0,1,.43.06,1.77,1.77,0,0,0,.43.06.64.64,0,0,0,.38-.23.66.66,0,0,1,.43-.22,11.87,11.87,0,0,1,1.39.19q1.18.21,1.38.21a1.25,1.25,0,0,0,.57-.22,1.25,1.25,0,0,1,.64-.22c.16,0,.33.14.51.4.39,0,.89,0,1.52.11a11.52,11.52,0,0,0,1.51.46,7.36,7.36,0,0,0,1.37,1.2,21.75,21.75,0,0,0,1.39,2.39c-.1-.09-.19-.1-.27,0a6.34,6.34,0,0,0-.19,1.37,1.12,1.12,0,0,0,.22.31,24,24,0,0,1-.31,4,11.56,11.56,0,0,1-1.66,3.28,1,1,0,0,0-.41.29,37.35,37.35,0,0,0,1.21,4.19,3.73,3.73,0,0,0,.11,1.22,12.84,12.84,0,0,1,.24,1.38q.84,2.32,1.63,4.65A1.52,1.52,0,0,1,114.6,160.5Zm-3.1-16.94a1.76,1.76,0,0,1-.58-1.36,5.84,5.84,0,0,1,.2-1.27c-.17-.27-.24-.45-.22-.54a.43.43,0,0,0,.24-.63l-.59-1.22c-.33-.58-.67-.88-1-.88-.15,0-.22,0-.19.08s0,.09-.16.09a.25.25,0,0,1-.24-.22c0-.15-.27-.22-.68-.22a7,7,0,0,0-2.26.48,2,2,0,0,0-1,1.39,11.73,11.73,0,0,0-.15,2.62,7.85,7.85,0,0,0,.57,2.58c.15.17.37.45.67.83a6.63,6.63,0,0,0,2,.36,3,3,0,0,0,1.7-.67C110,144.87,110.52,144.39,111.5,143.56Zm-.17,12.89-.21-.08-.21.37.24.07Zm.59-.1c0-.12,0-.24,0-.36h-.24c0,.12,0,.25,0,.37Z"/><path class="cls-1" d="M140.5,150a1.37,1.37,0,0,0-.62-.3,1.92,1.92,0,0,0-.48,0c.4.26.57.45.5.55l-1.14,7.16a16.1,16.1,0,0,0-.09,2.23,17.49,17.49,0,0,1-.11,2.33c-.1.64-.3,1-.58,1.15a2.88,2.88,0,0,1-1.43,0,3.17,3.17,0,0,1-1.19-.5,1.72,1.72,0,0,1-.79-.87,21.71,21.71,0,0,1-.2-2.3,13.24,13.24,0,0,1-.49-2.16c-.07-3-.92-4.56-2.54-4.74-.12,0-.31.1-.58.34s-.33.36-.49.52a.73.73,0,0,1,0,.34,1.06,1.06,0,0,1-.45.79l-.77.53s.07,0,.14,0a1.44,1.44,0,0,0,.47-.07,1.44,1.44,0,0,1,.5-.06c-.23,2.07-.47,4.13-.7,6.2a2.4,2.4,0,0,1-.43.8,5.52,5.52,0,0,1-1,0c-.93-.1-1.47-.16-1.62-.19a1.1,1.1,0,0,1-.82-1.22q1.27-12.94,2.66-25.86l.18.15.17-.08a.9.9,0,0,0,.27.06,6,6,0,0,0,.92,0,6.8,6.8,0,0,1,.89,0c-.21,0,.25.09,1.37.35a2.7,2.7,0,0,1,.93,2.06l0,.3c0,.15-.07.26-.08.33a3.35,3.35,0,0,0,.06,1.09,2,2,0,0,0,.21.39.93.93,0,0,1,.15.49.53.53,0,0,1-.33.46l-.6.25a.3.3,0,0,0,.22.09,2.93,2.93,0,0,0,.5,0,4.71,4.71,0,0,1,.72,1.81c.26.93.45,1.41.58,1.42a.44.44,0,0,0,.3,0l.12-.05c0,.07-.13.18-.38.33.17.2.4.5.67.89a1.13,1.13,0,0,1,.14-.22s.12-.05.27,0,.18,0,.18.06v.07a.28.28,0,0,0,.15.05c.19,0,.27-.06.22-.24.07,0,.25.18.53.51.2-.22.5-.52.88-.9a12.86,12.86,0,0,0,.59-2,2.47,2.47,0,0,0,0-.73,3.16,3.16,0,0,1,0-.77v-.07a1.59,1.59,0,0,0,.55-.33.45.45,0,0,1,0-.28c0-.19.18-.35.46-.47l-.05.06c-.08.53.25.85,1,1h.54a1.08,1.08,0,0,1,.29.11l.42-.68c.46.52.67.89.63,1.08a1.87,1.87,0,0,1-.2.52,2.41,2.41,0,0,0-.2.51,2.92,2.92,0,0,0-.47-.18.84.84,0,0,0-.31,0s.07.1.06.21.07.18.22.2a.66.66,0,0,0,.31,0,.82.82,0,0,1,.2,0,.34.34,0,0,0-.07.2,1.48,1.48,0,0,0,0,.35q0,.25,0,.39a.91.91,0,0,1-.5.7l-.84,5.21A3.83,3.83,0,0,0,140.5,150Zm-9.26-5.33-.42-.25a2.29,2.29,0,0,0-.1.23l.38.21Zm2.41,11.48a.94.94,0,0,1-.43.08s0-.08,0-.17l0-.2a.86.86,0,0,1,.11-.33C133.56,155.84,133.67,156.05,133.65,156.16Zm4.46,1.81.07-.5-.41-.57a.55.55,0,0,1-.31-.18.49.49,0,0,0-.2-.17c0,.07-.08.1-.2.11l-.37-.09a1,1,0,0,0-.29,0,6.67,6.67,0,0,1,.11-1l0-.11h0a.21.21,0,0,1-.16-.1l.27-.16a1.32,1.32,0,0,1,.28,1.23,3.09,3.09,0,0,0,.52-.84c.12,0,.17.07.16.16a1,1,0,0,1-.09.19.87.87,0,0,0-.08.19,1.38,1.38,0,0,0,.58-.29.37.37,0,0,1-.14,0c-.17,0-.2-.23-.09-.62a.46.46,0,0,0-.24.08.52.52,0,0,1-.28.08c-.05,0-.08,0-.1,0a3.94,3.94,0,0,1,.82-.69,1.3,1.3,0,0,0,.32.45,2.89,2.89,0,0,0,.39-.65,2,2,0,0,1-.55.09l-.2-.14c.23-.05.35-.15.37-.28.05-.29.05-.39,0-.3a.51.51,0,0,1-.37.08c-.26,0-.37-.18-.33-.43a2.54,2.54,0,0,1,.11-.4,2,2,0,0,0,.12-.41.83.83,0,0,0,.38.33l-.06.4a.91.91,0,0,1,.18-.33,1.08,1.08,0,0,0,.19-.4l-.62-.26c0-.21.07-.42.1-.63l.29-.23a2.32,2.32,0,0,0,.47.48,2.41,2.41,0,0,1-.25-.69c.34-1.42.5-2.06.48-1.93l0-.16a1.84,1.84,0,0,1-.31.12.49.49,0,0,1-.13-.12,3,3,0,0,0,.41-.6,3.77,3.77,0,0,1,.41-.64,1.39,1.39,0,0,1-.28-.55.9.9,0,0,1-.68.07c-.37-.05-.59-.14-.67-.26a.82.82,0,0,1,0,.27,1.36,1.36,0,0,1-.67.94c-.4.25-.77.49-1.13.74a1,1,0,0,1,.48.4c.13.2.24.4.34.59a3,3,0,0,1-.46.14.14.14,0,0,1,.06.11c0,.11-.16.26-.43.45a3.79,3.79,0,0,0-.57.43c0,.17-.05.34-.07.5a.5.5,0,0,1,.27.14,1.06,1.06,0,0,0-.5.44,1.25,1.25,0,0,1-.27.37c.47.49.68.87.64,1.14,0,.11-.25.32-.7.65.26.17.36.53.28,1.09a1,1,0,0,1-.38.72c.25,0,.41.24.48.61a.74.74,0,0,0,.69.64c.09,0,.25-.07.49-.24a.63.63,0,0,1,0,.31c0,.09.05.14.19.16l.73.1c0-.28.13-.42.27-.4a3.5,3.5,0,0,0,.28.49A.84.84,0,0,1,138.11,158Zm-2.93.73a2.51,2.51,0,0,1,0-.27l-.73-.1a2.51,2.51,0,0,1,0,.27Zm1-4.87-.14.18-.47-.23,0-.24Zm6.38-16.44a5.18,5.18,0,0,1-.23.77,4.8,4.8,0,0,0-.23.76l-.38,0a1.92,1.92,0,0,1-.43-.13,2.14,2.14,0,0,0-.39-.13c-.35,0-.58,0-.67.07s0,.23-.09.57a.69.69,0,0,1-.18.36.77.77,0,0,0-.14.2c0,.07,0,.09.1,0a1.86,1.86,0,0,1-1-.75,1.32,1.32,0,0,0,.23-.21l-.06-.11a2.42,2.42,0,0,0-.49.24.77.77,0,0,0-.19.41,3.08,3.08,0,0,1-.27-1.6q.17-1.1.75-1.35a3.7,3.7,0,0,1,1.78,0A3.32,3.32,0,0,1,142.61,137.39Zm-6.45,19.14-.48.1,0-.2.37-.12C136.11,156.39,136.13,156.46,136.16,156.53Zm.65-2.72-.39-.06,0-.23.39,0Zm0-.81-.25,0c0-.17.06-.35.08-.53l.25,0Zm1-4.13-.44-.06,0-.27.44.06C137.9,148.69,137.88,148.78,137.87,148.87Zm.63-3.44c0-.17.06-.35.08-.53l-.29,0c0,.18-.06.35-.08.53Zm.05,2.59-.68.1,0-.23.58-.09C138.5,147.88,138.53,148,138.55,148Zm1.93-3.85A1.27,1.27,0,0,0,140,144a3.37,3.37,0,0,0-.56,0l.3.22c-.14.09-.21.16-.22.2a.31.31,0,0,0,.09.15.22.22,0,0,1,.17-.07.27.27,0,0,1,.09.15l-.48.13v0a.93.93,0,0,0,0,.24,1,1,0,0,0,0,.2q0,.11-.24.3a1.4,1.4,0,0,1-.28-.41.56.56,0,0,1-.24.35c-.14.13-.22.2-.22.23.74,0,1.22-.13,1.43-.5S140.27,144.5,140.48,144.17Zm-1.73,4.76-.22,0c0-.18-.07-.35-.1-.53l.23-.06Zm3-9.73q-.12.72-.54.66c-.28,0-.42,0-.43,0a.38.38,0,0,0,.09.18.77.77,0,0,0-.55-.19l.3-.7a.68.68,0,0,0,.3.11A1.86,1.86,0,0,0,141.76,139.2Zm-3.48,19.92-.21-.27-.16.14.18.23Z"/><path class="cls-1" d="M167.16,144.31c-.36,1.2-1,1.68-1.8,1.45a5.62,5.62,0,0,1-.81-.36c-.42-.2-.68-.32-.78-.35a1.79,1.79,0,0,0-1.08,0,12.47,12.47,0,0,0-1.22.66.49.49,0,0,0,0,.33.83.83,0,0,1,0,.3c-.24,0-.5-.22-.78-.61-.24.21-.25.42,0,.61a3.36,3.36,0,0,1-.1.5c-.29,0-.44.06-.46.12l.18.29a.84.84,0,0,1,.56-.14,3.47,3.47,0,0,1-.94.6s0,.11.06.22c.28.07.45,0,.51-.25a.73.73,0,0,0,.12.32,2,2,0,0,1,.15.34,3.1,3.1,0,0,1-.32.85,5,5,0,0,0-.38.91c.08.16.18.38.31.67,0,.22-.14.69-.33,1.4-.41,1.51-.81,3-1.21,4.52a2,2,0,0,1-.28.53,1.54,1.54,0,0,0-.28.5,1.62,1.62,0,0,0,0,.55.93.93,0,0,1-.21.92,2.32,2.32,0,0,1-.12,1c-.14.66-.22,1-.23,1.16a1,1,0,0,1-.21.46,2.3,2.3,0,0,0-.28.59,1.32,1.32,0,0,0,0,.46c0,.21.06.36.06.43a11.3,11.3,0,0,1-.27,1.46c-.4,1.53-1,2.2-1.82,2-.11,0-.44-.09-1-.18l-1-.17a1.06,1.06,0,0,1-.76-.91,2.52,2.52,0,0,1,0-1.28q2.66-9,5.54-18c.27-1.06.27-1.69,0-1.87a12.72,12.72,0,0,0-1.14-.78,10,10,0,0,0-1.15-.11,11.23,11.23,0,0,1-1.15-.1c-.79-.17-1-1-.71-2.39a3.53,3.53,0,0,1,.61-1.27c.4-.56.82-.79,1.28-.69a2,2,0,0,1,.49.2,2.25,2.25,0,0,0,.46.19,2.23,2.23,0,0,1,.56.24,2.07,2.07,0,0,0,.52.24l2.12.5a1.94,1.94,0,0,0,.22.54,8.35,8.35,0,0,1,1-.13,4.76,4.76,0,0,0,1.21.45,22.33,22.33,0,0,0,2.3.42l1.35.19c.75.2,1.19.54,1.33,1A2.86,2.86,0,0,1,167.16,144.31ZM160.38,142l-.56.19-.43.12-.31-.35c.16.5.26.87.31,1.11A9.32,9.32,0,0,1,160.38,142Zm.3,1.59c0-.08,0-.17.07-.26l-.94-.23-.06.26Zm-3.86,15-.06-.22-.72.13-.06.23Zm3.29-14.45.13-.52-.3-.07c0,.17-.09.34-.13.52Zm-.19,2.65c0-.17.09-.34.13-.52l-.29-.07c0,.17-.09.35-.14.52Zm2.16-4.1.18-.68a1.85,1.85,0,0,1-1.32,0Zm-.54.21s-.28.11-.76.33c.07,0,.14.11.2.28l.12.29a2.83,2.83,0,0,1,.22-.45A1.72,1.72,0,0,0,161.54,142.84Z"/><path class="cls-1" d="M83.6,172.09a.92.92,0,0,1-.28.2,1.35,1.35,0,0,1-.28,0l-.25,0-.27,0s-.08,0-.09,0l0-.09a1.11,1.11,0,0,0-.18-.67.65.65,0,0,0-.58-.43.72.72,0,0,0-.63.37,1.05,1.05,0,0,0-.15.63,1.05,1.05,0,0,1,0,.18.68.68,0,0,0,0,.2,1.06,1.06,0,0,0,.14.58,1.68,1.68,0,0,0,.26.36s0,.1-.08.17.09,0,.19,0a1.9,1.9,0,0,0-.15.15c-.09.09-.15.14-.2.14l-.11,0s0,0,0,0a.12.12,0,0,0,0,.11l.63-.3c0,.08,0,.13,0,.15a.19.19,0,0,0,0-.1,7.73,7.73,0,0,1,.81.67,14.74,14.74,0,0,1,1,1.26.23.23,0,0,1,0,.2l.16.2a1.85,1.85,0,0,0,0,.51l.05.39a.59.59,0,0,1-.05.14.5.5,0,0,0,0,.16.08.08,0,0,0,.07.09,3.46,3.46,0,0,0-.21,1,.65.65,0,0,0-.23.22,2.27,2.27,0,0,1-.23.28l.07.11a.41.41,0,0,1-.19,0,.62.62,0,0,1,0,.11c0,.07-.06.1-.1.1H82.1l-.08.07a.21.21,0,0,1-.15.07l-.43,0-.43,0a1.52,1.52,0,0,1-.66-.16,2.39,2.39,0,0,1-.48-.37,1.61,1.61,0,0,1-.52-1.24.79.79,0,0,1,.11-.5c.07-.1.23-.14.48-.14a.76.76,0,0,1,.27,0,1.45,1.45,0,0,1,.35.2,6,6,0,0,0,.23.66c.16.24.27.35.35.35a.47.47,0,0,1,.16.05.35.35,0,0,0,.16.06.17.17,0,0,0,.12-.06.24.24,0,0,1,.13-.05.12.12,0,0,1,.11.08s.05.07.06.07.08-.06.08-.1,0-.05-.09-.05h.06c.09-.13.17-.27.25-.41a1,1,0,0,0,.15-.45.41.41,0,0,0-.1-.29.62.62,0,0,0,.1-.17,3,3,0,0,1,0-.54,2,2,0,0,0-.2-.35l-1-1.09.08-.29a.24.24,0,0,0,0,.15h.09a.38.38,0,0,0,.07-.19.56.56,0,0,1,.05-.18l0,0a.92.92,0,0,1-.25-.1s0,0,.08-.08a.49.49,0,0,0,.13-.1l-.13-.22,0,0s0,.06,0,.08,0,0,.13,0a.36.36,0,0,1-.33,0l-.14.14a.28.28,0,0,0,.15,0c-.07.08-.08.14,0,.18a.74.74,0,0,1-.3,0q-1-.47-1-2.4a2.91,2.91,0,0,1,0-.49,2.72,2.72,0,0,0,.14-.36L80,171l-.15-.11.06-.06a.14.14,0,0,1,.12-.06c.09,0,.14,0,.14,0a.56.56,0,0,1,.16-.46,1.51,1.51,0,0,1,.52-.3,1.91,1.91,0,0,1,.65-.14l.39,0c0,.06,0,.09.08.09s.07,0,.06-.06,0-.05.05-.05a3,3,0,0,1,.55.3,3.7,3.7,0,0,1,.58.4,2.1,2.1,0,0,1,.15.3c.1.19.2.29.28.3ZM80.22,171l-.14-.13a.33.33,0,0,1-.12.23l.13-.05A.35.35,0,0,1,80.22,171Z"/><path class="cls-1" d="M93.22,178.88a.62.62,0,0,1-.33.3,3,3,0,0,0-.32-.33.32.32,0,0,1,.1-.11.47.47,0,0,0,.1-.09l-.09-.08-.09,0-.1,0-.07,0,.29-.13A2.39,2.39,0,0,0,93.22,178.88Zm-.51-1.71h-.19v-.08h.19Zm.18.33-.12.17-.06,0,.11-.18Zm.11.7s0,0,0,.1,0,.12-.08.12h-.14l.12-.14A.19.19,0,0,1,93,178.2Zm-.13-.13-.14.06v-.07l.12-.06Zm.9-1.07a.32.32,0,0,0-.18-.16l-.27-.12a1.17,1.17,0,0,1,.16.25l-.09.1h-.12a.35.35,0,0,1,0-.06.35.35,0,0,0-.06-.16.61.61,0,0,1-.07-.15V177a.38.38,0,0,1-.07.22H93a.12.12,0,0,0-.1,0,1.71,1.71,0,0,1,.3.1l-.15.1a.24.24,0,0,1,.07.12c.06-.05.1-.08.14-.08h0c0,.05-.09.15-.26.31l.26,0a.38.38,0,0,0,.22-.1l.12.1-.14-.31a.14.14,0,0,0,.07-.12.79.79,0,0,0,0-.17l-.14,0a.22.22,0,0,1-.09-.08s0,0,.1-.08a.21.21,0,0,1,.12,0c.09,0,.12,0,.12,0l0-.08a.13.13,0,0,1,0-.07A.17.17,0,0,0,93.77,177Zm-.53-1.61h-.09v-.14h.09Zm4.47,3.3a1.67,1.67,0,0,0,0,.51v.06a.71.71,0,0,1-.37.11s-.07,0-.08-.05a.08.08,0,0,0-.07,0s-.06,0-.06,0a.06.06,0,0,1-.06,0s0,0,0-.08,0,0,0,0-.05,0-.05.07,0,0-.06,0a.47.47,0,0,1-.41-.22s-.07-.33-.18-.9-.22-.7-.41-.7a.09.09,0,0,0-.08.05s0,.05-.07.05-.06,0-.1-.07-.06-.08-.1-.08h-.06v0s0,0-.06,0h0s0,0,0,0a0,0,0,0,0,0,0l0,0a.89.89,0,0,1-.46-.29.46.46,0,0,0-.08.34h-.14a.24.24,0,0,1-.18-.06.61.61,0,0,1-.12.16.32.32,0,0,1,0-.13.26.26,0,0,1,0-.11.58.58,0,0,0,0-.1s0-.08-.08-.13l-.23,0-.21,0s0-.08.14-.18v-.06a.07.07,0,0,0,0-.06.38.38,0,0,1-.11.09.26.26,0,0,1,.09-.16.17.17,0,0,0-.12-.06l-.07,0s0-.07.09-.12l-.18-.13a.27.27,0,0,0,0,.2.28.28,0,0,0-.13-.06.54.54,0,0,1,.14-.16.44.44,0,0,0-.17-.16l-.18-.14.06-.12a.22.22,0,0,1,.12.06l.13.08.08-.13s-.12-.13-.38-.28h0l.08-.12a.45.45,0,0,1,.16-.56l-.17-.12a.21.21,0,0,0,0,.15l-.14-.08a1.48,1.48,0,0,0,.35-.2l-.07-.07a.11.11,0,0,0-.06.07,2.35,2.35,0,0,1-.1-.27l.16.15a.29.29,0,0,0,0-.1s0,0,.07,0,.07,0,.07,0,0,0,0,0a.61.61,0,0,1,.09-.13l-.08-.07-.26.15a.73.73,0,0,1-.11-.15.25.25,0,0,1,.17,0l.07-.08v-.06a.09.09,0,0,0,0-.05.19.19,0,0,1-.12,0,3.15,3.15,0,0,0-.1-.38,2.69,2.69,0,0,1,.39-.3v-.39a.27.27,0,0,0-.19,0c0-.14.09-.3.15-.47a.22.22,0,0,0,0-.1s0,0,0-.07a.72.72,0,0,0-.15-.07.51.51,0,0,1,.25-.31.4.4,0,0,1-.15-.25,3.81,3.81,0,0,1,.16-.79,4.33,4.33,0,0,0,.19-.84l.65-.2a2.65,2.65,0,0,1,.66-.11c.18,0,.37.39.56,1.19l1.41,6c.06.29.12.58.17.86C97.49,178.41,97.6,178.65,97.71,178.69Zm-4.32-2.22-.07.14-.07,0,.07-.13Zm0-2.85h-.07l-.07-.12.08,0Zm.23,1.7a.4.4,0,0,1-.12-.07l-.16.22Zm0-1.35a.3.3,0,0,1-.11-.18s-.08.06-.08.19Zm.06-1.72,0-.05-.13.12,0,.06Zm.09,5.27-.2.06v-.08l.18-.06Zm.21-1.28-.13.13,0-.06.13-.12Zm.14.45a.31.31,0,0,1-.11-.23h-.19A1.07,1.07,0,0,0,94.13,176.69Zm1.56-.85a4.36,4.36,0,0,0-.23-1.18c-.2-.59-.4-.88-.62-.88s-.46.31-.57.94a3.19,3.19,0,0,1-.39,1.31l.3.24-.1.11.22.13.12-.11a2.29,2.29,0,0,1,.36,0,1.64,1.64,0,0,0,.36.06.48.48,0,0,0,.37-.24A.72.72,0,0,0,95.69,175.84Zm-.64-2.68,0,0-.12.12,0,.06Zm.21,4.14h-.08l-.06-.12.07,0Zm.61,0h-.1v-.18h.1Z"/><path class="cls-1" d="M110.8,175.17c-.13.05-.2.19-.2.43a1.19,1.19,0,0,0,.07.34,1.39,1.39,0,0,1,.06.28l0,.12a.43.43,0,0,0,0,.14v.24a5.07,5.07,0,0,1,0,.54,3.21,3.21,0,0,0,0,.53V178c-.07.17-.17.42-.32.72a1.52,1.52,0,0,1-.46.45,1.11,1.11,0,0,1-.6.24s-.06,0-.07,0a.06.06,0,0,0-.06,0,.4.4,0,0,0-.2.1.44.44,0,0,1-.2.11h-.46s-.1,0-.15-.13-.1-.13-.13-.13h-.06s0,0,0,0-.26-.11-.46-.32l-.42-.43a4.54,4.54,0,0,0-.18-.55,2.08,2.08,0,0,1-.09-.63c0-.05-.05-.08-.15-.08v-4.58q0-.08,0-.09a0,0,0,0,0,0,0v-.25c0-.54,0-1.29,0-2.26.07-.15.26-.23.56-.23a1,1,0,0,1,.62.17,1,1,0,0,0,.17.46c0,.05-.07.11-.2.18v.7h0s0,0,0,.09,0,.25,0,.45,0,.34,0,.44a.53.53,0,0,1,.06.16,1,1,0,0,0-.07.43,1.61,1.61,0,0,0,.08.41,1.21,1.21,0,0,1,.08.39s0,.69-.08,2c0,.34,0,.86-.06,1.54a.59.59,0,0,0-.07.2c0,.05,0,.07,0,.07s0,0,0,0v.13a.46.46,0,0,0,.2.42s0,.07-.13.17a.62.62,0,0,0,.08.18l.4-.21a.42.42,0,0,1,0,.12.28.28,0,0,0,0,.13l-.15,0H108a.47.47,0,0,0,.25.14.56.56,0,0,1,.28.2c.1-.1.15-.18.14-.25l.11,0a.38.38,0,0,0,.18-.06l-.09,0v-.2l.14-.06,0,.15,0,.06.33-.21c0-.05-.07-.09-.1-.1l-.14.1a.24.24,0,0,1-.06-.11,1.23,1.23,0,0,0,.45-1s0-.31-.08-.91c0-.4-.09-1-.14-1.83v-.06c0-.1,0-.24,0-.42a3.3,3.3,0,0,0,0-.39l0,0s0,0,0-.09,0,0,0,0a.08.08,0,0,0,.06-.08,1.11,1.11,0,0,0-.06-.3,1.11,1.11,0,0,1-.06-.3,1.78,1.78,0,0,1,.22-1,.3.3,0,0,0-.15-.09v-1.24a.61.61,0,0,1,.09-.22c.06-.12.11-.18.14-.19a2.94,2.94,0,0,1,.64-.09.5.5,0,0,1,.39.22s0,.66.06,1.87c0,.22,0,.68.09,1.37v0a.3.3,0,0,1,0,.13.24.24,0,0,0,0,.12v0l.14.21Zm-3.17,2.62-.13-.07,0,.07.14.07Zm1.44,1,0,.13-.09,0,.07-.14Zm.86-5.8v-.1h-.14v.1Z"/><path class="cls-1" d="M123.88,177.77a.78.78,0,0,1,0,.14.27.27,0,0,0,0,.08v.07a5.55,5.55,0,0,0-.45.63,1.37,1.37,0,0,1-.47.47,2.85,2.85,0,0,1-1.19.21,2.42,2.42,0,0,1-.5-.2c-.29-.14-.47-.22-.53-.26a1,1,0,0,1-.3-.41,3.12,3.12,0,0,1-.26-.3,2.07,2.07,0,0,1-.16-.8v-1.31a.54.54,0,0,0,0-.2s0-.09.07-.16v-.37a2.33,2.33,0,0,0,0-.39.56.56,0,0,0-.14-.34.13.13,0,0,1,.14,0s0,0,.07-.05l.11-.08-.07,0a.34.34,0,0,0,0,.13s0,0,.06-.06l.1-.08c0-.11,0-.16-.1-.16a.54.54,0,0,0-.19,0s0-.08,0-.15,0,0,.08-.07l.11-.09a.23.23,0,0,0-.19,0,3.52,3.52,0,0,1,0-.46.49.49,0,0,0,0-.1,2.53,2.53,0,0,1,0-.28.38.38,0,0,1,.15-.29v-.28q-.12-.12-.15-.09a.5.5,0,0,0,.09-.22.23.23,0,0,0-.08-.14.22.22,0,0,1-.07-.17,3.59,3.59,0,0,1,.16-1,1.71,1.71,0,0,1,1.26-1.11.6.6,0,0,0,.27-.05l.74,0a.79.79,0,0,1,.43.21,1.46,1.46,0,0,0,.5.27l.39.53a1.13,1.13,0,0,1,.18.67.42.42,0,0,1-.19.35.75.75,0,0,1-.38.13,1.55,1.55,0,0,1-.61-.21v-.11c0-.15-.12-.31-.37-.48a1,1,0,0,0-.45-.21.25.25,0,0,0-.15.05l-.09-.09a1.54,1.54,0,0,0-.21.28s-.08,0-.16.07a.65.65,0,0,0-.16.18,1.42,1.42,0,0,0-.1.57s0,.25.08.67.09.74.09.89a8.78,8.78,0,0,0,0,.88c0,.07,0,.22,0,.46a4.45,4.45,0,0,0,0,.52,2.84,2.84,0,0,0,.06.48,2.24,2.24,0,0,0-.11.73,4.66,4.66,0,0,0,.16,1.16,1.24,1.24,0,0,0,.54.2.67.67,0,0,0,.32-.06.53.53,0,0,0,.3-.46v-.08c.07,0,.14-.05.22-.15a.45.45,0,0,1,.2-.18,6,6,0,0,1,.75,0c.12,0,.24.12.36.37A1.17,1.17,0,0,1,123.88,177.77Zm-3.52-2.88a.3.3,0,0,0-.22-.06s0,0,0,.11A.3.3,0,0,1,120.36,174.89Zm0,.51-.13-.07,0,.08.13.06Zm.12.83-.07,0-.07.13.07,0Zm.28-1.67s-.06,0-.12.08a.26.26,0,0,0-.17-.09.4.4,0,0,0,.06.13l0,.11a.39.39,0,0,0,.09-.11A.5.5,0,0,1,120.71,174.56Zm.05-.4v-.09h-.24v.09Zm2-3.1v-.18h-.1v.18Z"/><path class="cls-1" d="M137.3,178.72a.54.54,0,0,0-.14.13,1.92,1.92,0,0,1-.11.41.32.32,0,0,1-.32.22.59.59,0,0,1-.22-.08.55.55,0,0,0-.21-.07.31.31,0,0,0-.17.11l-.1-.11h-.26a3.25,3.25,0,0,1-.44-.05,2.48,2.48,0,0,0-.43-.06c-.06,0-.08,0-.06.11s0-.05-.11-.11a.63.63,0,0,1-.43.15l-.24,0a.53.53,0,0,0-.26,0v0s0-.08-.1-.08a.07.07,0,0,0-.07,0s0,.05-.06.05a.52.52,0,0,1-.19-.05,1,1,0,0,0-.26,0l-.23-6.8a9.38,9.38,0,0,0-.08-1.14c0-.47-.07-.7-.07-.71a1.38,1.38,0,0,1,.21-.57.61.61,0,0,1,.28,0l2.53-.08.28,0a1.3,1.3,0,0,1,.29,0,.71.71,0,0,1,.59.22,1.35,1.35,0,0,1,.11.64.67.67,0,0,1-.12.46.58.58,0,0,1-.44.14l-1,0-1.05,0c-.08,0-.18.1-.28.29a.94.94,0,0,0-.16.41.11.11,0,0,0,.08.1,7.5,7.5,0,0,1,0,1,.25.25,0,0,1-.06.17,2.14,2.14,0,0,1,.05.55q.07.09.12.09a.14.14,0,0,0,.09,0l.09,0a.27.27,0,0,1,.16.08.22.22,0,0,0,.15.08l.7,0c.31,0,.55,0,.7,0s.32.18.32.54a1.7,1.7,0,0,1,0,.54c-.05.14-.2.21-.43.21l-.41,0-.41,0a2.91,2.91,0,0,0-.42.08,1,1,0,0,0-.38.13,1.77,1.77,0,0,0-.14.46c0,.26-.08.42-.08.46a.78.78,0,0,1,0,.26,2.93,2.93,0,0,1-.12.65v0l0,.08a.84.84,0,0,0,0,.1,1.06,1.06,0,0,0,.09.3,1.71,1.71,0,0,1,.1.32l-.07.06v.19l.06,0a.2.2,0,0,0,0,0s0-.05,0-.08a.25.25,0,0,1,0-.07h.19a1.84,1.84,0,0,1,.15.47.13.13,0,0,0,.06-.11.19.19,0,0,1,0-.1s0,0,0,.08a.4.4,0,0,0,0,.12l.11-.1v.06a.16.16,0,0,0,.05.14l.17-.07-.09,0v-.2s.09,0,.15-.1.1-.1.1-.11v.24a.21.21,0,0,0,0,.12.47.47,0,0,0,.09-.19c.23-.07.37-.16.42-.28a.57.57,0,0,0,.08.13.16.16,0,0,0,.13.06.3.3,0,0,0,.14-.05l.1,0a2.44,2.44,0,0,1,.74-.09c.12,0,.21.11.28.33S137.23,178.7,137.3,178.72Zm-3.41.21-.07-.08,0,.05.08.08Zm.69.21a.28.28,0,0,1-.17-.1.29.29,0,0,1,.15-.06.11.11,0,0,0,0,.08C134.54,179.11,134.55,179.14,134.58,179.14Zm.24,0h-.2c0-.1,0-.15.08-.15Z"/><path class="cls-2" d="M136.9,123.92l0,0a2.59,2.59,0,0,0-.42-.6,8.39,8.39,0,0,0-.84-.77c-.57-.45-1.14-.86-1.72-1.26-1.15-.79-2.32-1.54-3.48-2.29-2.33-1.49-4.64-3-6.95-4.56l-.38-.26.43-.27.9-.6.45-.32a5.09,5.09,0,0,0,.47-.34c.63-.48,1.17-.94,1.72-1.44s1.07-1,1.58-1.53,1-1.07,1.47-1.63.92-1.15,1.34-1.77a18.58,18.58,0,0,0,2.13-4,14.15,14.15,0,0,0,.61-2.28,9.72,9.72,0,0,0,.12-1.21v-.3c0-.1,0-.24,0-.34a5.69,5.69,0,0,0-.08-.63,11.56,11.56,0,0,0-.62-2.21c-.13-.34-.27-.67-.43-1,.32-3.91,3.19-13.35.61-10.67-.23,2-2.43,4.43-4.83,6.24a3.36,3.36,0,0,0-1.51-.06,4.13,4.13,0,0,0-1,.32,6.46,6.46,0,0,0-1,.53c-.52.51-1,1-1.45,1.53s-.92,1-1.38,1.55c-.91,1-1.83,2.08-2.76,3.1s-1.91,2-2.9,2.88a27,27,0,0,1-3.14,2.4,25.61,25.61,0,0,1-3.35,1.86l-.43.2-.49.23-1,.49-.6.32-.64-.29-1-.42-.5-.2-.45-.16a27.29,27.29,0,0,1-3.46-1.64,26.47,26.47,0,0,1-3.29-2.19c-1.06-.83-2.09-1.73-3.09-2.68s-2-1.93-3-2.91c-.5-.48-1-1-1.49-1.45s-1-1-1.54-1.42a5.94,5.94,0,0,0-1-.47,4.68,4.68,0,0,0-1.06-.25,3.54,3.54,0,0,0-1.51.16c-2.51-1.64-4.87-3.93-5.24-5.9C78,82.88,81.5,92.1,82.09,96c-.14.34-.26.68-.37,1a12.11,12.11,0,0,0-.47,2.25q0,.3,0,.63c0,.11,0,.24,0,.34l0,.3a9.39,9.39,0,0,0,.2,1.2,13.64,13.64,0,0,0,.77,2.23,18.47,18.47,0,0,0,2.38,3.84c.46.59,1,1.14,1.46,1.67s1,1,1.58,1.54,1.09,1,1.67,1.42,1.16.88,1.81,1.32l.5.31.47.28c.31.18.62.37.94.54l.46.25-.38.3c-2.19,1.69-4.4,3.37-6.62,5-1.12.83-2.23,1.65-3.33,2.52-.55.43-1.09.88-1.62,1.37a7.89,7.89,0,0,0-.79.83,2.46,2.46,0,0,0-.38.62l0,.06c0-.38-.15.48.24.85.35.22.26.12.39.17h.1a.8.8,0,0,0,.22,0h.3c1.45-.14,2.79-.35,4.18-.57s2.74-.44,4.11-.69a113.79,113.79,0,0,0,16.21-4l2.4-.8,2.41.64a115.38,115.38,0,0,0,16.45,2.89c1.38.15,2.76.29,4.15.41s2.75.25,4.2.29H136a.9.9,0,0,0,.21,0l.1,0c.13-.06,0,0,.38-.19C137.09,124.4,136.84,123.55,136.9,123.92ZM92,108.85c-.51-.38-1-.77-1.53-1.17s-1-.82-1.47-1.26-.94-.87-1.4-1.31a24.11,24.11,0,0,1-2.48-2.81,9.9,9.9,0,0,1-1-1.52c-.13-.26-.25-.53-.35-.79l-.07-.2a1.27,1.27,0,0,1-.06-.18,2.23,2.23,0,0,1-.09-.39,9.57,9.57,0,0,1-.07-1.87,11.4,11.4,0,0,1,.28-1.92,8.11,8.11,0,0,1,.68-1.82,4.14,4.14,0,0,1,1.2-1.45,2.69,2.69,0,0,1,1.76-.54,4.26,4.26,0,0,1,1.84.57c.48.43,1,.91,1.47,1.4s.93,1,1.37,1.53c.88,1,1.69,2.16,2.51,3.28s1.63,2.27,2.54,3.37a24.08,24.08,0,0,0,3,3.12,19.15,19.15,0,0,0,3.68,2.48l.2.1q-2.22,1.41-4.35,2.94c-.76.53-1.51,1.09-2.25,1.65L97,111.8c-.59-.3-1.17-.6-1.74-.92-.29-.15-.57-.31-.85-.48l-.42-.25-.39-.23C93.1,109.6,92.54,109.23,92,108.85ZM81.79,126.3h0C81.79,126.41,81.77,126.46,81.79,126.3Zm23-8.37c-5.08,1.9-10.24,3.72-15.47,5.35-1.31.4-2.63.78-4,1.14l-2,.49-.61.14c.38-.37.79-.73,1.2-1.08,1-.88,2.14-1.7,3.26-2.48a78.39,78.39,0,0,1,7-4.33c2.41-1.34,4.86-2.6,7.28-3.91s4.79-2.67,7.13-4.07l1.74-1,.85-.51.43-.24.48-.29a19.28,19.28,0,0,0,3.51-2.72,24.45,24.45,0,0,0,2.81-3.32c.83-1.16,1.56-2.35,2.3-3.53s1.48-2.33,2.29-3.44c.4-.56.83-1.09,1.27-1.62s.92-1,1.37-1.5a4.29,4.29,0,0,1,1.8-.68,2.67,2.67,0,0,1,1.79.41,4.48,4.48,0,0,1,1.3,1.37,8,8,0,0,1,.79,1.77,11.51,11.51,0,0,1,.41,1.9,9.13,9.13,0,0,1,.06,1.87c0,.14,0,.28-.06.4l-.05.17-.06.21c-.08.27-.18.55-.29.82a10.18,10.18,0,0,1-.86,1.58,24.3,24.3,0,0,1-2.29,3c-.42.47-.85.95-1.31,1.4s-.9.92-1.38,1.35-1,.86-1.45,1.28-1,.81-1.49,1.16c-.11.09-.24.18-.36.26l-.41.28-.81.54c-.55.35-1.12.69-1.68,1A98.58,98.58,0,0,1,104.81,117.93Zm29,5.28q-1-.17-2-.36c-1.35-.26-2.68-.56-4-.87-4.43-1.06-8.81-2.25-13.15-3.52a63.4,63.4,0,0,0,6.22-3l1.61.74a80.14,80.14,0,0,1,7.28,3.85c1.17.72,2.32,1.46,3.41,2.26.44.32.87.65,1.27,1Zm1.7,1.26v0h0C135.53,124.65,135.51,124.6,135.5,124.47Z"/><path class="cls-2" d="M107.13,98.11a5.25,5.25,0,0,0-.22-.65,8.87,8.87,0,0,1,.26,1.77,7.62,7.62,0,0,1,1-3.25A3.44,3.44,0,0,0,107.13,98.11Z"/><path class="cls-2" d="M125.23,67.2s1.6,6.11,0,8c.21-10.61-9.64-14.14-9.64-21.75-4.08,10.07,2,15.53-.65,15.27s-3.21-5.52-1.39-14.09-2.46-13.28-6.64-18.21c3.21,8.68-9.54,13.5-6.64,25.71s-3.11,13.6-2.9,8.41S96.2,60.35,93.52,59.06c3.21,5.79-5.57,6.43-4.82,17.79a14,14,0,0,0,8.74,12.64A9.71,9.71,0,0,1,95,85.05a15.86,15.86,0,0,1,0-5.47c1.42,3.51,5.32,1.82,8.06,4.63a10.85,10.85,0,0,1,2.75,6.88s.73-5.76-2.75-9.41S107.24,66.1,107.79,62c2.4,2.1,9.45,16.09,5.66,19.65a23.1,23.1,0,0,0-3.93,8.85s2.86-5.73,4.71-6.57,4.46-2.28,5.77-4c.69,2.61.51,7.73-1.61,10.57C129.53,88.09,129.75,73.38,125.23,67.2Z"/><path class="cls-2" d="M119.92,80a16.76,16.76,0,0,1-2.87,5.23,23.94,23.94,0,0,1-4.49,3.93c-.41.32-.83.61-1.23,1a14.66,14.66,0,0,0-1.18,1.06c-.19.19-.39.38-.56.58l-.5.64a8.16,8.16,0,0,0-.84,1.39c-.13.26-.24.53-.35.8.11-1,.19-2.11.26-3.17.19-2.61.06-5.23.07-7.85l0-7.85c0-2.62,0-5.24.13-7.84l-.16,0c-.4,2.61-.54,5.23-.76,7.84L107,83.51c-.15,2.62-.43,5.23-.39,7.85,0,.9,0,1.8.08,2.69a12.21,12.21,0,0,0-1.17-2.2,17.6,17.6,0,0,0-2.24-2.62c-1.63-1.6-3.49-2.83-5.14-4.23A9.67,9.67,0,0,1,96,82.64a6.25,6.25,0,0,1-.88-3.06h-.16a6.48,6.48,0,0,0,.61,3.31,10.88,10.88,0,0,0,2,2.7c1.61,1.57,3.35,2.92,4.76,4.52a17.5,17.5,0,0,1,3.16,5.41,33.66,33.66,0,0,1,1.63,6.25h.16a14.93,14.93,0,0,0,.28-2.67,25.66,25.66,0,0,1,2.08-4.56,18.81,18.81,0,0,1,3.72-4.41,25.2,25.2,0,0,0,4.32-4.43A16.27,16.27,0,0,0,120.07,80Z"/><path class="cls-1" d="M62.11,141c.28,1.22,0,1.92-.86,2.11a5.76,5.76,0,0,1-.9.06,6,6,0,0,0-.85.06,1.73,1.73,0,0,0-.94.52c-.06.07-.31.45-.74,1.15,0,.07,0,.16.15.29a.84.84,0,0,1,.18.25,1.2,1.2,0,0,1-1-.18c-.11.3,0,.49.26.56a2.43,2.43,0,0,1,.16.48c-.25.15-.36.26-.34.32l.3.17a.74.74,0,0,1,.42-.37,3.49,3.49,0,0,1-.53.95c0,.05,0,.11.15.17.28-.07.39-.22.33-.46,0,.05.1.12.27.23a1.61,1.61,0,0,1,.29.23,2.66,2.66,0,0,1,.13.9,4.66,4.66,0,0,0,.12,1l.6.45c.08.21.21.67.39,1.39l1.11,4.53a2,2,0,0,1,0,.61,2.2,2.2,0,0,0,0,.57,1.93,1.93,0,0,0,.27.49,1.78,1.78,0,0,1,.26.45,1.63,1.63,0,0,1,0,.45,2.29,2.29,0,0,1,.37.95,11.5,11.5,0,0,0,.35,1.13,1.06,1.06,0,0,1,0,.5,2.09,2.09,0,0,0,0,.65,1.23,1.23,0,0,0,.24.4,4,4,0,0,1,.26.35,10.45,10.45,0,0,1,.44,1.41c.37,1.55.14,2.42-.67,2.61l-1,.31-1,.31a1.06,1.06,0,0,1-1.1-.45,2.56,2.56,0,0,1-.61-1.12L55,147c-.28-1.06-.59-1.61-.91-1.64a9.62,9.62,0,0,0-1.39-.16,8.6,8.6,0,0,0-1.06.44c-.59.26-.94.41-1.06.44q-1.17.33-1.8-1.77a3.4,3.4,0,0,1-.1-1.4c.07-.67.33-1.07.78-1.19a2.09,2.09,0,0,1,.53-.06,1.67,1.67,0,0,0,.49,0,3.09,3.09,0,0,1,.62,0,2.09,2.09,0,0,0,.57,0l2.11-.54a2.92,2.92,0,0,0,.46.37,6.27,6.27,0,0,1,.84-.6,4.49,4.49,0,0,0,1.28-.17c.6-.14,1.34-.38,2.23-.69s1.31-.47,1.28-.47a1.73,1.73,0,0,1,1.66.26A2.91,2.91,0,0,1,62.11,141ZM55,142.11l-.41.43c-.16.17-.27.27-.31.31l-.45-.17a10.48,10.48,0,0,1,.83.83A7.8,7.8,0,0,1,55,142.11Zm1,1.26a2,2,0,0,1-.07-.26l-.93.24a2.33,2.33,0,0,0,.07.25Zm3.87,15-.16-.17-.58.45.06.23ZM55.8,144.09c0-.17-.09-.34-.14-.52l-.3.08c0,.17.1.34.14.52Zm1.14,2.42c0-.17-.09-.35-.14-.52l-.29.07c.05.18.09.35.14.52Zm-.12-4.6-.18-.68a1.84,1.84,0,0,1-1.15.62Zm-.37.43s-.19.22-.51.64c.08,0,.18,0,.32.15a1.29,1.29,0,0,0,.25.2,2.62,2.62,0,0,1,0-.49A2.68,2.68,0,0,0,56.45,142.34Z"/><path class="cls-1" d="M89.12,149.88c-.39.19-.55.62-.49,1.29a3.65,3.65,0,0,0,.29,1,3.89,3.89,0,0,1,.27.78,1.49,1.49,0,0,1-.07.38,2.21,2.21,0,0,0-.07.41c0,.18,0,.4.07.67a11.81,11.81,0,0,1,0,1.57,11.19,11.19,0,0,0,0,1.53l0,.25,0,.22V158a19.14,19.14,0,0,1-.72,2.16,4.39,4.39,0,0,1-1.21,1.44,3.42,3.42,0,0,1-1.67.86q-.18,0-.21-.06t-.18-.06a1.08,1.08,0,0,0-.55.37,1.2,1.2,0,0,1-.55.37l-1.33.17c-.14,0-.3-.09-.49-.31s-.33-.33-.41-.32-.17,0-.17.06v0s0,.07-.13.09c-.31,0-.8-.2-1.48-.71-.85-.67-1.33-1-1.4-1.05a9.09,9.09,0,0,0-.75-1.48,5.79,5.79,0,0,1-.56-1.75c0-.16-.19-.21-.49-.16q-1-6.53-2.12-13c0-.15,0-.24.07-.26a.21.21,0,0,0,.13-.11c0-.2-.07-.44-.12-.73-.25-1.52-.56-3.67-.91-6.45.18-.46.77-.77,1.77-.91a3.47,3.47,0,0,1,2.09.17,3.49,3.49,0,0,0,.77,1.26c0,.13-.17.32-.58.58,0,.09,0,.26.07.5s.07.45.09.6.09.59.13.9h0c-.07,0-.09.11-.07.28s.13.71.26,1.27.23,1,.28,1.24a2.35,2.35,0,0,1,.27.43,2.86,2.86,0,0,0,0,1.26,3.73,3.73,0,0,0,.42,1.13,4.15,4.15,0,0,1,.42,1.06c0,.07.18,2,.53,5.79q.18,1.47.45,4.41a1.48,1.48,0,0,0-.12.6c0,.13.06.2.1.2s.08,0,.08.08l.06.36a1.27,1.27,0,0,0,.75,1.12,1.86,1.86,0,0,1-.32.52,1.8,1.8,0,0,0,.3.5c.25-.15.61-.4,1.1-.75a1.87,1.87,0,0,1-.09.35.47.47,0,0,0,0,.36,2.38,2.38,0,0,0-.45,0l-.27.07a1.64,1.64,0,0,0,.81.3,1.65,1.65,0,0,1,.89.47c.25-.33.36-.59.31-.79a.57.57,0,0,0,.32,0,1.14,1.14,0,0,0,.52-.24l-.28,0c0-.19,0-.37-.07-.55l.4-.23c0,.1,0,.25-.06.44l.09.17a9.39,9.39,0,0,1,.89-.71.67.67,0,0,0-.31-.27l-.37.35a.77.77,0,0,1-.22-.32,3.43,3.43,0,0,0,1-3.05s-.18-.88-.54-2.57c-.25-1.15-.59-2.88-1-5.19l0-.17c0-.29-.06-.69-.09-1.2s-.05-.9-.08-1.14c0,0,0-.05-.12-.09a.28.28,0,0,1-.14-.25c0-.05,0-.09.15-.14a.22.22,0,0,0,.14-.24,3.21,3.21,0,0,0-.29-.84,3,3,0,0,1-.29-.85,4.57,4.57,0,0,1,.39-2.78,1.13,1.13,0,0,0-.52-.21c-.15-1.18-.29-2.36-.43-3.53a1.56,1.56,0,0,1,.23-.69c.16-.34.3-.53.4-.57a10.57,10.57,0,0,1,2.1-.49,1.66,1.66,0,0,1,1.35.51q0,.13.73,5.33c.06.65.29,1.95.68,3.92l0,.06a.84.84,0,0,1-.09.38.81.81,0,0,0-.09.38v.06l.5.57C88.9,147.47,89,148.67,89.12,149.88Zm-8.7,8.6-.41-.15c0,.07-.05.14-.08.22l.45.14ZM85,160.8c0,.12-.08.25-.13.38l-.24,0,.15-.42Zm.7-16.9,0-.27-.45.05,0,.26Z"/><path class="cls-1" d="M114,160.5a2.05,2.05,0,0,1-1.26.42,1.35,1.35,0,0,1-.6-.28.44.44,0,0,0-.34,0,1.6,1.6,0,0,1-.45.09c-.27,0-.53-.2-.78-.58a1.93,1.93,0,0,1-.3-.71.45.45,0,0,0,.14-.1s.07-.13.08-.27a10.59,10.59,0,0,0-.46-2l.35-.46-.24-.21a1.77,1.77,0,0,0-.14.22q-.11.18-.21.18a4,4,0,0,0,.29-1.47s-.14-.44-.42-1.25a16.5,16.5,0,0,1-.57-1.82,14.17,14.17,0,0,0-.56-2.28c-.38-.95-.93-1.42-1.63-1.41a2.41,2.41,0,0,0-.62.13,2.2,2.2,0,0,1-.69.14s0,.15.08.37a1.42,1.42,0,0,0-.39.75,3.88,3.88,0,0,1,.19,1,1,1,0,0,1-.13.51.88.88,0,0,0-.14.5,37.13,37.13,0,0,0,.33,4.09,2.88,2.88,0,0,1,0,.61c0,.36,0,.6,0,.74a1.55,1.55,0,0,0,.63,1.33,1,1,0,0,1-.27.51,1.42,1.42,0,0,0,0,1,1.32,1.32,0,0,1-.62.73,1.87,1.87,0,0,1-1,.4,3.21,3.21,0,0,1-1.75-.46c-.12-.07-.25-.4-.41-1-.07-.11-.17-.26-.32-.46a5.81,5.81,0,0,0,.23-.58c-.07-.49-.18-2.06-.36-4.72a1,1,0,0,0-.21-.2,2.64,2.64,0,0,0,.24-1.15q0-1.44-.21-4.44c-.11-2-.18-3.52-.21-4.55,0-1.2-.12-2.35-.23-3.45,0-.69-.13-1.75-.26-3.18a1.29,1.29,0,0,1-.29-.5c0-1.45.48-2.2,1.6-2.23a1.71,1.71,0,0,1,.43.06,1.77,1.77,0,0,0,.43.06.63.63,0,0,0,.39-.23.62.62,0,0,1,.42-.22,11.59,11.59,0,0,1,1.39.19c.8.14,1.26.21,1.39.21a1.23,1.23,0,0,0,.56-.22,1.39,1.39,0,0,1,.65-.22c.15,0,.32.14.5.41a12.1,12.1,0,0,1,1.52.11,14.45,14.45,0,0,0,1.51.45,7.7,7.7,0,0,0,1.37,1.2,20.75,20.75,0,0,0,1.4,2.39.18.18,0,0,0-.27,0,5.73,5.73,0,0,0-.19,1.37.92.92,0,0,0,.21.31,24,24,0,0,1-.3,4,11.41,11.41,0,0,1-1.67,3.28,1,1,0,0,0-.41.3,41.6,41.6,0,0,0,1.21,4.19,4.34,4.34,0,0,0,.11,1.21c.15.7.23,1.16.25,1.38q.84,2.32,1.63,4.65A1.52,1.52,0,0,1,114,160.5Zm-3.1-16.94a1.79,1.79,0,0,1-.58-1.35,6,6,0,0,1,.21-1.28c-.17-.27-.25-.45-.22-.54a.42.42,0,0,0,.23-.63c-.19-.41-.39-.81-.59-1.22-.32-.58-.67-.88-1-.88-.15,0-.21,0-.19.08s0,.09-.15.09a.25.25,0,0,1-.25-.22c0-.15-.26-.22-.67-.22a6.9,6.9,0,0,0-2.26.48,2,2,0,0,0-1,1.39,12.66,12.66,0,0,0-.14,2.62,7.52,7.52,0,0,0,.56,2.58c.15.18.38.45.68.83a6.52,6.52,0,0,0,2,.36,3,3,0,0,0,1.7-.67C109.31,144.87,109.87,144.39,110.85,143.56Zm-.17,12.89-.2-.07c-.08.12-.15.24-.22.36l.24.07Zm.6-.09c0-.13,0-.25,0-.37H111c0,.13,0,.25,0,.37Z"/><path class="cls-1" d="M139.85,150a1.17,1.17,0,0,0-.61-.3,1.53,1.53,0,0,0-.48,0c.4.26.56.45.5.55q-.58,3.59-1.15,7.16a18,18,0,0,0-.09,2.23,14.58,14.58,0,0,1-.11,2.33c-.1.64-.29,1-.58,1.15a2.77,2.77,0,0,1-1.43,0,3.13,3.13,0,0,1-1.18-.5,1.68,1.68,0,0,1-.79-.87,20.15,20.15,0,0,1-.21-2.3,12.43,12.43,0,0,1-.48-2.16c-.07-3-.93-4.56-2.54-4.74-.12,0-.32.1-.58.34l-.49.52a.9.9,0,0,1,0,.34,1.05,1.05,0,0,1-.45.8l-.77.52a.23.23,0,0,0,.14,0,1.44,1.44,0,0,0,.47-.07,1.8,1.8,0,0,1,.51-.06q-.36,3.11-.7,6.2a2.62,2.62,0,0,1-.43.8,5.65,5.65,0,0,1-1,0c-.92-.09-1.46-.16-1.62-.19a1.09,1.09,0,0,1-.81-1.22q1.27-12.93,2.66-25.86l.18.16.16-.09a1.07,1.07,0,0,0,.27.06,7.27,7.27,0,0,0,.92,0,5.68,5.68,0,0,1,.89,0c-.21,0,.25.09,1.38.35a2.68,2.68,0,0,1,.92,2.06l0,.3a2.08,2.08,0,0,0-.08.33,2.88,2.88,0,0,0,.06,1.09,1.75,1.75,0,0,0,.2.39.78.78,0,0,1,.15.5.52.52,0,0,1-.32.45l-.61.25a.34.34,0,0,0,.22.09,2.93,2.93,0,0,0,.5,0,4.66,4.66,0,0,1,.73,1.81c.26.94.45,1.41.57,1.43a.65.65,0,0,0,.31,0,.22.22,0,0,1,.12-.06q0,.1-.39.33c.18.2.4.5.68.89a.93.93,0,0,1,.14-.21s.12-.06.27,0,.18,0,.18.06v.07a.27.27,0,0,0,.14.05c.2,0,.27-.05.22-.24.08,0,.25.18.53.51.21-.22.5-.52.89-.9a15.92,15.92,0,0,0,.59-2,2.87,2.87,0,0,0,0-.73,2.38,2.38,0,0,1,0-.77v-.07a1.45,1.45,0,0,0,.55-.33.53.53,0,0,1,0-.27c0-.2.18-.36.46-.48l-.05.06c-.08.53.26.85,1,1h.54a.81.81,0,0,1,.29.12q.17-.25.42-.69c.46.53.67.89.64,1.09a2.41,2.41,0,0,1-.2.51,1.65,1.65,0,0,0-.2.51,2.86,2.86,0,0,0-.47-.17.7.7,0,0,0-.32,0c.05,0,.07.1.07.21s.06.18.21.2a.66.66,0,0,0,.31,0,.46.46,0,0,1,.2,0,.38.38,0,0,0-.07.19,2.39,2.39,0,0,0,0,.35,1.92,1.92,0,0,1,0,.39.88.88,0,0,1-.49.7c-.29,1.74-.57,3.47-.85,5.21A4.81,4.81,0,0,0,139.85,150Zm-9.26-5.34-.42-.25c0,.08-.07.15-.1.23l.39.21ZM133,156.16a1,1,0,0,1-.44.08,1.49,1.49,0,0,0,0-.17l0-.2a.88.88,0,0,1,.12-.33A1.24,1.24,0,0,1,133,156.16Zm4.45,1.81.08-.5-.41-.57a.52.52,0,0,1-.31-.18.52.52,0,0,0-.21-.17c0,.07-.07.11-.19.11l-.38-.09a.93.93,0,0,0-.28,0,6,6,0,0,1,.1-1l0-.11h0a.26.26,0,0,1-.17-.09l.28-.17a1.35,1.35,0,0,1,.28,1.23,3.41,3.41,0,0,0,.52-.84c.11,0,.17.07.15.16a.64.64,0,0,1-.08.19.45.45,0,0,0-.08.19,1.44,1.44,0,0,0,.58-.29.43.43,0,0,1-.15,0c-.16,0-.19-.23-.08-.62a.48.48,0,0,0-.25.08.45.45,0,0,1-.28.08c-.05,0-.08,0-.1,0a3.94,3.94,0,0,1,.82-.69,1.22,1.22,0,0,0,.33.45,2.89,2.89,0,0,0,.39-.65,2,2,0,0,1-.56.09l-.19-.13c.22-.06.35-.16.37-.29,0-.29,0-.39,0-.3a.54.54,0,0,1-.38.08c-.25,0-.37-.18-.33-.42a1.83,1.83,0,0,1,.12-.41,2.34,2.34,0,0,0,.11-.41c.17.21.29.32.39.33l-.06.4a1,1,0,0,1,.17-.33.94.94,0,0,0,.19-.4l-.61-.26.09-.63.3-.23a1.9,1.9,0,0,0,.47.48,2.14,2.14,0,0,1-.26-.68c.34-1.42.5-2.07.48-1.94l0-.16a1.17,1.17,0,0,1-.32.12.68.68,0,0,1-.12-.12,3.05,3.05,0,0,0,.4-.6,4.23,4.23,0,0,1,.42-.63,1.51,1.51,0,0,1-.29-.56c-.11.1-.34.12-.68.07a1,1,0,0,1-.67-.26,1.22,1.22,0,0,1,0,.27,1.36,1.36,0,0,1-.68.94l-1.12.74a1.07,1.07,0,0,1,.48.4,5.07,5.07,0,0,1,.33.59,2.64,2.64,0,0,1-.46.14.1.1,0,0,1,.06.11c0,.11-.16.26-.43.45a5.69,5.69,0,0,0-.57.43c0,.17,0,.34-.07.5a.5.5,0,0,1,.27.14,1,1,0,0,0-.49.44,1.53,1.53,0,0,1-.27.37c.46.49.67.87.64,1.14,0,.11-.25.33-.7.65.26.17.35.53.27,1.09a1,1,0,0,1-.38.73q.39,0,.48.6a.75.75,0,0,0,.69.64,1,1,0,0,0,.5-.24.8.8,0,0,1,0,.31c0,.09,0,.14.19.16l.72.11c0-.29.14-.43.27-.41a4,4,0,0,0,.28.49A.87.87,0,0,1,137.46,158Zm-2.93.73c0-.09,0-.18,0-.27l-.72-.1a2.51,2.51,0,0,0,0,.27Zm1.05-4.87-.13.18-.47-.23,0-.23ZM142,137.39a4.61,4.61,0,0,1-.22.77,3.92,3.92,0,0,0-.23.76l-.39,0a1.87,1.87,0,0,1-.42-.13l-.39-.13c-.36,0-.58,0-.68.07s0,.23-.09.57a.75.75,0,0,1-.17.36.68.68,0,0,0-.15.2c0,.07.05.09.11,0a1.82,1.82,0,0,1-1-.75,1.33,1.33,0,0,0,.22-.21l-.06-.11a2,2,0,0,0-.48.24.85.85,0,0,0-.2.41,3.28,3.28,0,0,1-.27-1.59c.11-.74.36-1.19.75-1.36a3.71,3.71,0,0,1,1.78,0A3.26,3.26,0,0,1,142,137.39Zm-6.45,19.14-.47.1,0-.2.38-.11C135.46,156.39,135.49,156.46,135.51,156.53Zm.65-2.72-.39-.06,0-.23.38,0Zm.05-.81-.25,0c0-.18,0-.36.08-.54l.24,0Zm1-4.13-.43-.06,0-.27.43.07C137.25,148.69,137.24,148.78,137.22,148.87Zm.64-3.44c0-.17,0-.35.08-.53l-.3,0c0,.18,0,.35-.08.53Zm0,2.59-.69.11,0-.24.57-.08Zm1.92-3.85a1.21,1.21,0,0,0-.43-.14,2.66,2.66,0,0,0-.57,0l.31.21c-.14.09-.22.16-.22.21s0,.07.09.15.11-.09.16-.08a.2.2,0,0,1,.09.15l-.47.13v0a.93.93,0,0,0,0,.24,1.78,1.78,0,0,1,0,.2q0,.11-.24.3c-.19-.23-.28-.36-.27-.41a.71.71,0,0,1-.24.36,1.16,1.16,0,0,0-.23.22c.75,0,1.23-.13,1.44-.5S139.63,144.5,139.83,144.17Zm-1.73,4.76-.21,0c0-.17-.07-.35-.11-.52l.23-.07Zm3-9.73q-.12.74-.54.66c-.28,0-.42,0-.42,0a.37.37,0,0,0,.08.18.79.79,0,0,0-.55-.19l.31-.7a.81.81,0,0,0,.29.12A2,2,0,0,0,141.11,139.2Zm-3.48,19.92-.2-.27-.16.14a2,2,0,0,0,.17.23Z"/><path class="cls-1" d="M166.51,144.31c-.36,1.2-.95,1.68-1.79,1.45a5.11,5.11,0,0,1-.82-.36c-.42-.2-.68-.32-.78-.35a1.8,1.8,0,0,0-1.08,0,13,13,0,0,0-1.21.66.43.43,0,0,0,0,.33,1,1,0,0,1,0,.3c-.24,0-.5-.22-.77-.61-.24.21-.26.42-.05.61a3,3,0,0,1-.09.5c-.29,0-.45.06-.47.12l.19.29a.81.81,0,0,1,.55-.14,3.31,3.31,0,0,1-.93.6s0,.11.05.22c.28.07.45,0,.52-.25,0,0,0,.15.11.32s.14.29.16.34a3.23,3.23,0,0,1-.33.85,5.82,5.82,0,0,0-.38.91l.32.67c0,.22-.15.69-.34,1.41l-1.2,4.51a1.68,1.68,0,0,1-.29.53,1.91,1.91,0,0,0-.28.5,1.67,1.67,0,0,0,0,.56,1.82,1.82,0,0,1,0,.52,1.26,1.26,0,0,1-.21.39,2.31,2.31,0,0,1-.12,1,9.69,9.69,0,0,0-.23,1.16,1.37,1.37,0,0,1-.21.46,2.3,2.3,0,0,0-.28.59,1.06,1.06,0,0,0,0,.46c0,.22.06.36.07.43a12.71,12.71,0,0,1-.28,1.46c-.4,1.53-1,2.2-1.81,2l-1-.18-1-.17a1.07,1.07,0,0,1-.77-.91,2.64,2.64,0,0,1,0-1.28q2.67-9,5.54-18c.27-1.06.27-1.69,0-1.86a10.51,10.51,0,0,0-1.14-.79c-.12,0-.5-.06-1.15-.11s-1-.07-1.15-.1c-.79-.17-1-1-.7-2.38a3.34,3.34,0,0,1,.61-1.28c.39-.56.82-.79,1.28-.69a2.11,2.11,0,0,1,.49.2,1.91,1.91,0,0,0,.45.19,2.48,2.48,0,0,1,.56.24,2.24,2.24,0,0,0,.52.24l2.12.5a2.32,2.32,0,0,0,.22.54,8.88,8.88,0,0,1,1-.12,5.3,5.3,0,0,0,1.2.44,22.85,22.85,0,0,0,2.3.42l1.36.19q1.13.31,1.32,1A2.75,2.75,0,0,1,166.51,144.31ZM159.74,142l-.57.19-.43.12-.31-.35a7.74,7.74,0,0,1,.31,1.11A10,10,0,0,1,159.74,142Zm.29,1.59c0-.08.05-.17.07-.26l-.93-.23c0,.09,0,.18-.07.27Zm-3.86,15c0-.07,0-.15,0-.22l-.73.13-.06.23Zm3.29-14.45.14-.52-.3-.07c-.05.17-.09.34-.14.52Zm-.19,2.65c0-.17.09-.34.14-.52l-.3-.07-.13.52Zm2.16-4.09c.07-.23.13-.46.19-.69a1.85,1.85,0,0,1-1.32,0Zm-.53.21a5.1,5.1,0,0,0-.77.32c.08,0,.15.12.21.28a1.75,1.75,0,0,0,.12.29,1.89,1.89,0,0,1,.22-.45A3.41,3.41,0,0,0,160.9,142.85Z"/><path class="cls-1" d="M83,172.09a1.06,1.06,0,0,1-.28.2l-.28,0-.25,0-.27,0a.11.11,0,0,1-.1,0,.59.59,0,0,0,0-.08,1.2,1.2,0,0,0-.17-.68A.68.68,0,0,0,81,171a.7.7,0,0,0-.63.37.93.93,0,0,0-.15.63,1.63,1.63,0,0,1,0,.18,1,1,0,0,0,0,.21,1,1,0,0,0,.14.57,1.69,1.69,0,0,0,.25.36c0,.05,0,.1-.08.17a.31.31,0,0,0,.2,0,1.08,1.08,0,0,0-.16.16c-.08.09-.14.13-.19.13l-.12,0a0,0,0,0,0,0,0,.21.21,0,0,0,0,.12l.63-.31a.4.4,0,0,0,0,.15.19.19,0,0,0,.05-.1c.21.15.48.37.82.67.42.53.74.95.94,1.26a.23.23,0,0,1,0,.2,1.66,1.66,0,0,1,.16.2,2.47,2.47,0,0,0,0,.51l0,.39a.43.43,0,0,1,0,.14.64.64,0,0,0,0,.16.08.08,0,0,0,.07.09,4.32,4.32,0,0,0-.21,1,.75.75,0,0,0-.22.22l-.23.28s0,0,.07.11-.16,0-.19,0a.36.36,0,0,1,0,.11c0,.07,0,.1-.1.1h-.47l-.08.07a.19.19,0,0,1-.14.07l-.44,0-.42,0a1.59,1.59,0,0,1-.67-.16,1.78,1.78,0,0,1-.47-.36,1.65,1.65,0,0,1-.53-1.25.86.86,0,0,1,.11-.5c.08-.1.24-.14.49-.14a1.11,1.11,0,0,1,.26,0,1.61,1.61,0,0,1,.35.2,4.71,4.71,0,0,0,.24.66c.15.24.27.35.35.35a.29.29,0,0,1,.15.06.47.47,0,0,0,.16.05.21.21,0,0,0,.12-.05.22.22,0,0,1,.14-.06.14.14,0,0,1,.11.08s0,.08,0,.08.08-.07.08-.11,0-.05-.09-.05h.07l.25-.4a1,1,0,0,0,.15-.46.42.42,0,0,0-.11-.29.93.93,0,0,0,.11-.16,3,3,0,0,1,0-.55,2.66,2.66,0,0,0-.19-.35l-1-1.09.08-.29a.21.21,0,0,0,0,.15h.08a.38.38,0,0,0,.08-.18.4.4,0,0,1,.05-.19l-.05,0a1,1,0,0,1-.24-.1s0,0,.08-.08l.13-.09a1.91,1.91,0,0,1-.13-.23l-.06,0a.28.28,0,0,0,0,.08s0,0,.13,0a.34.34,0,0,1-.32,0l-.14.14a.27.27,0,0,0,.15,0c-.07.07-.09.13-.05.17a.7.7,0,0,1-.29,0q-1-.47-1-2.4a3.1,3.1,0,0,1,0-.49,1.79,1.79,0,0,0,.14-.36l.19-.15-.15-.11s0,0,.06-.06a.16.16,0,0,1,.11-.05c.1,0,.14,0,.14,0a.54.54,0,0,1,.17-.45,1.45,1.45,0,0,1,.51-.31,2,2,0,0,1,.65-.14,2,2,0,0,1,.4,0c0,.05,0,.08.08.08s.07,0,.06-.05,0-.06,0-.06a2.64,2.64,0,0,1,.55.3,4,4,0,0,1,.59.4l.15.31c.1.18.19.28.28.29ZM79.58,171l-.14-.13a.31.31,0,0,1-.12.23.35.35,0,0,0,.13-.05Z"/><path class="cls-1" d="M92.57,178.89a.58.58,0,0,1-.32.29,2.49,2.49,0,0,0-.33-.33.46.46,0,0,1,.1-.1l.1-.1-.08-.08-.1,0a.19.19,0,0,1-.1,0l-.07,0,.29-.12A4.09,4.09,0,0,0,92.57,178.89Zm-.51-1.72h-.19v-.08h.19Zm.19.33-.13.17-.06,0,.12-.18Zm.1.7s0,0,0,.1,0,.12-.09.12h-.14l.13-.14A.17.17,0,0,1,92.35,178.2Zm-.13-.13-.14.06v-.07l.12-.06Zm.9-1.07a.36.36,0,0,0-.18-.16l-.26-.12a2.43,2.43,0,0,1,.15.25l-.08.1h-.13a.15.15,0,0,0,0-.06.35.35,0,0,0-.06-.16l-.07-.14V177a.43.43,0,0,1-.07.23l-.1,0a.18.18,0,0,0-.11,0,1.76,1.76,0,0,1,.31.1l-.15.1a.32.32,0,0,1,.07.13.21.21,0,0,1,.14-.09l0,0s-.08.14-.25.3l.26,0a.35.35,0,0,0,.21-.1l.12.1a2.43,2.43,0,0,0-.14-.31.11.11,0,0,0,.07-.12.75.75,0,0,0,0-.17l-.14.06a.28.28,0,0,1-.1-.09.27.27,0,0,0,.11-.08.19.19,0,0,1,.11,0c.09,0,.13,0,.12,0V177a.11.11,0,0,1,0-.07A.15.15,0,0,0,93.12,177Zm-.52-1.61h-.1v-.14h.1Zm4.46,3.3a1.87,1.87,0,0,0,0,.51l0,.06a.7.7,0,0,1-.37.12.07.07,0,0,1-.07-.06.09.09,0,0,0-.08,0,.06.06,0,0,0-.06,0,.06.06,0,0,1-.06,0s0,0,0-.08a.05.05,0,0,0,0,0s0,0,0,.07,0,0,0,0a.43.43,0,0,1-.41-.22,8.77,8.77,0,0,1-.19-.9c-.08-.47-.22-.7-.41-.7a.08.08,0,0,0-.07.05.08.08,0,0,1-.08.06s-.06,0-.09-.08a.14.14,0,0,0-.11-.08s0,0,0,0h0s0,0-.06,0h0l0,0,0,0,0,0a.92.92,0,0,1-.45-.3.39.39,0,0,0-.08.34H94a.36.36,0,0,1-.19-.05.4.4,0,0,1-.12.15.69.69,0,0,1,0-.13.89.89,0,0,1,0-.11.26.26,0,0,0,0-.1s0-.08-.08-.13a1,1,0,0,1-.23,0h-.22s0-.09.14-.19v-.06l0-.06c-.06.07-.1.1-.12.1s0-.1.1-.17a.17.17,0,0,0-.12-.06.11.11,0,0,0-.07,0s0-.06.08-.12a.69.69,0,0,1-.17-.13s-.05.1,0,.2a.24.24,0,0,0-.13-.06.83.83,0,0,1,.14-.16.48.48,0,0,0-.16-.16l-.19-.14a.66.66,0,0,0,.06-.12.28.28,0,0,1,.13.06l.13.08A.76.76,0,0,1,93,176s-.13-.13-.39-.28h0l.08-.11a.48.48,0,0,1,0-.18c0-.2.07-.33.2-.38l-.18-.13a.17.17,0,0,0,0,.15.32.32,0,0,1-.14-.08,2,2,0,0,0,.35-.2l-.07-.07a.13.13,0,0,0-.06.07,1.3,1.3,0,0,1-.11-.27l.17.15a.41.41,0,0,0,0-.1s0,0,.07,0,.07,0,.08,0a0,0,0,0,0,0,0,.76.76,0,0,1,.1-.13l-.08-.07-.26.15a.49.49,0,0,1-.12-.15.26.26,0,0,1,.18,0l.07-.09v-.05a.07.07,0,0,0,0-.06.15.15,0,0,1-.11,0,3.76,3.76,0,0,0-.11-.38,2.39,2.39,0,0,1,.4-.3v-.39a.31.31,0,0,0-.2,0q.06-.21.15-.48a.29.29,0,0,0,0-.1s0,0,0-.07l-.16-.07a.52.52,0,0,1,.26-.31.41.41,0,0,1-.15-.24,3.28,3.28,0,0,1,.16-.8,4.33,4.33,0,0,0,.19-.84l.65-.2a2.52,2.52,0,0,1,.65-.11c.19,0,.37.39.56,1.19l1.41,6,.18.87C96.85,178.41,97,178.65,97.06,178.69Zm-4.31-2.22-.07.14-.07,0,.07-.13Zm0-2.85h-.07l-.07-.12.08,0Zm.23,1.7-.13-.07a2.19,2.19,0,0,1-.15.22ZM93,174a.28.28,0,0,1-.1-.18c-.06,0-.08.06-.08.19Zm.06-1.72-.05,0-.12.11,0,.06Zm.09,5.27-.19.06v-.08l.17-.06Zm.21-1.28-.12.13,0-.06.13-.12Zm.14.45a.3.3,0,0,1-.1-.23h-.2A1.07,1.07,0,0,0,93.48,176.69Zm1.57-.85a4,4,0,0,0-.24-1.17c-.19-.59-.4-.89-.62-.89s-.46.32-.57.94a3.36,3.36,0,0,1-.38,1.31l.29.25-.09.1.22.13.12-.11a1.67,1.67,0,0,1,.35.06,2.24,2.24,0,0,0,.37,0,.53.53,0,0,0,.37-.23A.74.74,0,0,0,95.05,175.84Zm-.65-2.68,0,0-.13.11,0,.06Zm.21,4.14h-.08l-.06-.12.07,0Zm.61,0h-.09v-.18h.09Z"/><path class="cls-1" d="M110.15,175.17c-.13.05-.19.2-.19.43a1.43,1.43,0,0,0,.06.34,1.39,1.39,0,0,1,.06.28.87.87,0,0,1,0,.13.79.79,0,0,0,0,.13v.24a3.31,3.31,0,0,1-.05.54,4.93,4.93,0,0,0,0,.53V178a7.73,7.73,0,0,1-.31.72,1.65,1.65,0,0,1-.46.45,1.16,1.16,0,0,1-.61.24.08.08,0,0,1-.07,0s0,0,0,0a.38.38,0,0,0-.21.1.37.37,0,0,1-.2.11h-.46c-.05,0-.1,0-.15-.13s-.1-.13-.13-.13h-.05v0s0,0,0,0-.27-.11-.47-.32a5.77,5.77,0,0,0-.42-.43,2.67,2.67,0,0,0-.17-.54,2.19,2.19,0,0,1-.1-.63q0-.09-.15-.09v-4.58c0-.05,0-.08,0-.08l0,0v-.26c0-.54,0-1.29,0-2.26.08-.15.27-.22.57-.22a1,1,0,0,1,.61.16,1.42,1.42,0,0,0,.17.47s-.06.1-.19.17v.7h0s0,0,0,.09,0,.25,0,.45,0,.35,0,.44a1.44,1.44,0,0,1,.07.16,1.08,1.08,0,0,0-.07.43,1.22,1.22,0,0,0,.08.41,1.57,1.57,0,0,1,.08.39s0,.69-.09,2c0,.35,0,.86-.06,1.54a.53.53,0,0,0-.06.2c0,.05,0,.07,0,.08a0,0,0,0,1,0,0v.12a.43.43,0,0,0,.19.42s0,.07-.12.17a.46.46,0,0,0,.07.18,4.16,4.16,0,0,0,.4-.21.31.31,0,0,1,0,.12.15.15,0,0,0,0,.13.53.53,0,0,0-.16,0h-.09a.59.59,0,0,0,.26.14.52.52,0,0,1,.28.19c.1-.1.15-.18.14-.25l.1,0a.38.38,0,0,0,.19-.06l-.09,0v-.2l.14-.06,0,.15,0,.06.33-.21a.22.22,0,0,0-.09-.1l-.14.1a.24.24,0,0,1-.06-.11,1.24,1.24,0,0,0,.44-1s0-.31-.08-.91c0-.4-.09-1-.14-1.83v-.06c0-.1,0-.24,0-.41s0-.32,0-.4l0,0s0,0,0-.09,0,0,0,0a.08.08,0,0,0,0-.08,1.11,1.11,0,0,0-.06-.3,1.11,1.11,0,0,1-.06-.3,1.78,1.78,0,0,1,.23-1,.38.38,0,0,0-.16-.09v-1.24a.58.58,0,0,1,.1-.22c.06-.12.11-.18.14-.18a2.45,2.45,0,0,1,.64-.1.48.48,0,0,1,.38.22s0,.66.06,1.87c0,.23,0,.68.09,1.38l0,0a.58.58,0,0,1,0,.13.27.27,0,0,0,0,.13v0l.14.21ZM107,177.79l-.12-.07,0,.07.14.07Zm1.45,1-.06.13-.08,0,.07-.14Zm.85-5.8v-.1h-.14v.1Z"/><path class="cls-1" d="M123.23,177.77a.36.36,0,0,1,0,.14s0,.07,0,.08v.07c-.07.08-.22.29-.46.63a1.41,1.41,0,0,1-.46.48,2.88,2.88,0,0,1-1.19.21,2.58,2.58,0,0,1-.5-.21,4.67,4.67,0,0,1-.54-.26,1,1,0,0,1-.29-.41,2.13,2.13,0,0,1-.27-.3,2.27,2.27,0,0,1-.15-.79v-1.32a.53.53,0,0,0,0-.2s0-.09.07-.16v-.36a1.66,1.66,0,0,0,0-.4.51.51,0,0,0-.14-.34.16.16,0,0,1,.14,0,.15.15,0,0,0,.08-.05l.11-.07-.07,0a.18.18,0,0,0,0,.13l.07-.06a.35.35,0,0,1,.1-.08c0-.11,0-.16-.1-.16a.6.6,0,0,0-.2,0s0-.08,0-.15,0,0,.07-.07l.12-.09a.3.3,0,0,0-.19,0,1.76,1.76,0,0,1,0-.46.88.88,0,0,0,0-.1,2.53,2.53,0,0,1,0-.28.48.48,0,0,1,.15-.29v-.28c-.08-.07-.13-.11-.15-.09a.46.46,0,0,0,.09-.22.21.21,0,0,0-.07-.14.23.23,0,0,1-.08-.17,3.74,3.74,0,0,1,.17-1,1.71,1.71,0,0,1,1.26-1.11.58.58,0,0,0,.26-.05l.75,0a.8.8,0,0,1,.42.21,1.55,1.55,0,0,0,.5.27l.4.54a1.15,1.15,0,0,1,.17.66.4.4,0,0,1-.19.35.62.62,0,0,1-.38.13,1.6,1.6,0,0,1-.61-.21v-.11c0-.15-.12-.31-.37-.47a1,1,0,0,0-.44-.21.24.24,0,0,0-.15,0l-.1-.09a1.54,1.54,0,0,0-.21.28s-.08,0-.15.07a.47.47,0,0,0-.16.19,1.35,1.35,0,0,0-.11.57s0,.24.09.66.08.74.09.89a6.28,6.28,0,0,0,0,.88c0,.07,0,.22,0,.46a4.43,4.43,0,0,0,0,.52,2.14,2.14,0,0,0,0,.48,2.26,2.26,0,0,0-.1.73,5.13,5.13,0,0,0,.15,1.16,1.27,1.27,0,0,0,.55.2.63.63,0,0,0,.31-.06.54.54,0,0,0,.31-.46v-.08q.1,0,.21-.15a.37.37,0,0,1,.2-.17,4.16,4.16,0,0,1,.75,0c.12,0,.24.13.36.37A1.23,1.23,0,0,1,123.23,177.77Zm-3.52-2.88a.29.29,0,0,0-.22-.06s.05,0,.05.12A.24.24,0,0,1,119.71,174.89Zm0,.51-.13-.07,0,.08.12.06Zm.11.83-.07,0-.07.12.07,0Zm.28-1.67s-.06,0-.11.08a.28.28,0,0,0-.18-.09.33.33,0,0,0,.06.13.4.4,0,0,1,.06.11l.09-.11Zm0-.4v-.09h-.23v.09Zm2-3.1v-.18h-.09v.18Z"/><path class="cls-1" d="M136.65,178.72l-.14.13a2.14,2.14,0,0,1-.1.41.32.32,0,0,1-.33.22.5.5,0,0,1-.21-.07.45.45,0,0,0-.22-.08s-.09,0-.16.12l-.11-.12h-.25a3.36,3.36,0,0,1-.45-.05,2.36,2.36,0,0,0-.43-.06c-.05,0-.07,0-.06.11s0-.05-.1-.11a.6.6,0,0,1-.43.16l-.25,0a.4.4,0,0,0-.25,0v0s0-.08-.11-.08a.07.07,0,0,0-.07,0s0,.06-.06.06l-.19-.06a.91.91,0,0,0-.26,0l-.22-6.8c0-.35,0-.73-.08-1.14s-.07-.7-.07-.71a1.43,1.43,0,0,1,.21-.57.74.74,0,0,1,.28,0l2.53-.08.28,0a1.23,1.23,0,0,1,.29,0,.68.68,0,0,1,.58.22,1.26,1.26,0,0,1,.12.65.65.65,0,0,1-.13.46.55.55,0,0,1-.43.13l-1.05,0-1,0c-.09,0-.18.1-.29.29a1.08,1.08,0,0,0-.15.41s0,.08.08.11c0,.18,0,.51,0,1a.25.25,0,0,1-.06.16,2.14,2.14,0,0,1,.05.55.21.21,0,0,0,.13.09.16.16,0,0,0,.09,0,.11.11,0,0,1,.08,0,.32.32,0,0,1,.17.08.25.25,0,0,0,.15.09l.7,0,.7,0c.21,0,.31.18.31.54a1.84,1.84,0,0,1,0,.54c-.06.14-.2.21-.43.21l-.42,0-.41,0a2.64,2.64,0,0,0-.41.08,1.12,1.12,0,0,0-.38.13,1.42,1.42,0,0,0-.14.46,3.48,3.48,0,0,0-.09.47.74.74,0,0,1,.05.25,2.56,2.56,0,0,1-.13.65v0l0,.09a.34.34,0,0,0,0,.09.93.93,0,0,0,.08.3,1.71,1.71,0,0,1,.1.32l-.07.06v.19l.06,0s0,0,0,0a.28.28,0,0,0,0-.09.2.2,0,0,1,0-.07h.19a1.84,1.84,0,0,1,.15.47.11.11,0,0,0,.06-.11s0-.08,0-.1,0,0,0,.08,0,.12,0,.12l.1-.09v0a.18.18,0,0,0,0,.14.43.43,0,0,0,.17-.07l-.09,0v-.2s.09,0,.15-.1a1,1,0,0,0,.11-.11v.25a.36.36,0,0,0,0,.11.49.49,0,0,0,.09-.18c.24-.07.38-.17.42-.28a.94.94,0,0,0,.09.12.14.14,0,0,0,.12.06.27.27,0,0,0,.14,0l.11-.06a2.41,2.41,0,0,1,.73-.08c.12,0,.21.1.28.32S136.58,178.7,136.65,178.72Zm-3.4.21-.07-.08-.06.05.08.08Zm.69.21a.28.28,0,0,1-.18-.1.29.29,0,0,1,.15-.06.19.19,0,0,0,0,.08C133.89,179.12,133.91,179.14,133.94,179.14Zm.23,0H134c0-.1,0-.15.08-.15Z"/><path class="cls-2" d="M136.26,123.92l0,0a2.59,2.59,0,0,0-.42-.6,8.39,8.39,0,0,0-.84-.77c-.57-.45-1.14-.86-1.71-1.26-1.16-.79-2.32-1.54-3.49-2.29q-3.5-2.24-6.94-4.55l-.39-.27.43-.27.91-.6.45-.31c.15-.12.31-.22.47-.34.62-.49,1.16-1,1.72-1.45s1.07-1,1.57-1.53,1-1.07,1.48-1.63.92-1.15,1.34-1.77a18.32,18.32,0,0,0,2.12-4,13.19,13.19,0,0,0,.61-2.28,9.72,9.72,0,0,0,.12-1.21v-.3c0-.1,0-.23,0-.34a6.07,6.07,0,0,0-.07-.63,12.34,12.34,0,0,0-.62-2.21c-.13-.34-.28-.67-.43-1,.32-3.91,3.19-13.35.61-10.67-.24,2-2.44,4.43-4.84,6.24a3.5,3.5,0,0,0-1.51-.06,4.18,4.18,0,0,0-1,.32,5.43,5.43,0,0,0-1,.54c-.51.5-1,1-1.44,1.52s-.93,1-1.39,1.55c-.91,1-1.83,2.08-2.76,3.1s-1.9,2-2.9,2.88a26.42,26.42,0,0,1-6.48,4.26l-.44.2-.49.23c-.33.16-.65.32-1,.49l-.61.32-.64-.29-1-.42-.51-.2-.44-.16a28.08,28.08,0,0,1-3.47-1.64A26.1,26.1,0,0,1,98,100.3c-1-.83-2.09-1.73-3.09-2.67s-2-1.93-3-2.92l-1.49-1.45c-.51-.47-1-1-1.55-1.42a6.25,6.25,0,0,0-1-.47,4.77,4.77,0,0,0-1.07-.25,3.49,3.49,0,0,0-1.5.16c-2.52-1.64-4.87-3.92-5.24-5.9-2.76-2.5.74,6.72,1.32,10.6-.13.34-.25.68-.36,1a11.84,11.84,0,0,0-.48,2.24c0,.2,0,.41,0,.63s0,.24,0,.34l0,.3a7.91,7.91,0,0,0,.2,1.2,13.61,13.61,0,0,0,.76,2.23A18.09,18.09,0,0,0,84,107.79c.45.59,1,1.14,1.45,1.68s1,1,1.58,1.53,1.1,1,1.68,1.42,1.15.88,1.81,1.32c.16.12.33.21.49.31l.47.28c.31.19.63.37.94.54l.47.26-.39.29c-2.19,1.7-4.39,3.37-6.62,5-1.11.83-2.22,1.65-3.32,2.52-.55.44-1.09.88-1.63,1.37a7.83,7.83,0,0,0-.78.83,2.46,2.46,0,0,0-.39.62l0,.06a1.08,1.08,0,0,0,.24.85c.36.22.26.12.39.17h.11a.72.72,0,0,0,.21,0H81c1.45-.14,2.8-.35,4.18-.57s2.74-.44,4.11-.69a115.26,115.26,0,0,0,16.22-4l2.39-.81,2.42.64a115.24,115.24,0,0,0,16.44,2.89c1.39.15,2.77.29,4.15.41s2.75.25,4.21.29h.52l.1,0c.13-.06,0,0,.38-.2A1.08,1.08,0,0,0,136.26,123.92ZM91.39,108.86l-1.54-1.18c-.5-.4-1-.82-1.47-1.25s-.94-.87-1.4-1.32a23.32,23.32,0,0,1-2.48-2.81,10.73,10.73,0,0,1-1-1.52c-.13-.26-.25-.53-.35-.79l-.07-.2c0-.07,0-.11-.06-.18a3.33,3.33,0,0,1-.08-.39,8.23,8.23,0,0,1-.07-1.87,10.46,10.46,0,0,1,.28-1.92,7.79,7.79,0,0,1,.67-1.82,4.25,4.25,0,0,1,1.2-1.45,2.72,2.72,0,0,1,1.77-.54,4.3,4.3,0,0,1,1.84.57c.48.44,1,.91,1.46,1.4s.94,1,1.37,1.53c.89,1,1.7,2.16,2.52,3.28s1.63,2.27,2.54,3.37a25.44,25.44,0,0,0,3,3.13,19.33,19.33,0,0,0,3.69,2.47l.2.11q-2.22,1.39-4.36,2.93c-.76.54-1.5,1.09-2.25,1.65l-.52-.26c-.58-.3-1.17-.6-1.74-.92-.28-.15-.57-.31-.85-.48l-.42-.24-.38-.24C92.45,109.6,91.9,109.23,91.39,108.86ZM81.15,126.3h0C81.15,126.41,81.13,126.46,81.15,126.3Zm23-8.37c-5.09,1.9-10.24,3.72-15.48,5.35-1.31.4-2.62.78-3.94,1.14l-2,.49-.6.14c.38-.37.79-.73,1.2-1.08,1-.88,2.13-1.69,3.25-2.48a78.56,78.56,0,0,1,7-4.33c2.41-1.34,4.86-2.6,7.27-3.91s4.8-2.67,7.14-4.07l1.74-1,.85-.51.42-.24.48-.28a19.48,19.48,0,0,0,3.51-2.72,24.42,24.42,0,0,0,2.81-3.33c.83-1.16,1.57-2.35,2.31-3.53s1.47-2.33,2.29-3.44c.4-.56.83-1.09,1.26-1.62s.92-1,1.37-1.5a4.34,4.34,0,0,1,1.8-.68,2.76,2.76,0,0,1,1.8.41A4.34,4.34,0,0,1,130,92.07a8.07,8.07,0,0,1,.8,1.77,10.54,10.54,0,0,1,.4,1.9,8.48,8.48,0,0,1,.06,1.87,2.4,2.4,0,0,1-.06.4c0,.07,0,.11,0,.18l-.06.2c-.08.27-.19.55-.3.82a10.51,10.51,0,0,1-.85,1.58,25.33,25.33,0,0,1-2.29,3c-.43.47-.86.95-1.31,1.4s-.91.92-1.38,1.35-1,.86-1.46,1.28-1,.82-1.48,1.16l-.37.27-.4.27-.82.54c-.55.35-1.11.69-1.68,1A97,97,0,0,1,104.17,117.93Zm29,5.28c-.68-.11-1.35-.23-2-.36-1.34-.26-2.68-.56-4-.87-4.43-1-8.82-2.25-13.16-3.52a63.4,63.4,0,0,0,6.22-3c.54.25,1.08.49,1.61.75a77.63,77.63,0,0,1,7.28,3.84c1.17.72,2.32,1.46,3.42,2.26.43.33.86.66,1.26,1Zm1.69,1.26v0h0C134.89,124.65,134.87,124.61,134.85,124.47Z"/><path class="cls-2" d="M106.49,98.11a5.25,5.25,0,0,0-.22-.65,10.61,10.61,0,0,1,.26,1.77,7.48,7.48,0,0,1,1-3.25A3.44,3.44,0,0,0,106.49,98.11Z"/><path class="cls-2" d="M124.58,67.2s1.61,6.11,0,8c.21-10.61-9.64-14.14-9.64-21.75-4.07,10.07,2,15.54-.64,15.27s-3.22-5.52-1.4-14.09-2.46-13.28-6.64-18.21c3.22,8.68-9.53,13.5-6.64,25.71s-3.11,13.6-2.89,8.41-1.18-10.23-3.86-11.52c3.22,5.79-5.57,6.43-4.82,17.79A14,14,0,0,0,96.8,89.49a9.6,9.6,0,0,1-2.45-4.44,15.58,15.58,0,0,1,0-5.47c1.42,3.51,5.31,1.82,8.06,4.63a10.85,10.85,0,0,1,2.75,6.88s.72-5.76-2.75-9.41S106.6,66.1,107.14,62c2.41,2.1,9.45,16.09,5.66,19.65a23.16,23.16,0,0,0-3.93,8.85s2.86-5.73,4.72-6.57,4.45-2.28,5.76-4c.69,2.61.52,7.74-1.6,10.57C128.88,88.09,129.11,73.38,124.58,67.2Z"/><path class="cls-2" d="M119.28,80a17.17,17.17,0,0,1-2.87,5.23,24,24,0,0,1-4.5,3.93c-.4.32-.82.61-1.22,1a14.79,14.79,0,0,0-1.19,1.06c-.18.19-.38.38-.56.58l-.49.64a7.56,7.56,0,0,0-.84,1.39,8.08,8.08,0,0,0-.35.8c.1-1,.19-2.11.26-3.17.19-2.61.06-5.23.07-7.85l0-7.85c0-2.62,0-5.24.14-7.84l-.16,0c-.4,2.61-.54,5.23-.77,7.84l-.51,7.84c-.15,2.62-.43,5.23-.38,7.85,0,.9,0,1.8.07,2.69a12.16,12.16,0,0,0-1.16-2.2,18.83,18.83,0,0,0-2.25-2.62C101,87.63,99.11,86.4,97.46,85a10.09,10.09,0,0,1-2.16-2.36,6.35,6.35,0,0,1-.87-3.06h-.16a6.32,6.32,0,0,0,.6,3.3,10.88,10.88,0,0,0,2,2.7c1.61,1.57,3.36,2.92,4.77,4.53a17.54,17.54,0,0,1,3.16,5.4,33.66,33.66,0,0,1,1.63,6.25h.15a14,14,0,0,0,.28-2.67A26.39,26.39,0,0,1,109,94.53a19.05,19.05,0,0,1,3.72-4.41A25.2,25.2,0,0,0,117,85.69a16.48,16.48,0,0,0,2.4-5.67Z"/></svg>