<svg viewbox="0 0 124.94 143.08" xmlns="http://www.w3.org/2000/svg">
    <defs>
        <style>
            .cls-1{fill:#f7d74e;}
        </style>
    </defs>
    <title>
        Asset 1
    </title>
    <g data-name="Layer 2" id="Layer_2">
        <g data-name="Layer 1" id="Layer_1-2">
            <circle class="cls-1" cx="62.47" cy="62.47" r="62.47">
            </circle>
            <path class="cls-1" d="M.82,71.27C.4,75,3.13,80.35,4.47,83.83,6.4,88.83,7.34,94.12,9.62,99c1.88,4,3.65,9,7.31,12,1.67,1.39,3.41,1.9,4.86,3.61,2.07,2.44,3.26,4.82,6,6.67,5.57,3.77,12,1.22,16.55,7.24,5.26,7,10.23,14.29,20,14.55s13.22-11.43,20-16.79c3.24-2.57,7.14-2.9,10.81-4.76a20.3,20.3,0,0,0,7.56-7.5c4.12-6.55,6.61-14,8.9-21.17.29-.91,1.42-2.56.85-3.53-1.24-2.1-9.32-1.12-11.54-1.34-9.3-.89-17.58-6-26.92-7.28-5.14-.7-9.76-2.91-15-3.37-4.16-.36-8.53-.73-12.7-.69-3.3,0-6.48.46-9.77-.19-3.1-.61-5.27-2.47-8.11-3.59">
            </path>
            <path d="M37,78.81v-29A28.08,28.08,0,0,1,33.4,50V45.67a7.62,7.62,0,0,0,5.07-2.53h4.11V78.81Z">
            </path>
            <path d="M66.92,52.32v17c0,5.37-1.61,9.9-8.53,9.9-6.39,0-8.13-4.47-8.13-9.84V52.71c0-6.16,2.65-9.83,8.44-9.83S66.92,46.46,66.92,52.32ZM55.8,52V70c0,2.65.79,4.09,2.8,4.09s2.74-1.49,2.74-4.25v-18c0-2.46-.77-3.92-2.75-3.92S55.8,49.27,55.8,52Z">
            </path>
            <path d="M89.75,52.32v17c0,5.37-1.62,9.9-8.53,9.9-6.39,0-8.13-4.47-8.13-9.84V52.71c0-6.16,2.65-9.83,8.44-9.83S89.75,46.46,89.75,52.32ZM78.63,52V70c0,2.65.79,4.09,2.8,4.09s2.74-1.49,2.74-4.25v-18c0-2.46-.77-3.92-2.75-3.92S78.63,49.27,78.63,52Z">
            </path>
            <path d="M37.52,91.37v.54c0,1.56-.26,3.76-3.15,3.76-2.54,0-3.08-1.59-3.08-3.68v-6.9c0-2.12,1-3.52,3.11-3.52,2.57,0,3.06,1.7,3.06,3.6v.61H35.34v-.86c0-.91-.21-1.42-.94-1.42s-1,.49-1,1.43v7.24c0,.9.18,1.59,1,1.59s1-.6,1-1.62v-.77Z">
            </path>
            <path d="M41.85,91.8l-.48,3.67H39.23l2.2-13.7h3l2.29,13.7H44.47l-.54-3.67Zm1.86-1.94c-.31-2.33-.61-4.53-.77-6.08h-.08c-.06,1.13-.47,4.06-.74,6.08Z">
            </path>
            <path d="M48.74,81.77h2.11V93.54H54.3l-.18,1.89H48.74Z">
            </path>
            <path d="M62.61,85.41V91.8c0,2.62-1.11,3.87-3.43,3.87s-3.23-1.28-3.23-3.83V85.39c0-2.62,1.32-3.82,3.36-3.82S62.61,82.77,62.61,85.41ZM58.1,85.2v6.89c0,1.13.41,1.67,1.18,1.67s1.18-.5,1.18-1.7V85.18c0-1.08-.33-1.68-1.19-1.68S58.1,84,58.1,85.2Z">
            </path>
            <path d="M67.31,89.34v6.13H65.2V81.77h2.93c2.08,0,3.31.84,3.31,3.3v.52c0,2.11-.86,2.64-1.39,2.86.79.37,1.25,1,1.25,2.81a37,37,0,0,0,.13,4.21h-2a29.86,29.86,0,0,1-.15-4.08c0-1.67-.21-2-1.44-2Zm0-1.74h.49c1.12,0,1.53-.42,1.53-1.91v-.47c0-1.06-.22-1.7-1.42-1.7h-.6Z">
            </path>
            <path d="M76.15,81.77v13.7H74V81.77Z">
            </path>
            <path d="M84.14,89.21h-3v4.33h3.47l-.26,2H79V81.84h5.29v2H81.14v3.54h3Z">
            </path>
            <path d="M88.47,91.43v.85c0,1,.31,1.59,1.11,1.59s1-.78,1-1.67c0-1.47-.31-1.93-1.78-3.09s-2.26-1.91-2.26-3.93c0-1.81.54-3.63,3-3.63s2.91,1.81,2.91,3.29v.7h-2v-.68c0-1-.16-1.53-.86-1.53s-.87.6-.87,1.5.18,1.45,1.39,2.33c2,1.51,2.67,2.39,2.67,4.68,0,1.94-.68,3.79-3.23,3.79S86.42,94,86.42,92.21v-.82Z">
            </path>
            <path d="M35.4,21.2V35.92c0,1.41.47,2.22,1.62,2.22s1.57-.91,1.57-2.22V21.2h3V35.86c0,3.05-1.38,5-4.6,5s-4.52-1.69-4.52-5V21.2Z">
            </path>
            <path d="M45.54,40.54V21.2H49c.77,2.73,3.08,12.28,3.29,13.31h0c-.14-2.38-.14-5.11-.14-8.29v-5h2.75V40.54h-3.3C51,38.23,48.41,27.61,48.21,26.8h0c.14,2.34.13,5,.13,8.45v5.29Z">
            </path>
            <path d="M59,21.2h4.14c4.11,0,5.11,2.12,5.11,5.72v7.42c0,3-.51,6.21-5.11,6.21H59ZM62,38h1c2,0,2.26-1.26,2.26-3.27V26.68c0-1.78-.32-2.92-2.28-2.92H62Z">
            </path>
            <path d="M79.1,31.71H74.85V37.8h4.9l-.38,2.74h-7.5V21.2h7.47V24H74.85v5H79.1Z">
            </path>
            <path d="M85.62,31.9v8.64h-3V21.2h4.13c2.95,0,4.69,1.18,4.69,4.66v.74c0,3-1.23,3.73-2,4,1.13.53,1.78,1.35,1.78,4a52.64,52.64,0,0,0,.18,6H88.51a42.81,42.81,0,0,1-.2-5.75c0-2.36-.3-2.9-2-2.9Zm0-2.47h.69c1.58,0,2.16-.59,2.16-2.7v-.66c0-1.5-.31-2.41-2-2.41h-.85Z">
            </path>
            <path d="M31.33,98.54h2.49c1.78,0,2.69.88,2.69,2.86v.66c0,1.85-.66,3.08-2.78,3.08h-.67v4.61H31.33Zm1.73,5.19h.47c1.08,0,1.26-.63,1.26-1.72v-.47c0-.82-.14-1.49-1.1-1.49h-.63Z">
            </path>
            <path d="M42.54,104.66H40.08v3.53h2.84l-.22,1.59H38.35V98.54h4.33v1.61h-2.6V103h2.46Z">
            </path>
            <path d="M46.32,104.77v5H44.6V98.54H47c1.7,0,2.71.69,2.71,2.7v.43c0,1.72-.71,2.16-1.14,2.34.66.3,1,.77,1,2.29a31,31,0,0,0,.1,3.45H48a24,24,0,0,1-.12-3.33c0-1.37-.17-1.68-1.17-1.68Zm0-1.43h.4c.91,0,1.25-.34,1.25-1.56v-.39c0-.86-.18-1.39-1.16-1.39h-.49Z">
            </path>
            <path d="M54.77,98.54h2.3c1.94,0,2.69.91,2.69,2.55v.45c0,1.59-.55,2-1,2.26.5.2,1.24.61,1.24,2.24v.85c0,1.9-.79,2.9-2.74,2.9H54.77Zm2.11,4.56c1,0,1.25-.29,1.25-1.41v-.43c0-.93-.33-1.29-1.16-1.29h-.5v3.13Zm-.44,5.24H57c1,0,1.24-.44,1.24-1.53v-.75c0-1.09-.27-1.56-1.37-1.56h-.42Z">
            </path>
            <path d="M67.29,101.54v5.23c0,2.15-.91,3.16-2.81,3.16s-2.64-1-2.64-3.13v-5.26c0-2.14,1.08-3.12,2.75-3.12S67.29,99.39,67.29,101.54Zm-3.69-.17V107c0,.94.33,1.37,1,1.37s1-.41,1-1.39v-5.63c0-.89-.27-1.38-1-1.38s-1,.46-1,1.41Z">
            </path>
            <path d="M70.39,100.18h-1.8V98.54h5.34v1.61H72.12v9.6H70.39Z">
            </path>
            <path d="M77,100.18h-1.8V98.54h5.34v1.61H78.77v9.6H77Z">
            </path>
            <path d="M82.19,98.54h1.73v9.66h2.82l-.15,1.55h-4.4Z">
            </path>
            <path d="M92.47,104.66H90v3.53h2.84l-.22,1.59H88.27V98.54H92.6v1.61H90V103h2.47Z">
            </path>
        </g>
    </g>
</svg>